<svg id="Layer_1" data-name="Layer 1" xmlns="http://www.w3.org/2000/svg" xmlns:xlink="http://www.w3.org/1999/xlink" viewBox="0 0 998 607"><defs><style>.cls-1{fill:#1a1a1a;}.cls-2{fill:#fff;}.cls-3{fill:url(#linear-gradient);}</style><linearGradient id="linear-gradient" x1="500.83" y1="66.85" x2="87.74" y2="479.95" gradientUnits="userSpaceOnUse"><stop offset="0" stop-color="#ccffc6"/><stop offset="0.03" stop-color="#c8fdc6"/><stop offset="0.07" stop-color="#bbf7c8"/><stop offset="0.1" stop-color="#a7edca"/><stop offset="0.14" stop-color="#8adecd"/><stop offset="0.17" stop-color="#64ccd1"/><stop offset="0.21" stop-color="#36b6d5"/><stop offset="0.24" stop-color="#019bdb"/><stop offset="0.24" stop-color="#009bdb"/><stop offset="0.52" stop-color="#008cd0"/><stop offset="1" stop-color="#0069b6"/></linearGradient></defs><path class="cls-1" d="M453.93,486.41V333.79h57.6a111,111,0,0,1,22.08,2.13,52.37,52.37,0,0,1,18.84,7.62,39.46,39.46,0,0,1,13.09,14.87c3.19,6.17,4.81,13.94,4.81,23.1,0,9-1.5,16.69-4.45,22.89a38.75,38.75,0,0,1-12.44,15.13,49.39,49.39,0,0,1-18.36,7.87A103.71,103.71,0,0,1,513,429.64H493v56.77Zm57-90.92a37.73,37.73,0,0,0,7.62-.75,18.55,18.55,0,0,0,6.08-2.33,11.36,11.36,0,0,0,3.94-4.11,13.7,13.7,0,0,0,1.48-6.79,11.11,11.11,0,0,0-1.86-6.83,13.33,13.33,0,0,0-5.26-4.18,25,25,0,0,0-7.84-2.07c-3.17-.32-6.23-.49-9.1-.49H493v27.55Z"/><path class="cls-2" d="M511.53,337.29a106.93,106.93,0,0,1,21.39,2.06,48.68,48.68,0,0,1,17.58,7.09A35.87,35.87,0,0,1,562.43,360q4.43,8.53,4.42,21.49,0,12.75-4.11,21.39a35.06,35.06,0,0,1-11.31,13.78,45.84,45.84,0,0,1-17.07,7.3A100.15,100.15,0,0,1,513,426.14H489.52v56.77H457.43V337.29h54.1m-22,61.7h21.39a41.22,41.22,0,0,0,8.33-.82,22.14,22.14,0,0,0,7.2-2.78,14.89,14.89,0,0,0,5.14-5.34,17,17,0,0,0,1.95-8.54,14.43,14.43,0,0,0-2.57-8.95,17.06,17.06,0,0,0-6.58-5.24,28.2,28.2,0,0,0-9-2.37,92.07,92.07,0,0,0-9.46-.51H489.52V399m22-68.7h-61.1V489.91h46.09V433.14H513a107.5,107.5,0,0,0,22.88-2.32,53.26,53.26,0,0,0,19.65-8.44,42.21,42.21,0,0,0,13.56-16.47c3.18-6.68,4.79-14.89,4.79-24.4,0-9.73-1.75-18-5.2-24.71a43.07,43.07,0,0,0-14.25-16.17,55.92,55.92,0,0,0-20.08-8.14,114.44,114.44,0,0,0-22.79-2.2Zm-15,41.15H506a84.26,84.26,0,0,1,8.74.48,21.44,21.44,0,0,1,6.74,1.75,10.41,10.41,0,0,1,3.94,3.12,7.91,7.91,0,0,1,1.14,4.72,10.27,10.27,0,0,1-1,5.05,7.86,7.86,0,0,1-2.73,2.87,15,15,0,0,1-4.94,1.88,34.66,34.66,0,0,1-6.93.68H496.52V371.44Z"/><path class="cls-1" d="M653.65,490.11A93.44,93.44,0,0,1,621,484.54a75.67,75.67,0,0,1-26.08-16.06,73.33,73.33,0,0,1-17.18-25.37,92.08,92.08,0,0,1,0-66,73.33,73.33,0,0,1,17.18-25.37A76,76,0,0,1,621,335.65a93.67,93.67,0,0,1,32.69-5.56,120.52,120.52,0,0,1,33.15,4.35A66.72,66.72,0,0,1,714,349.74l2.56,2.36-27.49,30-2.58-2.67a42,42,0,0,0-13.67-9.5c-5-2.13-11.48-3.21-19.19-3.21a44.39,44.39,0,0,0-17.26,3.22,38.58,38.58,0,0,0-13.12,8.95,39.81,39.81,0,0,0-8.4,13.71,53.42,53.42,0,0,0,0,35.1,39.66,39.66,0,0,0,8.41,13.62,38.37,38.37,0,0,0,13.12,9,44.32,44.32,0,0,0,17.26,3.22,58.33,58.33,0,0,0,17.06-2.2,75.87,75.87,0,0,0,9.67-3.64v-18H654.26V393h64v81.73l-1.88,1a119.93,119.93,0,0,1-30.51,11A154.28,154.28,0,0,1,653.65,490.11Z"/><path class="cls-2" d="M653.65,333.59a116.83,116.83,0,0,1,32.18,4.21,63.22,63.22,0,0,1,25.82,14.5L689,377a45,45,0,0,0-14.81-10.29q-8.22-3.49-20.56-3.49A47.71,47.71,0,0,0,635,366.7a41.74,41.74,0,0,0-14.29,9.77,43,43,0,0,0-9.16,14.91,57,57,0,0,0,0,37.54,43.13,43.13,0,0,0,9.16,14.81A41.74,41.74,0,0,0,635,453.5,47.71,47.71,0,0,0,653.65,457a61.28,61.28,0,0,0,18.1-2.36,68.29,68.29,0,0,0,12.13-4.84V426.14H657.76V396.52h57v76.1a115.8,115.8,0,0,1-29.62,10.7,150.6,150.6,0,0,1-31.46,3.29,89.54,89.54,0,0,1-31.47-5.35,71.93,71.93,0,0,1-24.89-15.32,69.56,69.56,0,0,1-16.35-24.17,88.54,88.54,0,0,1,0-63.35,69.52,69.52,0,0,1,16.35-24.16,71.93,71.93,0,0,1,24.89-15.32,89.54,89.54,0,0,1,31.47-5.35m0-7a97.08,97.08,0,0,0-33.91,5.78,79.5,79.5,0,0,0-27.27,16.81,76.8,76.8,0,0,0-18,26.57,95.52,95.52,0,0,0,0,68.7,76.71,76.71,0,0,0,18,26.56,79.22,79.22,0,0,0,27.27,16.82,97.31,97.31,0,0,0,33.91,5.78,158.57,158.57,0,0,0,32.92-3.44A124,124,0,0,0,718,478.83l3.76-2V389.52h-71v43.62h26.12v12.23c-2,.86-4.46,1.72-7.21,2.57a54.78,54.78,0,0,1-16,2.05A40.87,40.87,0,0,1,637.74,447a35.06,35.06,0,0,1-11.93-8.13,36.54,36.54,0,0,1-7.67-12.44,49.95,49.95,0,0,1,0-32.66,36.21,36.21,0,0,1,7.66-12.52,35.23,35.23,0,0,1,11.93-8.14,41.13,41.13,0,0,1,15.91-2.94c7.23,0,13.23,1,17.83,2.93A38.56,38.56,0,0,1,684,381.86l5.17,5.33,5-5.47L716.81,357l4.7-5.13-5.11-4.73a70.21,70.21,0,0,0-28.64-16.09,123.93,123.93,0,0,0-34.11-4.49Z"/><path class="cls-1" d="M805.43,490.11a93.43,93.43,0,0,1-32.68-5.57,75.82,75.82,0,0,1-26.08-16.06,73.33,73.33,0,0,1-17.18-25.37,92.08,92.08,0,0,1,0-66,73.33,73.33,0,0,1,17.18-25.37,76,76,0,0,1,26.08-16.07,98.85,98.85,0,0,1,65.37,0,76,76,0,0,1,26.08,16.07,73.33,73.33,0,0,1,17.18,25.37,92.08,92.08,0,0,1,0,66,73.33,73.33,0,0,1-17.18,25.37,75.82,75.82,0,0,1-26.08,16.06A93.48,93.48,0,0,1,805.43,490.11Zm0-123.4a44.43,44.43,0,0,0-17.26,3.22,38.54,38.54,0,0,0-13.11,8.95,39.66,39.66,0,0,0-8.4,13.71,53.42,53.42,0,0,0,0,35.1,39.66,39.66,0,0,0,8.41,13.62,38.43,38.43,0,0,0,13.11,9,47.87,47.87,0,0,0,34.52,0,38.42,38.42,0,0,0,13.12-9,40,40,0,0,0,8.41-13.62,53.42,53.42,0,0,0,0-35.1,39.68,39.68,0,0,0-8.41-13.71,38.4,38.4,0,0,0-13.11-8.95A44.39,44.39,0,0,0,805.43,366.71Z"/><path class="cls-2" d="M805.43,333.59a89.62,89.62,0,0,1,31.47,5.35,71.93,71.93,0,0,1,24.89,15.32,69.52,69.52,0,0,1,16.35,24.16,88.54,88.54,0,0,1,0,63.35,69.56,69.56,0,0,1-16.35,24.17,71.93,71.93,0,0,1-24.89,15.32,95.2,95.2,0,0,1-62.93,0,71.93,71.93,0,0,1-24.89-15.32,69.56,69.56,0,0,1-16.35-24.17,88.54,88.54,0,0,1,0-63.35,69.52,69.52,0,0,1,16.35-24.16A71.93,71.93,0,0,1,774,338.94a89.52,89.52,0,0,1,31.46-5.35m0,123.4a47.71,47.71,0,0,0,18.62-3.49,41.84,41.84,0,0,0,14.29-9.77,43.13,43.13,0,0,0,9.16-14.81,57,57,0,0,0,0-37.54,43,43,0,0,0-9.16-14.91,41.84,41.84,0,0,0-14.29-9.77,51.39,51.39,0,0,0-37.23,0,41.74,41.74,0,0,0-14.29,9.77,43,43,0,0,0-9.16,14.91,57,57,0,0,0,0,37.54,43.13,43.13,0,0,0,9.16,14.81,41.74,41.74,0,0,0,14.29,9.77A47.66,47.66,0,0,0,805.43,457m0-130.4a97,97,0,0,0-33.9,5.78,79.5,79.5,0,0,0-27.27,16.81,76.8,76.8,0,0,0-18,26.57,95.52,95.52,0,0,0,0,68.7,76.61,76.61,0,0,0,18,26.56,79.13,79.13,0,0,0,27.27,16.82,102.25,102.25,0,0,0,67.81,0A79.1,79.1,0,0,0,866.61,471a76.61,76.61,0,0,0,18-26.56,95.52,95.52,0,0,0,0-68.7,76.66,76.66,0,0,0-18-26.56,79.28,79.28,0,0,0-27.27-16.82,97.12,97.12,0,0,0-33.91-5.78Zm0,123.4a40.86,40.86,0,0,1-15.9-2.95,35,35,0,0,1-11.93-8.13,36.24,36.24,0,0,1-7.67-12.44,49.95,49.95,0,0,1,0-32.66,36.06,36.06,0,0,1,7.66-12.52,35.13,35.13,0,0,1,11.93-8.14,44.42,44.42,0,0,1,31.81,0,35,35,0,0,1,11.93,8.14,36.23,36.23,0,0,1,7.66,12.51,49.95,49.95,0,0,1,0,32.66,36.4,36.4,0,0,1-7.67,12.43A35,35,0,0,1,821.34,447,40.87,40.87,0,0,1,805.43,450Z"/><path class="cls-3" d="M550.84,152.05l0-.12-.16-.49,0-.06c-.11-.34-.22-.64-.31-.94a14,14,0,0,0-13.58-10.23h-.22c-2.94,0-5.93,0-8.92,0s-5.66,0-8.1.06c-1.94-5.13-4.21-10.59-7.12-17.13,3.22-3.1,6.39-6.3,9.47-9.41l2.2-2.22c6.22-6.26,6.25-15,.07-21.29-4.84-4.91-9.38-9.45-13.87-13.87a14.43,14.43,0,0,0-20.65-.08c-2.18,2.13-4.37,4.32-6.48,6.43-1.83,1.84-3.71,3.72-5.6,5.57-4.91-2.13-9.78-4.31-14.92-6.6l-2.09-.94v-3c0-3.55,0-7.28,0-11,0-9.42-2.48-13.15-11-16.63l-.14-.06-.55-.22h-26.4l-.62.3-.16.08q-.53.25-1.05.48a20.26,20.26,0,0,0-3,1.57,13.51,13.51,0,0,0-6.36,11.71v4.92c0,4,0,8.23-.05,12.35-4.89,2-9.83,3.85-15,5.85l-.17.06-2.29.88-.48-.49-.12-.12-6.51-6.63-.52-.53c-1.35-1.37-2.74-2.78-4.18-4.16a14.64,14.64,0,0,0-10.11-4.12,14.19,14.19,0,0,0-9.83,4c-4.89,4.68-9.8,9.59-15,15a13.14,13.14,0,0,0-1.14,1.35c-24.21-6.47-53.66-10.35-88.51-10.35-106.84,0-163.19,36.35-171.93,72.6A15.63,15.63,0,0,0,84,160.7V460.2a15.91,15.91,0,0,0,1.07,5.72C94.27,508.31,166.46,539,257.24,539c90.47,0,162.62-30.55,172.11-72.75a16.35,16.35,0,0,0,1.14-6.05V280h18.25l.75-.49.19-.13.05,0c7.23-2.24,10.76-7.09,10.76-14.83,0-1.44,0-2.88,0-4.31v-.07c0-3.8,0-7.72,0-11.61,2.83-.87,5.6-1.9,8.83-3.16a8.38,8.38,0,0,0,4.89-4.33,7,7,0,0,0,0-5.4,6.76,6.76,0,0,0-6.54-4.38,10.53,10.53,0,0,0-3.53.66c-4.3,1.53-8.15,2.82-11.78,3.94-4.55,1.41-6.24,3.67-6.24,8.37v20.44a5.81,5.81,0,0,1-.05.77,5.14,5.14,0,0,1-.83.05l-9.78,0-9.12,0a4.83,4.83,0,0,1-.65,0,5.78,5.78,0,0,1,0-.73q0-8.21,0-16.42v-3.58c0-5.5-1.71-7.7-7.05-9.05a75.3,75.3,0,0,1-21.07-8.89,9.15,9.15,0,0,0-4.7-1.61c-2.45,0-4.24,1.44-5.65,2.85l-5.92,5.91-.15.16c-2.9,2.9-5.79,5.8-8.7,8.68a4.29,4.29,0,0,1-.56.49,4.85,4.85,0,0,1-.52-.46c-4.07-4-8.79-8.74-13.36-13.36a5.13,5.13,0,0,1-.52-.58c.11-.14.29-.35.57-.64l6.59-6.59.53-.53,7.64-7.65c3.15-3.17,3.52-6.41,1.16-10.22a77.53,77.53,0,0,1-9.1-21.69c-1.19-4.65-3.54-6.46-8.36-6.47H336a6.41,6.41,0,0,1-.73,0,7.53,7.53,0,0,1,0-.83c0-6.93,0-13.12,0-18.91,0-.29,0-.5,0-.66a6.09,6.09,0,0,1,.69,0h20.66c4.6,0,7.05-1.93,8.2-6.42a77.68,77.68,0,0,1,9.08-21.7c2.42-3.9,2-7.11-1.24-10.39l-5.43-5.42-.24-.24q-4.54-4.55-9.09-9.1a4.22,4.22,0,0,1-.48-.55,6.19,6.19,0,0,1,.48-.55c3.91-3.93,8.11-8.13,13.21-13.2a6.18,6.18,0,0,1,.72-.63,5.08,5.08,0,0,1,.68.6l7.11,7.1.16.15,7.51,7.5a7.81,7.81,0,0,0,5.59,2.65A8.45,8.45,0,0,0,397.3,103,76.6,76.6,0,0,1,419,93.85c4.76-1.22,6.61-3.61,6.61-8.5V77q0-6.06,0-12.13a5.7,5.7,0,0,1,0-.67,5.7,5.7,0,0,1,.67,0H445.2a7.53,7.53,0,0,1,.83,0,6.49,6.49,0,0,1,0,.74c0,3.91,0,7.82,0,11.73v8.49c0,5.14,1.74,7.4,6.67,8.66a76.5,76.5,0,0,1,21.3,8.91,9.07,9.07,0,0,0,4.83,1.64,8.18,8.18,0,0,0,5.73-2.84l6.34-6.34.23-.23,8-8a4.67,4.67,0,0,1,.64-.56,7.15,7.15,0,0,1,.58.51c4.41,4.39,9,8.94,13.21,13.21a6,6,0,0,1,.6.68,7.34,7.34,0,0,1-.62.7c-5.29,5.31-10.07,10.1-14.9,14.89a7.35,7.35,0,0,0-1.17,9.75,74.86,74.86,0,0,1,9.3,22c1.16,4.56,3.6,6.43,8.43,6.43H535.5a6.47,6.47,0,0,1,.94.05c0,.18,0,.45,0,.85,0,6.33,0,12.62,0,18.69,0,.39,0,.67,0,.84a6.36,6.36,0,0,1-.76,0H514.79c-4.16,0-6.48,1.74-7.78,5.78s-2.72,8.31-4.17,12.45c-1.53,4.35,0,8.3,3.8,9.85a7.42,7.42,0,0,0,2.78.56,6.7,6.7,0,0,0,2.66-.55,7.77,7.77,0,0,0,4.12-4.46c1-2.53,2.26-5.81,3.32-9.24,2.36,0,4.86.05,7.81.05q3.75,0,7.43,0h1.87a13.75,13.75,0,0,0,12.21-7,19.65,19.65,0,0,0,1.45-3.31l.43-1.13.06-.14.22-.54V152.52ZM407.12,457c-.05.29-.1.59-.14.9-3,22.12-61.44,53-149.74,53s-146.7-30.86-149.73-53c0-.28-.09-.55-.14-.81V402c30.09,25.36,84.39,39.84,149.87,39.84S377.09,427.35,407.12,402Zm0-105.09a16.82,16.82,0,0,0-.14,5.34,11.37,11.37,0,0,1,.14,1.75,14.22,14.22,0,0,1-.35,2.3l0,.28a16.13,16.13,0,0,1-.54,2,18.88,18.88,0,0,1-.73,1.8,20.86,20.86,0,0,1-1.24,2.37c-.36.62-.78,1.24-1.21,1.85-.65.92-1.34,1.84-2.12,2.76-.49.56-1,1.12-1.55,1.68-1,1.06-2.06,2.11-3.25,3.17-.38.33-.76.66-1.16,1l-.42.35c-1.43,1.19-2.93,2.36-4.59,3.54l-1.31.89c-1.92,1.31-3.92,2.6-6.09,3.85l-.85.47c-2.43,1.39-5,2.75-8,4.17-15.48,7.44-35,13.39-56.86,17.26-4.37.78-8.85,1.46-13.44,2.07l-2.31.26c-4,.5-8.09,1-12.28,1.34-1.08.09-2.2.15-3.32.22l-4.27.29c-2.58.18-5.15.37-7.77.48-10.59.4-21.81.42-32.42,0-2.36-.1-4.66-.26-7-.43l-4.82-.32c-1.2-.08-2.41-.15-3.59-.25-4.19-.37-8.25-.83-12.26-1.33l-2.32-.27c-4.61-.6-9.1-1.3-13.8-2.12-21.49-3.81-41-9.76-56.76-17.32-2.72-1.31-5.28-2.67-7.66-4l-.9-.49c-2.16-1.26-4.15-2.54-6-3.83l-1.38-.93c-1.63-1.16-3.11-2.33-4.54-3.52l-.51-.42c-.37-.3-.73-.6-1.1-.92-1.17-1.05-2.22-2.1-3.41-3.35-.46-.49-.92-1-1.38-1.51a32.12,32.12,0,0,1-2.1-2.73c-.44-.62-.86-1.23-1.22-1.84a23.8,23.8,0,0,1-1.24-2.39c-.28-.62-.53-1.24-.73-1.81a18.49,18.49,0,0,1-.61-2.34,15.82,15.82,0,0,1-.33-2.25,14.25,14.25,0,0,1,.14-1.76,16.77,16.77,0,0,0-.14-5.33v-47c30.1,25.36,84.4,39.85,149.87,39.85s119.83-14.52,149.88-39.86ZM361,253a14.56,14.56,0,0,0,21.62-.09l2.42-2.4c3-3,6.06-6,9.05-9.1,4.52,2,8.82,3.87,13,5.53v7.91a16.72,16.72,0,0,0-.14,5.32,11.63,11.63,0,0,1,.14,1.77,17.06,17.06,0,0,1-.4,2.57,16.28,16.28,0,0,1-.54,2.05c-.2.59-.45,1.18-.73,1.8a21.17,21.17,0,0,1-1.25,2.38c-.36.62-.77,1.23-1.2,1.83-.65.92-1.34,1.85-2.12,2.77-.44.51-.93,1-1.55,1.68-1,1.06-2.06,2.11-3.25,3.17-.46.4-.94.8-1.58,1.33-1.43,1.18-2.93,2.36-4.59,3.54l-1.31.89c-1.92,1.31-3.93,2.6-6.09,3.85l-.85.47c-2.43,1.38-5,2.74-8,4.17-15.5,7.44-35,13.39-56.22,17.17l-.64.09q-6.56,1.16-13.44,2.07l-2.31.25c-4,.5-8.09,1-12.28,1.34-1.08.09-2.2.16-3.32.23l-4.27.28c-2.58.19-5.15.38-7.77.49-10.59.4-21.81.43-32.41,0-2.47-.11-4.88-.28-7.29-.46l-4.59-.3c-1.18-.07-2.36-.14-3.5-.24-4.19-.37-8.25-.84-12.3-1.35l-2.28-.24c-4.61-.62-9.09-1.31-13.8-2.13-21.49-3.82-41-9.77-56.76-17.31-2.71-1.32-5.27-2.68-7.66-4l-.9-.5c-2.16-1.25-4.16-2.53-6-3.82l-1.39-.94c-1.63-1.15-3.11-2.33-4.51-3.49l-1.64-1.37c-1.17-1.05-2.21-2.09-3.31-3.24-.49-.51-1-1-1.47-1.61a32.12,32.12,0,0,1-2.1-2.73c-.43-.62-.85-1.23-1.23-1.87a24.3,24.3,0,0,1-1.23-2.36c-.28-.61-.53-1.23-.74-1.83a17.57,17.57,0,0,1-.6-2.35,15.11,15.11,0,0,1-.33-2.22,14.26,14.26,0,0,1,.14-1.77,16.72,16.72,0,0,0-.14-5.32V207.75c1,.83,2,1.63,3,2.41.36.28.74.55,1.12.82l.51.37c2.06,1.55,4.25,3.06,6.54,4.55.85.54,1.69,1.08,2.57,1.62q3.83,2.34,8,4.53l1.35.74c3.05,1.56,6.41,3.11,10.27,4.76l3,1.25q4.25,1.71,8.81,3.32l1,.35c.76.26,1.53.54,2.28.78,4,1.34,8.16,2.61,12.48,3.78l1.88.46c3.82,1,7.79,1.93,11.86,2.8,1.39.29,2.79.58,4.19.85q5.81,1.16,11.95,2.1l3.11.52c5.07.73,10.32,1.36,15.71,1.91l4.06.34c4.3.38,8.71.69,13.2.93l5,.25c11.71.48,24.3.49,36,0,1.67-.07,3.3-.16,4.94-.25,4.5-.24,8.9-.55,13.23-.93l4-.34q8.1-.81,15.73-1.92l3.1-.5q6.13-1,11.95-2.1l4.19-.86c4.08-.87,8.05-1.81,11.88-2.81l1.31-.32a17.8,17.8,0,0,0,2,2.4C353,245,357.14,249.11,361,253Zm-6.37-120.14a70.5,70.5,0,0,0-2.55,7.4c-2.15,0-4.47,0-7.22,0H336c-7.29,0-11.75,3-14.37,9.69l-.16.18-.69.84v26.75l.14.44,0,.12c1.95,6.07,5.64,9.74,11,10.92a17.8,17.8,0,0,0,3.81.35h16.38c.53,1.27,1.05,2.54,1.58,3.8,1.42,3.45,2.9,7,4.42,10.47-25.43,9.22-59.79,15.75-100.84,15.75-91.48,0-149.87-32.43-149.87-54.76S165.76,110,257.24,110c40.95,0,75.23,6.5,100.64,15.68C356.74,128.09,355.67,130.41,354.65,132.81ZM551,254.9l0-.15,0-.15c-1.35-6.58-5.42-11.08-9.84-15.48-13.42-13.38-27-27-40.19-40.23l0,0q-13.46-13.48-26.92-27l-.21-.23s0-.14,0-.25A38.77,38.77,0,0,0,436,126.25a40.78,40.78,0,0,0-15.87,3.38c-3.58,1.52-4.59,4-4.87,5.39s-.36,4.12,2.39,7c.25.26.51.52.77.77l.39.38c1.18,1.19,2.38,2.38,3.57,3.57l.89.89c3.54,3.53,7.18,7.16,10.72,10.74.86.88,2.07,2.63.46,4.54a3.17,3.17,0,0,1-2.3,1.22H432a3.8,3.8,0,0,1-2.62-1.2c-3.7-3.65-7.44-7.4-11.06-11l-.21-.22c-1.47-1.47-2.93-2.94-4.4-4.4-2.14-2.15-4.32-3.24-6.47-3.24a6.4,6.4,0,0,0-1.31.13c-2.52.54-4.44,2.51-5.71,5.83-5.43,14.28-3.56,27.31,5.56,38.71,7.7,9.63,17.72,14.52,29.77,14.52a49.59,49.59,0,0,0,7-.52h.11a1.4,1.4,0,0,1,.24.22l24.19,24.13.12.12c14.09,14,28.65,28.57,42.94,42.89,4.4,4.41,8.9,8.49,15.48,9.83l.3.06h.3l5.47,0h.41l.4-.11.1,0c5.44-1.5,9.23-3.62,12.31-6.88,3.26-3.45,4.79-7.47,6-11.31l0-.11.13-.42v-5.93l0-.16Zm-14.59,4.43a7.35,7.35,0,0,1-5.27,5.78,7.82,7.82,0,0,1-2.36.39,7.28,7.28,0,0,1-5.21-2.44l-47.08-47L459,198.7l-2.44-2.43-.09-.09c-1.9-1.87-3.85-3.81-5.73-5.74a8.11,8.11,0,0,0-6-2.62,10.16,10.16,0,0,0-2.26.27,29,29,0,0,1-6.37.72c-11.09,0-20.27-6.71-23.4-17.11a23.34,23.34,0,0,1-1-6c2.66,2.7,5.2,5.28,7.83,7.84a17.84,17.84,0,0,0,12.4,4.89,18.32,18.32,0,0,0,7.58-1.64,17.61,17.61,0,0,0,4.64-28.58l-7.56-7.51c.68,0,1.38.12,2.11.23a24.11,24.11,0,0,1,20.46,29.76,9.83,9.83,0,0,0,2.93,9.81c16.05,16,32.24,32.25,47.9,47.95l23.87,23.92C536.18,254.64,537,256.79,536.38,259.33Zm-56.17-86.77a45,45,0,0,0-8.87-35.27A44.57,44.57,0,0,0,439.81,120c-.36,0-.75,0-1.23,0l-1.29,0c-.49,0-1,0-1.51,0a44.83,44.83,0,0,0-32.13,76.24,43.92,43.92,0,0,0,27.42,13.21c1,.09,2.12.14,3.34.14,2.24,0,4.56-.16,6.82-.3l2.94-.19h.57c4,0,7.13,2.39,7.77,6a6.84,6.84,0,0,1-1.14,5.2,8,8,0,0,1-5.3,3.18,62.25,62.25,0,0,1-10.09.83,59.39,59.39,0,0,1-34.76-11.16,58.45,58.45,0,0,1-23.86-38,59.41,59.41,0,0,1,46.78-68.5,57.16,57.16,0,0,1,11.75-1.22,59.62,59.62,0,0,1,35.54,12,58.59,58.59,0,0,1,23.42,42.31,85.13,85.13,0,0,1-.28,12.6c-.06.81-.11,1.62-.17,2.43a7.39,7.39,0,0,1-2.8,5.44,7,7,0,0,1-4.33,1.5,7.21,7.21,0,0,1-1.23-.11C481.93,180.78,479.48,177,480.21,172.56Z"/></svg>