<?xml version="1.0" encoding="utf-8"?>
<!-- Generator: Adobe Illustrator 14.0.0, SVG Export Plug-In  -->
<!DOCTYPE svg PUBLIC "-//W3C//DTD SVG 1.1//EN" "http://www.w3.org/Graphics/SVG/1.1/DTD/svg11.dtd" [
	<!ENTITY ns_flows "http://ns.adobe.com/Flows/1.0/">
]>
<svg version="1.1"
	 xmlns="http://www.w3.org/2000/svg" xmlns:xlink="http://www.w3.org/1999/xlink" xmlns:a="http://ns.adobe.com/AdobeSVGViewerExtensions/3.0/"
	 x="0px" y="0px" width="196px" height="36px" viewBox="-0.194 -0.575 196 36" enable-background="new -0.194 -0.575 196 36"
	 xml:space="preserve">
<defs>
</defs>
<path fill="#FFFFFF" d="M30.521,17.933c-0.038-0.11-0.07-0.21-0.108-0.307c-0.219-0.571-0.458-1.131-0.713-1.682
	c-0.672-1.448-1.468-2.83-2.326-4.181c-0.122-0.192-0.237-0.386-0.361-0.576c-0.395-0.604-0.872-1.138-1.346-1.675
	c-0.414-0.469-0.826-0.94-1.175-1.463c-0.328-0.491-0.763-0.914-1.176-1.343c-0.523-0.545-1.144-0.965-1.887-1.128
	c-0.075-0.016-0.151-0.028-0.226-0.043c0.076,0.169,0.141,0.336,0.198,0.503c0.063,0.186,0.114,0.371,0.145,0.56
	c0.026,0.154,0.044,0.31,0.042,0.469c-0.001,0.168-0.04,0.313-0.12,0.431c-0.079,0.118-0.198,0.209-0.359,0.269
	c-0.209,0.077-0.42,0.148-0.696,0.244l-0.416,0.206c0.055-0.179,0.108-0.353,0.164-0.535c-0.028-0.01-0.11-0.039-0.224-0.08
	c0.178-0.503,0.362-0.983,0.843-1.295c-0.027,0.087-0.074,0.172-0.077,0.259c-0.002,0.107,0.033,0.214,0.052,0.321
	c0.096-0.025,0.206-0.028,0.286-0.079c0.155-0.1,0.249-0.237,0.181-0.446c-0.019-0.058-0.031-0.12-0.044-0.183
	c-0.007-0.035-0.017-0.072-0.023-0.109c-0.013-0.072-0.026-0.145-0.042-0.227c-0.341,0.219-0.667,0.415-0.879,0.717
	c-0.071,0.101-0.129,0.214-0.17,0.343c-0.012,0.037-0.022,0.083-0.049,0.106c-0.116,0.097-0.238,0.187-0.358,0.279
	c-0.068-0.16-0.211-0.334-0.185-0.477c0.037-0.204,0.197-0.385,0.293-0.555c0.281-0.445,1.188-0.684,1.387-0.731
	c-0.604-0.126-1.214-0.235-1.826-0.27c-2.182-0.124-4.275,0.118-6.054,1.586c-0.289,0.239-0.682,0.375-1.047,0.495
	c-0.405,0.134-0.561,0.418-0.359,0.8c0.043,0.082,0.095,0.151,0.154,0.209c0.175,0.174,0.412,0.25,0.667,0.28
	c0.274,0.033,0.551,0.03,0.83,0.042v0.001c-0.012,0.024-0.015,0.047-0.028,0.057c-1.292,0.981-2.581,1.965-3.877,2.94
	C9.14,12.02,8.598,12.207,8.01,12.232H8.009c-0.37,0.016-0.742-0.013-1.112-0.011c-0.558,0.002-0.788,0.198-0.875,0.681
	c0.128,0.015,0.186,0.148,0.2,0.296c0.013,0.148-0.019,0.31-0.071,0.381c-0.123,0.167-0.413,0.243-0.659,0.255
	c-0.083,0.004-0.16,0.001-0.225-0.008c-0.005-0.02,0.008-0.039,0.006-0.059C5.207,13.811,5.14,13.853,5.076,13.9
	c-0.139,0.102-0.21,0.211-0.215,0.318c-0.005,0.107,0.056,0.21,0.182,0.3c0.203,0.143,0.447,0.184,0.678,0.141
	c0.23-0.043,0.447-0.171,0.594-0.364l-0.056,0.102l0.777-0.545H7.035h0.001c0,0-0.18,0.39-0.552,0.753
	C6.336,14.75,6.156,14.89,5.944,15c-0.105,0.055-0.219,0.102-0.341,0.138c-0.19-0.006-0.351-0.031-0.465-0.055
	c-0.114-0.023-0.18-0.046-0.18-0.046C4.937,15.099,4.92,15.155,4.9,15.215c-0.005,0-0.01,0.001-0.016,0.001l0.01,0.019
	c-0.625,1.884-0.807,3.233-0.729,3.797c0.028,0.198,0.103,0.326,0.201,0.407c0.294,0.243,0.79,0.06,0.79,0.06
	c0.948-0.268,1.801-0.376,2.498-0.407c0.232-0.011,0.447-0.012,0.642-0.009c0.39,0.008,0.701,0.038,0.914,0.066
	c0.214,0.028,0.33,0.054,0.33,0.054c0.964,0.319,1.865,0.452,2.615,0.493c1.25,0.069,2.079-0.115,2.079-0.115
	s0.126-0.017,0.327-0.058c0.336-0.068,0.881-0.204,1.4-0.443c0.207-0.095,0.411-0.207,0.595-0.337
	c0.552-0.391,0.93-0.95,0.728-1.737c-0.049-0.34-0.286-0.686-0.576-1.006c-0.169-0.187-0.352-0.367-0.539-0.525
	c-0.255-0.214-0.504-0.395-0.69-0.522c-0.186-0.128-0.308-0.201-0.308-0.201c0.645-0.046,1.32,0.2,1.857,0.613
	c0.241,0.185,0.447,0.407,0.618,0.648c0.211,0.297,0.363,0.625,0.416,0.969c0.064,0.411,0.031,0.838,0.033,1.257
	c0.002,0.469-0.208,0.84-0.593,1.085c-0.922,0.587-1.914,1.017-2.976,1.215c-1.447,0.182-2.995-0.062-4.535-0.263
	s-3.072-0.355-4.488,0.005c-0.043,0.011-0.078,0.029-0.106,0.051c-0.112,0.09-0.112,0.258-0.035,0.371
	c0.038,0.057,0.096,0.1,0.168,0.111c0.036,0.006,0.076,0.005,0.119-0.006c0.219-0.057,0.442-0.1,0.666-0.133
	c0.047-0.008,0.095-0.01,0.142-0.016c0.178-0.022,0.357-0.044,0.538-0.055c0.033-0.002,0.067-0.001,0.101-0.003
	c0.196-0.011,0.394-0.017,0.593-0.016c0.001,0,0.001,0,0.002,0c2.955,0.023,6.118,1.199,8.835-0.059l-0.001,0.001
	c0.049-0.023,0.099-0.039,0.148-0.063c0.326,0.022,0.651,0.04,1,0.061c-0.178,0.172-0.358,0.392-0.583,0.547
	c-0.187,0.13-0.426,0.188-0.645,0.269c-0.142,0.054-0.265,0.127-0.193,0.297c0.115,0.27,0.122,0.519-0.096,0.764
	c0.199-0.026,0.384-0.036,0.531-0.116c0.591-0.321,1.179-0.65,1.75-1.004c0.236-0.146,0.492-0.325,0.631-0.554
	c0.387-0.643,0.715-1.319,1.073-1.979c0.047-0.086,0.118-0.183,0.202-0.218c0.177-0.074,0.37-0.111,0.571-0.167
	c0.168,0.3,0.321,0.598,0.317,0.912c0,0.013,0.005,0.024,0.004,0.037c-0.006,0.108-0.032,0.221-0.084,0.336
	c-0.217,0.471-0.531,0.854-1.143,0.752c-0.01-0.002-0.02,0.002-0.029,0.002c-0.213,0.011-0.356,0.08-0.422,0.32
	c-0.029,0.104-0.023,0.185,0.002,0.252c0.034,0.088,0.105,0.154,0.213,0.214c0.129,0.072,0.255,0.147,0.381,0.225
	c0.074,0.044,0.149,0.089,0.224,0.132c0.148,0.082,0.296,0.15,0.445,0.2c0.149,0.049,0.299,0.081,0.451,0.093
	c0.303,0.024,0.61-0.033,0.922-0.192c1.602-0.814,2.965-1.9,3.822-3.512c0.105-0.198,0.208-0.399,0.303-0.604
	c0.095-0.204,0.182-0.411,0.256-0.623c0.147-0.423,0.241-0.861,0.239-1.32c0-0.025-0.005-0.049-0.006-0.074
	c-0.012-0.67-0.134-1.339-0.207-2.014c0.041,0.096,0.091,0.181,0.149,0.252c0.176,0.213,0.431,0.307,0.787,0.22
	c-0.017,0.24-0.031,0.433-0.044,0.626c-0.023,0.36-0.068,0.72-0.063,1.079c0.003,0.22,0.022,0.439,0.041,0.658
	c0.019,0.219,0.038,0.438,0.042,0.657c0.014,1.022-0.123,2.023-0.547,3.035c0.058-0.041,0.1-0.072,0.138-0.099
	c0.037-0.027,0.07-0.051,0.105-0.075c-0.105,0.312-0.219,0.603-0.298,0.901c-0.1,0.384-0.159,0.755-0.172,1.111
	c0,0.006,0.001,0.012,0.001,0.018c-0.019,0.611,0.109,1.183,0.39,1.713c0.209,0.393,0.498,0.765,0.898,1.108
	c0.901,0.775,1.862,1.454,2.885,2.051c0.2,0.117,0.403,0.23,0.635,0.362c-0.153,0.061-0.3,0.111-0.44,0.163
	c-0.14,0.052-0.275,0.105-0.405,0.168c-0.992,0.478-2.016,0.904-2.96,1.465c-0.591,0.353-1.011,0.88-1.293,1.472
	c-0.093,0.197-0.172,0.401-0.236,0.608c-0.128,0.414-0.199,0.839-0.221,1.242c-0.023,0.402,0.003,0.783,0.067,1.107
	c0.003,0.014,0.01,0.023,0.015,0.036c4.219-2.232,7.408-6.133,8.712-10.823c-0.297-0.354-0.603-0.7-0.928-1.031
	c-0.935-0.953-1.838-1.957-2.955-2.697c-0.372-0.247-0.769-0.464-1.198-0.641C29.969,18.106,30.237,18.022,30.521,17.933
	 M8.658,13.896c-0.034-0.293,0.155-0.42,0.38-0.499c0.233-0.081,0.453-0.042,0.607,0.088c0.051,0.043,0.095,0.096,0.13,0.159
	c0.017,0.029,0.022,0.063,0.035,0.094c0.126,0.303,0.083,0.66-0.131,0.854c-0.098,0.088-0.197,0.135-0.301,0.133
	c-0.053,0-0.106-0.013-0.161-0.038c-0.055-0.025-0.112-0.063-0.171-0.115c0.104-0.023,0.169-0.038,0.28-0.063
	c-0.194-0.123-0.295-0.27-0.276-0.465c0.007-0.065,0.027-0.135,0.061-0.212c-0.088,0.013-0.164,0.024-0.237,0.034
	C8.801,13.876,8.732,13.886,8.658,13.896z M8.323,12.489L8.323,12.489c-0.001,0.001-0.002,0.002-0.003,0.003l-0.007-0.001
	C8.317,12.49,8.319,12.489,8.323,12.489 M9.924,15.823c-0.281,0.026-0.524,0.016-0.735-0.017c-0.21-0.034-0.387-0.092-0.537-0.165
	c-0.298-0.146-0.485-0.35-0.6-0.531c-0.145-0.227-0.177-0.419-0.177-0.419l0.013-0.074c0.147,0.23,0.369,0.416,0.646,0.543
	c0.16,0.073,0.334,0.131,0.534,0.154c0.188,0.022,0.373,0.03,0.555,0.021c0.364-0.018,0.713-0.103,1.046-0.284
	c0.167-0.09,0.329-0.205,0.487-0.346c-0.004,0.348,0.105,0.584,0.309,0.736C10.854,15.669,10.346,15.785,9.924,15.823
	 M10.941,12.972c-0.205-0.36-0.516-0.584-0.887-0.731c-0.18-0.072-0.37-0.132-0.577-0.17c0.175,0,0.358-0.021,0.536-0.029
	c0.089-0.004,0.177-0.005,0.263,0.002c0.086,0.006,0.17,0.019,0.25,0.044c0.148,0.047,0.292,0.074,0.431,0.085
	c0.14,0.011,0.277,0.006,0.412-0.012c0.134-0.019,0.266-0.051,0.398-0.094c0.131-0.042,0.262-0.096,0.393-0.157
	c0.078-0.036,0.158-0.068,0.248-0.106C11.915,12.196,11.432,12.581,10.941,12.972 M17.535,9.359c0,0,0.008,0.903-0.762,0.892
	c-0.41-0.051-0.612-0.395-0.574-0.6c-0.155,0.08-0.399,0.231-0.68,0.493c0,0,0.834-1.631,2.447-0.861
	C17.966,9.283,17.734,9.306,17.535,9.359"/>
<path fill="#FFFFFF" d="M7.694,27.514c0.085,0.864,0.283,1.696,0.551,2.509c0.069,0.212,0.143,0.423,0.223,0.632
	c0.069,0.184,0.136,0.368,0.212,0.551c0.081,0.192,0.17,0.384,0.256,0.575c0.225,0.499,0.458,0.995,0.686,1.493
	c0.031-0.01,0.062-0.02,0.093-0.029c0.017-0.055,0.034-0.108,0.052-0.162c0.484-1.462,0.925-2.941,1.475-4.378
	c0.049-0.131,0.081-0.25,0.096-0.361c0.028-0.222-0.013-0.411-0.12-0.582c-0.054-0.086-0.124-0.167-0.211-0.246
	c-0.097-0.089-0.219-0.152-0.348-0.206c-0.129-0.054-0.266-0.099-0.393-0.151c-0.055-0.021-0.117-0.028-0.186-0.034
	c-0.058-0.005-0.121-0.008-0.192-0.017H9.887c0.462-0.248,0.919-0.335,1.379-0.318c0.153,0.005,0.307,0.021,0.461,0.047
	c0.203,0.034,0.291-0.006,0.376-0.192c0.458-1.003,0.931-2,1.398-2.999c0.048-0.102,0.09-0.208,0.172-0.399
	c-0.458-0.026-0.901-0.064-1.338-0.096c-0.047-0.004-0.096-0.005-0.143-0.009c-0.455-0.03-0.903-0.052-1.349-0.04
	c-0.809,0.023-1.106,0.054-1.417,0.321c-0.124,0.105-0.251,0.251-0.414,0.447c-0.081,0.098-0.172,0.209-0.275,0.335
	c-0.599,0.729-0.955,1.52-1.044,2.399C7.664,26.896,7.664,27.201,7.694,27.514"/>
<path fill="#FFFFFF" d="M12.977,26.623c-0.073,0.301,0.074,0.424,0.54,0.619l5.343,1.423c0.955,0.251,1.916,0.471,2.911,0.482
	c0.5,0.007,0.96-0.055,1.369-0.201c0.272-0.099,0.522-0.235,0.745-0.416c0.335-0.272,0.61-0.644,0.813-1.135
	c0.007-0.018,0.016-0.035,0.026-0.053c0.833-1.439,1.014-3.038,1.115-4.654c0.019-0.296,0.057-0.569,0.232-0.828
	c0.109-0.16,0.138-0.375,0.224-0.629c-0.042,0.03-0.069,0.049-0.088,0.062c-0.019,0.012-0.029,0.02-0.036,0.03
	c-0.517,0.729-1.233,1.147-2.089,1.359c-0.123,0.031-0.241,0.117-0.343,0.2c-0.673,0.548-1.316,1.136-2.016,1.648
	c-0.426,0.312-0.868,0.552-1.323,0.732s-0.922,0.301-1.398,0.376s-0.962,0.104-1.453,0.101c-0.009,0-0.019-0.001-0.028-0.001
	c-0.461-0.005-0.928-0.039-1.397-0.091c-0.021-0.003-0.042-0.004-0.063-0.006c-0.014-0.002-0.029-0.004-0.043-0.006
	c-0.197-0.022-0.392-0.054-0.58-0.1c-0.303-0.075-0.586-0.19-0.831-0.376s-0.45-0.442-0.595-0.8
	c-0.311,0.658-0.605,1.273-0.893,1.893C13.05,26.403,13.001,26.522,12.977,26.623"/>
<path fill="#FFFFFF" d="M12.896,28.973c-0.201,0.1-0.387,0.227-0.558,0.383c-0.171,0.154-0.328,0.338-0.47,0.549
	c-0.281,0.417-0.537,0.869-0.711,1.34c-0.152,0.41-0.29,0.823-0.417,1.237c-0.126,0.415-0.241,0.831-0.345,1.249
	c2.271,1.07,4.799,1.688,7.478,1.688c2.095,0,4.096-0.386,5.959-1.059c-0.495-1.726-1.529-3.005-3.173-3.861
	c-1.005-0.521-2.04-0.925-3.104-1.217c-1.065-0.292-2.16-0.474-3.284-0.553C13.756,28.693,13.297,28.776,12.896,28.973"/>
<path fill="none" d="M8.514,32.701c-0.321-0.656-0.612-1.323-0.854-2.009c-0.264-0.749-0.475-1.519-0.619-2.313"/>
<path fill="none" stroke="#FFFFFF" stroke-width="0.6" stroke-miterlimit="8" d="M34.788,22.557c0.24-1.162,0.659-3.479,0.659-4.712
	c0-3.623-1.099-6.989-2.978-9.786c-0.631-0.931-1.348-1.799-2.14-2.591c-1.994-1.995-4.463-3.515-7.221-4.374
	C21.453,0.578,19.695,0.3,17.873,0.3c-5.466,0-10.359,2.502-13.594,6.42C3.924,7.148,3.591,7.596,3.278,8.058
	C1.397,10.855,0.3,14.222,0.3,17.845c0,5.983,4.719,12.18,9.288,15.353"/>
<path fill="none" d="M7.041,28.378c-0.067-0.372-0.111-0.745-0.124-1.12c-0.012-0.374,0.005-0.749,0.06-1.126
	c0.072-0.499,0.241-0.947,0.468-1.368c0.228-0.42,0.514-0.81,0.822-1.188c0.067-0.083,0.136-0.165,0.204-0.249
	c0.005-0.006,0.004-0.019,0.013-0.058c-0.794-0.103-1.368-0.486-1.671-1.222c-0.13-0.314-0.361-0.448-0.633-0.515
	c-0.091-0.022-0.186-0.036-0.284-0.048c-0.165-0.02-0.333-0.012-0.497-0.037c-0.312-0.049-0.526-0.217-0.613-0.477
	c-0.028-0.087-0.043-0.184-0.043-0.29c0.001-0.154-0.009-0.258-0.196-0.287c-0.289-0.048-0.522-0.146-0.706-0.279
	c-0.093-0.067-0.173-0.144-0.242-0.227c-0.087-0.105-0.151-0.226-0.205-0.35c-0.113-0.263-0.16-0.556-0.148-0.846
	c0.001-0.002,0-0.005,0-0.008c0.005-0.107,0.017-0.214,0.036-0.316c0.117-0.651,0.289-1.293,0.426-1.94
	c0.116-0.543,0.215-1.09,0.324-1.634c0.12-0.595,0.505-1.007,0.976-1.341c0.129-0.091,0.23-0.192,0.307-0.309
	c0.077-0.116,0.13-0.248,0.163-0.399c0.116-0.532,0.396-0.831,0.833-0.903c0.146-0.023,0.31-0.022,0.491,0.005
	c0.135,0.021,0.268,0.053,0.404,0.068c0.16,0.019,0.318,0.028,0.473,0.024c0.465-0.012,0.905-0.134,1.31-0.428
	c0.585-0.424,1.184-0.83,1.766-1.258c0.074-0.054,0.117-0.195,0.119-0.297c0.009-0.419-0.019-0.84-0.004-1.26
	c0.009-0.246,0.047-0.469,0.114-0.67c0.201-0.603,0.662-1.002,1.374-1.181c0.501-0.126,0.911-0.393,1.278-0.737
	c0.029-0.027,0.057-0.074,0.075-0.12c0.018-0.046,0.026-0.092,0.012-0.117c-0.139-0.255-0.191-0.497-0.181-0.729
	c0.007-0.155,0.041-0.306,0.094-0.453c0.08-0.222,0.205-0.438,0.347-0.651c0.043-0.065,0.089-0.128,0.157-0.223
	c0.103,0.111,0.212,0.217,0.318,0.325c0.32,0.321,0.624,0.651,0.726,1.156c0.587-0.126,1.187-0.246,1.783-0.383
	c0.441-0.102,0.88-0.169,1.317-0.204c1.313-0.104,2.61,0.083,3.887,0.491c0.359,0.114,0.691,0.28,1.005,0.473
	c0.264,0.162,0.518,0.34,0.749,0.55c0.168,0.153,0.327,0.318,0.476,0.494c0.281,0.331,0.561,0.662,0.839,0.995
	c0.555,0.667,1.1,1.34,1.625,2.027c0.262,0.344,0.519,0.691,0.77,1.043c0.501,0.703,0.976,1.424,1.414,2.171
	c0.439,0.746,0.84,1.518,1.193,2.322c0.4,0.911,0.763,1.839,1.154,2.755c0.062,0.144,0.162,0.289,0.281,0.389
	c1.2,1.006,2.323,2.082,3.339,3.254"/>
<path fill="#FFFFFF" d="M53.103,15.303h-3.574c-0.321-0.987-1.201-1.627-2.481-1.627c-1.948,0-3.122,1.521-3.122,3.761
	c0,2.107,1.174,3.788,3.228,3.788c1.387,0,2.188-0.826,2.534-1.76h3.655c-0.72,2.614-2.668,4.828-6.242,4.828
	c-3.788,0-6.829-2.694-6.829-6.883c0-3.734,2.587-6.775,6.802-6.775C50.729,10.635,52.703,13.168,53.103,15.303"/>
<path fill="#FFFFFF" d="M64.276,14.155c-0.453-0.08-0.987-0.16-1.707-0.16c-2.134,0-3.201,1.334-3.201,3.628v6.216h-3.602V11.062
	h3.521v1.974h0.081c0.693-1.254,2.027-2.348,3.734-2.348c0.507,0,0.827,0.027,1.174,0.107V14.155z"/>
<path fill="#FFFFFF" d="M78.12,23.839h-3.575v-1.602h-0.08c-1.04,1.521-2.347,2.028-3.735,2.028c-2.08,0-4.641-1.281-4.641-5.629
	v-7.576h3.601v7.123c0,1.867,0.881,2.881,2.267,2.881c1.574,0,2.561-1.094,2.561-3.228v-6.776h3.602V23.839z"/>
<path fill="#FFFFFF" d="M81.423,11.062h3.548v1.6h0.106c0.881-1.413,2.322-2,3.789-2c2.881,0,4.882,1.92,4.882,5.842v7.336h-3.602
	v-7.096c0-1.921-0.907-2.908-2.401-2.908c-1.574,0-2.721,1.121-2.721,3.255v6.749h-3.601V11.062z"/>
<path fill="#FFFFFF" d="M108.897,15.303h-3.575c-0.32-0.987-1.2-1.627-2.481-1.627c-1.946,0-3.121,1.521-3.121,3.761
	c0,2.107,1.175,3.788,3.229,3.788c1.387,0,2.188-0.826,2.534-1.76h3.653c-0.72,2.614-2.667,4.828-6.241,4.828
	c-3.788,0-6.83-2.694-6.83-6.883c0-3.734,2.588-6.775,6.803-6.775C106.523,10.635,108.497,13.168,108.897,15.303"/>
<path fill="#FFFFFF" d="M111.56,4.632h3.603v8.03h0.106c0.88-1.414,2.32-2.001,3.761-2.001c2.854,0,4.855,1.894,4.855,5.842v7.336
	h-3.602v-7.123c0-1.893-0.906-2.88-2.401-2.88c-1.573,0-2.72,1.093-2.72,3.254v6.749h-3.603V4.632z"/>
<path fill="#FFFFFF" d="M130.737,30.108h-3.415l2.348-6.375l-4.642-12.672h3.735l1.841,5.549c0.293,0.933,0.666,2.107,0.854,3.147
	h0.106c0.241-1.227,0.48-2.027,0.828-3.147l1.787-5.549h3.547L130.737,30.108z"/>
<path fill="#FFFFFF" d="M154.703,23.839h-2.108v-1.708h-0.053c-0.934,1.121-2.508,2.161-4.775,2.161
	c-3.468,0-6.456-2.694-6.456-6.856c0-3.868,2.747-6.802,6.456-6.802c2.401,0,3.682,0.96,4.775,2.241h0.053V4.632h2.108V23.839z
	 M148.139,22.425c2.481,0,4.643-2.001,4.643-4.908c0-3.041-2.027-5.042-4.588-5.042c-3.122,0-4.695,2.481-4.695,4.961
	C143.499,19.891,145.072,22.425,148.139,22.425"/>
<path fill="#FFFFFF" d="M170.89,23.839h-2.108v-1.708h-0.052c-0.935,1.121-2.509,2.161-4.669,2.161
	c-3.467,0-6.563-2.694-6.563-6.856c0-3.947,2.882-6.802,6.697-6.802c2.32,0,3.681,1.227,4.561,2.268h0.026v-1.841h2.108V23.839z
	 M164.355,22.425c2.4,0,4.615-2.028,4.615-4.908c0-3.041-2.055-5.042-4.562-5.042c-3.201,0-4.722,2.507-4.722,4.961
	C159.686,19.891,161.207,22.425,164.355,22.425"/>
<path fill="#FFFFFF" d="M173.18,11.062h1.682V6.979h2.107v4.082h3.414v1.761h-3.414v6.75c0,2.079,0.64,2.641,2,2.641
	c0.533,0,1.068-0.08,1.547-0.214v1.733c-0.56,0.188-1.227,0.268-1.974,0.268c-3.094,0-3.681-2.081-3.681-4.508v-6.669h-1.682V11.062
	z"/>
<path fill="#FFFFFF" d="M195.347,23.839h-2.108v-1.708h-0.052c-0.935,1.121-2.509,2.161-4.669,2.161
	c-3.468,0-6.563-2.694-6.563-6.856c0-3.947,2.882-6.802,6.697-6.802c2.32,0,3.681,1.227,4.561,2.268h0.026v-1.841h2.108V23.839z
	 M188.812,22.425c2.4,0,4.614-2.028,4.614-4.908c0-3.041-2.054-5.042-4.562-5.042c-3.201,0-4.722,2.507-4.722,4.961
	C184.143,19.891,185.664,22.425,188.812,22.425"/>
</svg>
