<svg id="Layer_1" data-name="Layer 1" xmlns="http://www.w3.org/2000/svg" xmlns:xlink="http://www.w3.org/1999/xlink" viewBox="0 0 398.96 359.62"><defs><style>.cls-1{fill:#060606;}.cls-2{fill:#f5f5f5;}.cls-3{fill:url(#linear-gradient);}</style><linearGradient id="linear-gradient" x1="44.13" y1="156.28" x2="347.32" y2="156.28" gradientUnits="userSpaceOnUse"><stop offset="0" stop-color="#2096da"/><stop offset="1" stop-color="#0067aa"/></linearGradient></defs><path class="cls-1" d="M204.19,340.07c-75.52-.51-141.81-49.28-162.51-119.47C16.18,134.11,66.16,46.77,154.17,25.25c66.42-16.24,123.52,2,168.69,52.33,52.27,58.25,54.72,140,10.22,198.92-27,35.73-63.22,56.22-107.66,62.06-5.45.72-10.95,1.05-16.43,1.49C207.4,340.18,205.79,340.07,204.19,340.07ZM192,27.54c-4.55,0-9.12-.2-13.66,0-1.53.06-4.4.48-3.19,2.86,2,3.86,4.24,8,7.46,10.65,2.41,2,6.28,0,9.42-1l22.3-2.45H246c-10.43-5.4-21.43-7.24-32.65-8.09C206.11,30.1,199.28,26.57,192,27.54Zm-74.64,21c-18,9.13-32.24,22.94-44.16,38.7-20.18,26.65-29.74,57.32-29.06,90.72.65,32.3,10.54,61.75,30.09,87.71,5.27,7,10.67,13.92,17.72,19.55,1.23-1.83.83-3.49.7-5-.78-9,2.26-16.67,7.62-23.63,1.94-2.52,3.93-5,6-7.41,2.52-2.91,2.75-4.3-1.72-5.74-18-5.78-32.41-16.32-41.38-33.4a3.26,3.26,0,0,0-1.68-1.77c-8.18-3.63-10.21-10.38-9.4-18.61,1.55-15.88,6.41-31,10.46-46.32a14.18,14.18,0,0,1,5.42-7.7c4.48-3.28,7.14-7.62,8.93-12.79,2.44-7.08,7.39-10.36,14.94-10.42,3.73,0,7.46-.08,11.19,0,5.87.18,11.2-1,15.36-5.51,3.65-.44,5.21-3.93,8.11-5.54C134.49,97,137.61,90.09,137.83,81c.21-8.44,3.55-15.67,12-19.67a57,57,0,0,0,12.58-8.72c2.86-2.46,4.43-5.32,4-9.28A19.54,19.54,0,0,1,169,30C149.88,32.91,132.88,38.53,117.39,48.5Zm68,98.76c8.84.13,15.29,4,21.18,9.06,10.8,9.25,13.64,34.94-2.37,43.6C190,207.59,175.28,212.51,158.91,211q-11.4-1-22.8-2.15c-18.69-1.78-37.29-5.28-56.23-2.42-4.32.65-5.51,1.67-2.58,5.26C89,226,103.81,234.1,122.56,233.09c18.6-1,37.18-3.75,55.75-.34,21,3.86,37.36-2.61,48.77-20.92,1.43-2.29,3.3-4.7,6.4-2.79s2,4.31.39,6.83c-9.77,15.36-21.68,27.25-41.64,26.83-3.18-.06-6.36.6-9.55.91-3,.28-5.6,1.29-7.29,3.83-3.73,5.6-7.9,11-10.38,17.3-6.53,16.67-12.92,33.38-19.44,50.05-1.42,3.63-.8,5.67,3.24,7.08a164.74,164.74,0,0,0,53.76,9.43q52.44.36,94.29-31.11c1.66-1.24,2.6-2.45,1.85-4.4-4.63-12.1-1.38-23.7,1.89-35.41,2.68-9.6,4.41-19.33,2.72-29.43s-1.63-10.14-9.75-4.73c-7,4.65-14.86,7.48-22.66,10.39-2.89,1.08-7.15,1.62-8.26-1.11-1.52-3.73,3.22-3.73,5.48-4.83,6.36-3.11,13.65-4.62,19.18-9.07,14.56-11.73,21.45-27.81,24-45.87,1.18-8.25,1.5-16.61,2.25-24.92.14-1.59.3-3.26,2.59-3.27s2.22,1.86,2.37,3.36c.13,1.23-.07,2.49,0,3.73.58,19.5-3.62,38.47-6.63,57.55-3.15,20-1,39.61,3.33,59.15.55,2.45,1.61,5.35,3.64,6,2.79.88,3.81-2.53,5.25-4.39,13.93-18,22.73-38.27,27.33-60.53,3.57-17.22,3.11-33.56-5.83-49.49-6.31-11.25-11.93-22.91-18.07-34.29C314.79,105,296.75,85.34,279.87,64.85c-5.15-6.26-10.8-12.29-18.22-16.13-1-.54-2.14-1.75-3.39-1.09-1.72.92-.69,2.63-.4,3.81,2.3,9.32-6,19.86-15.06,23-2,.7-4.54,1.72-5.75-.61s1.54-3.08,2.94-4.28c6.07-5.21,9.44-13.86,7.91-20.56-4.46,2.1-8.22,4.72-10.43,9.34-1,2-2.38,5.65-4.82,4.31-3-1.66-1.32-5.07.25-7.54a18.92,18.92,0,0,1,5.5-5.7c2.3-1.54,5.3-1.78,7.59-4.13a15.09,15.09,0,0,0-8.29-1.88c-16.69.21-33.42-.12-49.9,3.2-5.22,1.06-10.53,2.15-14.63,5.89a93.19,93.19,0,0,1-19.56,13.69c-2.89,1.51-5.9,3.26-4.81,7.24,1,3.76,3.95,5.55,7.73,6.06,1.49.2,3.53-.3,4,1.79.4,1.92-1.51,2.66-2.71,3.6q-15.91,12.47-31.29,25.61a34.31,34.31,0,0,1-24,8.44c-3.54-.13-7.1,0-10.66,0-8.34.05-10.17,2.55-7.93,10.58.84,3,1.1,6.07-1.57,8.39s-5.45,2.11-8.18-.09c-1.41-1.14-2.46-.62-3.56.71-2.48,3-2,5.19,1.87,6.21,6.87,1.8,11.93-1.76,16.65-6.1,1-.94,2.1-2.46,3.59-1.39s.55,2.65-.09,3.87c-3,5.76-14.54,11.9-21,11.07-1.74-.22-2.64,0-3.08,1.77-2.74,11.18-6.41,22.17-7.27,33.73C60.32,199.43,63,201.72,74.67,199c19.14-4.44,38.06-5.69,57.27.3,10.37,3.23,21.42,3.5,32.26,2.35,12.73-1.34,25.32-3.56,36-11.64a16.89,16.89,0,0,0,7.07-12.5c.71-7.52-2.74-13-7.83-17.78C195,155.63,190.44,151.75,185.39,147.26Zm-38.78,91.83,0,.17c-1.77-.12-3.54-.33-5.31-.34-8.16-.07-16.58-.7-22.81,6.07-7.66,8.32-13.72,17.7-15.86,29-3.36,17.77-.9,22.71,14.71,31.93l5,3c12.58,7.45,12.58,7.45,17.21-6.22,2.14-6.32.6-10.89-5-14.58-1.32-.86-2.85-1.4-4.24-2.16s-2.54-1.7-2.25-3.29a3.49,3.49,0,0,1,2.79-2.91c4.88-.65,9.84-2.25,14.69-.5,2.5.89,3.53.15,4.48-1.91q7.75-16.87,15.6-33.71c1.08-2.32.49-3.18-2-3.32C157.93,239.94,152.27,239.48,146.61,239.09ZM280.51,55a382.76,382.76,0,0,1,66.76,92.5C349.1,122.68,305,61.64,280.51,55Z"/><path class="cls-2" d="M185.39,147.26c5.05,4.49,9.63,8.37,14,12.47,5.09,4.78,8.54,10.26,7.83,17.78a16.89,16.89,0,0,1-7.07,12.5c-10.63,8.08-23.22,10.3-36,11.64-10.84,1.15-21.89.88-32.26-2.35-19.21-6-38.13-4.74-57.27-.3-11.69,2.72-14.35.43-13.48-11.37.86-11.56,4.53-22.55,7.27-33.73.44-1.82,1.34-2,3.08-1.77,6.49.83,18-5.31,21-11.07.64-1.22,1.52-2.85.09-3.87s-2.57.45-3.59,1.39c-4.72,4.34-9.78,7.9-16.65,6.1-3.87-1-4.35-3.2-1.87-6.21,1.1-1.33,2.15-1.85,3.56-.71,2.73,2.2,5.5,2.43,8.18.09s2.41-5.39,1.57-8.39c-2.24-8-.41-10.53,7.93-10.58,3.56,0,7.12-.11,10.66,0a34.31,34.31,0,0,0,24-8.44q15.41-13.11,31.29-25.61c1.2-.94,3.11-1.68,2.71-3.6-.44-2.09-2.48-1.59-4-1.79-3.78-.51-6.71-2.3-7.73-6.06-1.09-4,1.92-5.73,4.81-7.24a93.19,93.19,0,0,0,19.56-13.69c4.1-3.74,9.41-4.83,14.63-5.89,16.48-3.32,33.21-3,49.9-3.2A15.09,15.09,0,0,1,246,45.26c-2.29,2.35-5.29,2.59-7.59,4.13a18.92,18.92,0,0,0-5.5,5.7c-1.57,2.47-3.23,5.88-.25,7.54,2.44,1.34,3.84-2.27,4.82-4.31,2.21-4.62,6-7.24,10.43-9.34,1.53,6.7-1.84,15.35-7.91,20.56-1.4,1.2-4.11,2-2.94,4.28s3.71,1.31,5.75.61c9-3.13,17.36-13.67,15.06-23-.29-1.18-1.32-2.89.4-3.81,1.25-.66,2.34.55,3.39,1.09,7.42,3.84,13.07,9.87,18.22,16.13,16.88,20.49,34.92,40.15,47.66,63.77,6.14,11.38,11.76,23,18.07,34.29,8.94,15.93,9.4,32.27,5.83,49.49-4.6,22.26-13.4,42.54-27.33,60.53-1.44,1.86-2.46,5.27-5.25,4.39-2-.64-3.09-3.54-3.64-6-4.36-19.54-6.48-39.14-3.33-59.15,3-19.08,7.21-38.05,6.63-57.55,0-1.24.17-2.5,0-3.73-.15-1.5.07-3.36-2.37-3.36s-2.45,1.68-2.59,3.27c-.75,8.31-1.07,16.67-2.25,24.92-2.58,18.06-9.47,34.14-24,45.87-5.53,4.45-12.82,6-19.18,9.07-2.26,1.1-7,1.1-5.48,4.83,1.11,2.73,5.37,2.19,8.26,1.11,7.8-2.91,15.66-5.74,22.66-10.39,8.12-5.41,8.07-5.34,9.75,4.73s0,19.83-2.72,29.43c-3.27,11.71-6.52,23.31-1.89,35.41.75,1.95-.19,3.16-1.85,4.4q-41.94,31.38-94.29,31.11a164.74,164.74,0,0,1-53.76-9.43c-4-1.41-4.66-3.45-3.24-7.08,6.52-16.67,12.91-33.38,19.44-50.05,2.48-6.33,6.65-11.7,10.38-17.3,1.69-2.54,4.34-3.55,7.29-3.83,3.19-.31,6.37-1,9.55-.91,20,.42,31.87-11.47,41.64-26.83,1.6-2.52,2.64-5-.39-6.83s-5,.5-6.4,2.79c-11.41,18.31-27.77,24.78-48.77,20.92-18.57-3.41-37.15-.67-55.75.34-18.75,1-33.58-7.07-45.26-21.4-2.93-3.59-1.74-4.61,2.58-5.26,18.94-2.86,37.54.64,56.23,2.42q11.4,1.1,22.8,2.15c16.37,1.51,31.11-3.41,45.29-11.08,16-8.66,13.17-34.35,2.37-43.6C200.68,151.28,194.23,147.39,185.39,147.26ZM208,81.92c-7.38-.09-17,4.62-21.43,10.31-1.12,1.43-1.51,2.87-.65,4.3,1.05,1.73,2.56.77,3.65-.06,1.92-1.46,2.37.4,3.3,1.24,6.13,5.54,14.17,4,17.57-3.28,1.21-2.62.5-6.27,4.59-7.41,1.05-.29.67-2.43-1-3.31A15.45,15.45,0,0,0,208,81.92Zm-81.2,79.74c4.7-.85,8.8-2.23,11.44-6.26,1.18-1.82,1.29-3.58-.22-5.32s-2.82-1.48-4.68-.6c-2.52,1.22-5.19,2.54-7.91,2.87-6.78.83-13.79,1.93-18.92-4.58-1.07-1.36-2.05-4.06-4.27-2.68s.08,3.5.42,5.22c.22,1.08,1.39,2,2.17,2.93C110.62,160.33,119.36,159.52,126.8,161.66Zm-8.39-30.54c-3.34.46-7,.65-7.48,5.07-.38,3.38,5.41,11.23,8.16,11.44,2.92.23,6.27-4,6.22-8C125.26,134.82,122.32,131.18,118.41,131.12Z"/><path class="cls-2" d="M146.61,239.09c5.66.39,11.32.85,17,1.16,2.49.14,3.08,1,2,3.32q-7.87,16.81-15.6,33.71c-1,2.06-2,2.8-4.48,1.91-4.85-1.75-9.81-.15-14.69.5A3.49,3.49,0,0,0,128,282.6c-.29,1.59,1,2.58,2.25,3.29s2.92,1.3,4.24,2.16c5.65,3.69,7.19,8.26,5,14.58-4.63,13.67-4.63,13.67-17.21,6.22l-5-3c-15.61-9.22-18.07-14.16-14.71-31.93,2.14-11.27,8.2-20.65,15.86-29,6.23-6.77,14.65-6.14,22.81-6.07,1.77,0,3.54.22,5.31.34Z"/><path class="cls-3" d="M169,30A19.54,19.54,0,0,0,166.4,43.3c.48,4-1.09,6.82-4,9.28a57,57,0,0,1-12.58,8.72c-8.49,4-11.83,11.23-12,19.67-.22,9.12-3.34,16-11.28,20.44-2.9,1.61-4.46,5.1-8.11,5.54-4.16,4.52-9.49,5.69-15.36,5.51-3.73-.11-7.46-.06-11.19,0-7.55.06-12.5,3.34-14.94,10.42C75.16,128,72.5,132.36,68,135.64a14.14,14.14,0,0,0-5.42,7.7c-4.05,15.3-8.91,30.44-10.46,46.32-.81,8.23,1.22,15,9.4,18.61A3.26,3.26,0,0,1,63.22,210c9,17.08,23.37,27.62,41.38,33.4,4.47,1.44,4.24,2.83,1.72,5.74-2.09,2.4-4.08,4.89-6,7.41-5.36,7-8.4,14.66-7.62,23.63.13,1.47.53,3.12-.7,5-7-5.63-12.45-12.55-17.72-19.55-19.55-26-29.44-55.41-30.09-87.71-.68-33.4,8.88-64.07,29.06-90.72,11.92-15.76,26.14-29.57,44.16-38.7C132.88,38.53,149.88,32.91,169,30ZM280.51,55a382.76,382.76,0,0,1,66.76,92.5C349.1,122.68,305,61.64,280.51,55ZM192,27.54c-4.56,0-9.13-.2-13.67,0-1.53.06-4.4.48-3.19,2.86,2,3.86,4.24,8,7.46,10.65,2.41,2,6.28,0,9.42-1l22.3-2.45H246c-10.43-5.4-21.43-7.24-32.65-8.09C206.11,30.1,199.28,26.57,192,27.54Z"/><path class="cls-1" d="M208,81.92a15.45,15.45,0,0,1,6.05,1.79c1.65.88,2,3,1,3.31-4.09,1.14-3.38,4.79-4.59,7.41-3.4,7.31-11.44,8.82-17.57,3.28-.93-.84-1.38-2.7-3.3-1.24-1.09.83-2.6,1.79-3.65.06-.86-1.43-.47-2.87.65-4.3C191,86.54,200.62,81.83,208,81.92Z"/><path class="cls-1" d="M126.8,161.66c-7.44-2.14-16.18-1.33-22-8.42-.78-1-2-1.85-2.17-2.93-.34-1.72-2.67-3.83-.42-5.22s3.2,1.32,4.27,2.68c5.13,6.51,12.14,5.41,18.92,4.58,2.72-.33,5.39-1.65,7.91-2.87,1.86-.88,3.27-1,4.68.6s1.4,3.5.22,5.32C135.6,159.43,131.5,160.81,126.8,161.66Z"/><path class="cls-1" d="M118.41,131.12c3.91.06,6.85,3.7,6.9,8.55,0,3.91-3.3,8.19-6.22,8-2.75-.21-8.54-8.06-8.16-11.44C111.43,131.77,115.07,131.58,118.41,131.12Z"/></svg>