<?xml version="1.0" encoding="utf-8"?>
<!-- Generator: Adobe Illustrator 23.0.4, SVG Export Plug-In . SVG Version: 6.00 Build 0)  -->
<svg version="1.1" id="Layer_1" xmlns="http://www.w3.org/2000/svg" xmlns:xlink="http://www.w3.org/1999/xlink" x="0px" y="0px"
	 viewBox="0 0 1056 627" style="enable-background:new 0 0 1056 627;" xml:space="preserve">
<style type="text/css">
	.st0{fill:#F1F1F2;stroke:#FFFFFF;stroke-width:2;stroke-miterlimit:10;}
	.st1{fill:#F1F1F2;}
	.st2{fill:#0072B7;}
	.st3{fill:url(#SVGID_1_);}
	.st4{fill:url(#SVGID_2_);}
	.st5{fill:url(#SVGID_3_);}
	.st6{fill:url(#SVGID_4_);}
	.st7{fill:none;stroke:#404041;stroke-width:0.75;stroke-miterlimit:10;stroke-dasharray:2,2;}
	.st8{fill:#404041;}
	.st9{font-family:'Fort-Bold';}
	.st10{font-size:13px;}
	.st11{fill:none;}
	.st12{fill:#B3B3B3;}
	.st13{font-family:'Fort-Medium';}
	.st14{font-size:11px;}
	.st15{fill:#FFFFFF;}
	.st16{font-size:9px;}
	.st17{fill:#666666;}
	.st18{fill:none;stroke:#0072B7;stroke-miterlimit:10;}
	.st19{fill:#F7FBFC;}
	.st20{fill:url(#SVGID_5_);}
	.st21{fill:url(#SVGID_6_);}
	.st22{fill:url(#SVGID_7_);}
	.st23{fill:url(#SVGID_8_);}
	.st24{fill:url(#SVGID_9_);}
	.st25{fill:url(#SVGID_10_);}
	.st26{fill:url(#SVGID_11_);}
	.st27{fill:url(#SVGID_12_);}
	.st28{fill:url(#_x37_vKM8z.tif_2_);}
	.st29{fill:none;stroke:#FFFFFF;stroke-width:0.3;stroke-miterlimit:10;}
	.st30{fill:url(#VDESrZ_2_);}
	.st31{fill:url(#_x37_vKM8z.tif_4_);}
	.st32{fill:url(#SVGID_13_);}
	.st33{fill:#60AADD;}
	.st34{fill:url(#SVGID_14_);}
	.st35{fill:#0068AF;}
	.st36{fill:url(#SVGID_15_);}
	.st37{fill:#FDCD08;}
	.st38{fill:url(#SVGID_16_);}
	.st39{fill:url(#SVGID_17_);}
	.st40{fill:url(#SVGID_18_);}
	.st41{fill:none;stroke:#FDCD08;stroke-width:0.75;stroke-miterlimit:10;stroke-dasharray:2,2;}
	.st42{fill:none;stroke:#0072B7;stroke-width:0.75;stroke-miterlimit:10;stroke-dasharray:2,2;}
	.st43{fill:#FDCD08;stroke:#FDCD08;stroke-miterlimit:10;}
	.st44{fill:#0072B7;stroke:#0072B7;stroke-miterlimit:10;}
	.st45{fill:url(#SVGID_19_);}
	.st46{fill:url(#SVGID_20_);}
	.st47{fill:url(#SVGID_21_);}
	.st48{fill:url(#SVGID_22_);}
	.st49{font-family:'Fort-Book';}
	.st50{font-size:7px;}
	.st51{fill:url(#SVGID_23_);}
	.st52{fill:url(#SVGID_24_);}
	.st53{fill:none;stroke:#61ABDE;stroke-width:0.75;stroke-miterlimit:10;stroke-dasharray:2,2;}
	.st54{fill:#61ABDE;stroke:#61ABDE;stroke-miterlimit:10;}
	.st55{fill:none;stroke:#231F20;stroke-width:0.75;stroke-miterlimit:10;stroke-dasharray:2,2;}
	.st56{fill:#231F20;stroke:#231F20;stroke-miterlimit:10;}
	.st57{fill:#61ABDE;}
	.st58{fill:none;stroke:#404041;stroke-width:0.75;stroke-miterlimit:10;}
	.st59{fill:url(#hR3svE.tif_1_);}
	.st60{fill:url(#SVGID_25_);}
	.st61{fill:#FEFEFE;}
	.st62{fill:url(#_x35_ggsrQ.tif_1_);}
	.st63{fill:url(#SVGID_26_);}
	.st64{fill:url(#SVGID_27_);}
	.st65{fill:url(#SVGID_28_);}
	.st66{font-family:'Fort-Extrabold';}
	.st67{font-size:18.7139px;}
	.st68{fill:url(#SVGID_29_);}
	.st69{fill:url(#SVGID_30_);}
	.st70{fill:url(#SVGID_31_);}
</style>
<path class="st1" d="M279.15,244.44c0-7.42-4-13.44-8.93-13.44H51.61c-4.93,0-8.93,6.02-8.93,13.44v224.13
	c0,7.42,4,13.44,8.93,13.44h162.47h10.57h46.11c4.93,0,8.93-6.02,8.93-13.44v-61.1C279.68,400.04,279.15,244.44,279.15,244.44z"/>
<path class="st1" d="M388.04,97.78c0-1.54-2.83-2.78-6.33-2.78H226.74c-3.49,0-6.33,1.25-6.33,2.78v46.43
	c0,1.54,2.83,2.78,6.33,2.78h115.17h7.49h32.69c3.49,0,6.33-1.25,6.33-2.78v-12.66C388.42,130.02,388.04,97.78,388.04,97.78z"/>
<text transform="matrix(1 0 0 1 204.7211 62.4294)" class="st8 st9 st10">Incoming Application Requests</text>
<text transform="matrix(1 0 0 1 508.2523 61.4294)" class="st8 st9 st10">Metrics &amp; Alerting Dashboard</text>
<text transform="matrix(1 0 0 1 737.3544 61.4294)" class="st8 st9 st10">PostgreSQL GUI</text>
<rect x="70.78" y="458.08" class="st11" width="180.8" height="19.92"/>
<text transform="matrix(1 0 0 1 93.1883 467.4294)" class="st12 st13 st14">PostgreSQL Primary Pod</text>
<path class="st2" d="M244.38,446.35H78.62c-2,0-3.62-1.62-3.62-3.62v-53.84c0-2,1.62-3.62,3.62-3.62h165.76c2,0,3.62,1.62,3.62,3.62
	v53.84C248,444.73,246.38,446.35,244.38,446.35z"/>
<g>
	<text transform="matrix(1 0 0 1 128.6904 419.2568)" class="st15 st9 st16">crunchy - postgres</text>
</g>
<path class="st1" d="M577.15,244.44c0-7.42-4-13.44-8.93-13.44H349.61c-4.93,0-8.93,6.02-8.93,13.44v224.13
	c0,7.42,4,13.44,8.93,13.44h162.47h10.57h46.11c4.93,0,8.93-6.02,8.93-13.44v-61.1C577.68,400.04,577.15,244.44,577.15,244.44z"/>
<path class="st1" d="M720.49,125.19c0-2.87-3.83-5.19-8.55-5.19H502.55c-4.72,0-8.55,2.32-8.55,5.19v86.62
	c0,2.87,3.83,5.19,8.55,5.19h155.61h10.12h44.17c4.72,0,8.55-2.32,8.55-5.19V188.2C721,185.33,720.49,125.19,720.49,125.19z"/>
<rect x="368.78" y="458.08" class="st11" width="180.8" height="19.92"/>
<text transform="matrix(1 0 0 1 392.5359 467.4294)" class="st12 st13 st14">PostgreSQL Replica Pod</text>
<path class="st2" d="M542.38,446.35H376.62c-2,0-3.62-1.62-3.62-3.62v-53.84c0-2,1.62-3.62,3.62-3.62h165.76
	c2,0,3.62,1.62,3.62,3.62v53.84C546,444.73,544.38,446.35,542.38,446.35z"/>
<g>
	<text transform="matrix(1 0 0 1 432.6904 418.2568)" class="st15 st9 st16">crunchy - postgres</text>
</g>
<path class="st2" d="M213.22,362H109.46c-2,0-3.62-1.62-3.62-3.62v-33.76c0-2,1.62-3.62,3.62-3.62h103.76c2,0,3.62,1.62,3.62,3.62
	v33.76C216.84,360.38,215.22,362,213.22,362z"/>
<g>
	<text transform="matrix(1 0 0 1 117.8634 345.2568)" class="st15 st9 st16">crunchy - pgbadger</text>
</g>
<path class="st2" d="M182.38,300H78.62c-2,0-3.62-1.62-3.62-3.62v-33.76c0-2,1.62-3.62,3.62-3.62h103.76c2,0,3.62,1.62,3.62,3.62
	v33.76C186,298.38,184.38,300,182.38,300z"/>
<g>
	<text transform="matrix(1 0 0 1 92.5779 283.2568)" class="st15 st9 st16">crunchy - collect</text>
</g>
<path class="st2" d="M656.13,204H551.37c-2,0-3.62-1.62-3.62-3.62v-23.76c0-2,1.62-3.62,3.62-3.62h104.76c2,0,3.62,1.62,3.62,3.62
	v23.76C659.75,202.38,658.13,204,656.13,204z"/>
<g>
	<text transform="matrix(1 0 0 1 554.7318 191.2568)" class="st15 st9 st16">crunchy - prometheus</text>
</g>
<path class="st2" d="M609.13,165h-89.76c-2,0-3.62-1.62-3.62-3.62v-23.76c0-2,1.62-3.62,3.62-3.62h89.76c2,0,3.62,1.62,3.62,3.62
	v23.76C612.75,163.38,611.13,165,609.13,165z"/>
<g>
	<text transform="matrix(1 0 0 1 524.8037 152.2568)" class="st15 st9 st16">crunchy - grafana</text>
</g>
<path class="st2" d="M696.88,165h-71.76c-2,0-3.62-1.62-3.62-3.62v-23.76c0-2,1.62-3.62,3.62-3.62h71.76c2,0,3.62,1.62,3.62,3.62
	v23.76C700.5,163.38,698.88,165,696.88,165z"/>
<g>
	<text transform="matrix(1 0 0 1 631.0664 152.2568)" class="st15 st9 st16">alertmanager</text>
</g>
<path class="st2" d="M373.21,137h-137.6c-2,0-3.62-1.62-3.62-3.62v-24.76c0-2,1.62-3.62,3.62-3.62h137.6c2,0,3.62,1.62,3.62,3.62
	v24.76C376.83,135.38,375.21,137,373.21,137z"/>
<g>
	<text transform="matrix(1 0 0 1 258.2831 124.2568)" class="st15 st9 st16">crunchy - pgbouncer</text>
</g>
<path class="st1" d="M863.52,271.78c0-1.54-2.47-2.78-5.53-2.78H722.65c-3.05,0-5.53,1.25-5.53,2.78v46.43
	c0,1.54,2.47,2.78,5.53,2.78h100.58h6.54h28.55c3.05,0,5.53-1.25,5.53-2.78v-12.66C863.85,304.02,863.52,271.78,863.52,271.78z"/>
<path class="st2" d="M850.12,311H730.86c-2,0-3.62-1.62-3.62-3.62v-24.76c0-2,1.62-3.62,3.62-3.62h119.25c2,0,3.62,1.62,3.62,3.62
	v24.76C853.73,309.38,852.11,311,850.12,311z"/>
<g>
	<text transform="matrix(1 0 0 1 744.0996 298.2568)" class="st15 st9 st16">crunchy - pgAdmin 4</text>
</g>
<path class="st1" d="M860.52,365.73c0-3.16-2.47-5.73-5.53-5.73H719.65c-3.05,0-5.53,2.56-5.53,5.73v95.55
	c0,3.16,2.47,5.73,5.53,5.73h100.58h6.54h28.55c3.05,0,5.53-2.56,5.53-5.73v-26.05C860.85,432.06,860.52,365.73,860.52,365.73z"/>
<path class="st2" d="M847.12,433H727.86c-2,0-3.62-1.62-3.62-3.62v-51.76c0-2,1.62-3.62,3.62-3.62h119.25c2,0,3.62,1.62,3.62,3.62
	v51.76C850.73,431.38,849.11,433,847.12,433z"/>
<g>
	<text transform="matrix(1 0 0 1 747.166 407.2568)" class="st15 st9 st16">crunchy - backrest</text>
</g>
<path class="st2" d="M539.38,300H435.62c-2,0-3.62-1.62-3.62-3.62v-33.76c0-2,1.62-3.62,3.62-3.62h103.76c2,0,3.62,1.62,3.62,3.62
	v33.76C543,298.38,541.38,300,539.38,300z"/>
<g>
	<text transform="matrix(1 0 0 1 449.5779 283.2568)" class="st15 st9 st16">crunchy - collect</text>
</g>
<path class="st17" d="M244.38,214H140.62c-2,0-3.62-1.62-3.62-3.62v-33.76c0-2,1.62-3.62,3.62-3.62h103.76c2,0,3.62,1.62,3.62,3.62
	v33.76C248,212.38,246.38,214,244.38,214z"/>
<g>
	<text transform="matrix(1 0 0 1 150.4826 197.2568)" class="st15 st9 st16">primart DB service</text>
</g>
<path class="st17" d="M598.88,106h-96.76c-2,0-3.62-1.62-3.62-3.62V80.62c0-2,1.62-3.62,3.62-3.62h96.76c2,0,3.62,1.62,3.62,3.62
	v21.76C602.5,104.38,600.88,106,598.88,106z"/>
<path class="st17" d="M709.63,106h-96.76c-2,0-3.62-1.62-3.62-3.62V80.62c0-2,1.62-3.62,3.62-3.62h96.76c2,0,3.62,1.62,3.62,3.62
	v21.76C713.25,104.38,711.63,106,709.63,106z"/>
<g>
	<text transform="matrix(1 0 0 1 516.6108 94.2568)" class="st15 st9 st16">grafana service</text>
</g>
<g>
	<text transform="matrix(1 0 0 1 614.6536 94.2568)" class="st15 st9 st16">alertmanager service</text>
</g>
<path class="st17" d="M838.87,106h-96.76c-2,0-3.62-1.62-3.62-3.62V80.62c0-2,1.62-3.62,3.62-3.62h96.76c2,0,3.62,1.62,3.62,3.62
	v21.76C842.49,104.38,840.87,106,838.87,106z"/>
<g>
	<text transform="matrix(1 0 0 1 750.7148 94.2568)" class="st15 st9 st16">pgAdmin4 service</text>
</g>
<text transform="matrix(1 0 0 1 856.2987 61.4294)" class="st8 st9 st10">Log Analytics Dashboard</text>
<path class="st17" d="M984.38,106h-96.76c-2,0-3.62-1.62-3.62-3.62V80.62c0-2,1.62-3.62,3.62-3.62h96.76c2,0,3.62,1.62,3.62,3.62
	v21.76C988,104.38,986.38,106,984.38,106z"/>
<g>
	<text transform="matrix(1 0 0 1 898.0791 94.2568)" class="st15 st9 st16">pgbadger service</text>
</g>
<g id="qzZde4.tif_6_">
	<g>
		<linearGradient id="SVGID_1_" gradientUnits="userSpaceOnUse" x1="295.3153" y1="507.2729" x2="329.572" y2="566.6072">
			<stop  offset="0" style="stop-color:#279BD6"/>
			<stop  offset="1" style="stop-color:#0A69B1"/>
		</linearGradient>
		<path class="st3" d="M314.71,505.94c0.25,0.03,0.51,0.05,0.76,0.08c7.68,0.32,15.01,1.6,21.34,5.49c3.34,2.06,4.95,4.79,4.92,8.3
			c-0.08,11.24-0.15,22.48,0.03,33.71c0.07,4.53-2.27,7.63-6.73,9.9c-5.79,2.95-12.2,4.08-18.88,4.46
			c-7.72,0.44-15.24-0.31-22.44-2.77c-1.9-0.65-3.69-1.47-5.33-2.49c-3.48-2.16-5.33-4.91-5.28-8.67c0.13-11.35,0.13-22.7,0-34.05
			c-0.04-3.82,1.84-6.62,5.47-8.75c5.76-3.37,12.36-4.59,19.23-5.11C308.75,505.98,314.56,505.89,314.71,505.94z M312.09,508.38
			c-3.09-0.08-6.56,0.11-9.96,0.76c-5.02,0.96-9.93,2.15-13.68,5.32c-3.18,2.69-3.13,5.64,0.07,8.34c1.95,1.64,4.35,2.75,6.9,3.55
			c10.02,3.13,20.24,3.26,30.51,0.98c4.12-0.91,7.98-2.32,10.9-5.07c2.26-2.12,2.41-4.69,0.43-6.96c-1.28-1.46-2.97-2.48-4.84-3.31
			C326.2,509.22,319.48,508.28,312.09,508.38z"/>
		<path class="st33" d="M312.09,508.38c7.39-0.1,14.11,0.85,20.33,3.62c1.87,0.83,3.57,1.85,4.84,3.31
			c1.98,2.26,1.82,4.84-0.43,6.96c-2.93,2.75-6.79,4.16-10.9,5.07c-10.27,2.27-20.49,2.15-30.51-0.98c-2.56-0.8-4.96-1.91-6.9-3.55
			c-3.2-2.7-3.25-5.65-0.07-8.34c3.75-3.17,8.66-4.36,13.68-5.32C305.53,508.48,309,508.3,312.09,508.38z"/>
	</g>
</g>
<g>
	<text transform="matrix(1 0 0 1 291.4065 550.3633)" class="st15 st9 st16">Data PVC</text>
</g>
<g id="qzZde4.tif_7_">
	<g>
		<linearGradient id="SVGID_2_" gradientUnits="userSpaceOnUse" x1="592.3154" y1="507.2729" x2="626.5721" y2="566.6072">
			<stop  offset="0" style="stop-color:#279BD6"/>
			<stop  offset="1" style="stop-color:#0A69B1"/>
		</linearGradient>
		<path class="st4" d="M611.71,505.94c0.25,0.03,0.51,0.05,0.76,0.08c7.68,0.32,15.01,1.6,21.34,5.49c3.34,2.06,4.95,4.79,4.92,8.3
			c-0.08,11.24-0.15,22.48,0.03,33.71c0.07,4.53-2.27,7.63-6.73,9.9c-5.79,2.95-12.2,4.08-18.88,4.46
			c-7.72,0.44-15.24-0.31-22.44-2.77c-1.9-0.65-3.69-1.47-5.33-2.49c-3.48-2.16-5.33-4.91-5.28-8.67c0.13-11.35,0.13-22.7,0-34.05
			c-0.04-3.82,1.84-6.62,5.47-8.75c5.76-3.37,12.36-4.59,19.23-5.11C605.75,505.98,611.56,505.89,611.71,505.94z M609.09,508.38
			c-3.09-0.08-6.56,0.11-9.96,0.76c-5.02,0.96-9.93,2.15-13.68,5.32c-3.18,2.69-3.13,5.64,0.07,8.34c1.95,1.64,4.35,2.75,6.9,3.55
			c10.02,3.13,20.24,3.26,30.51,0.98c4.12-0.91,7.98-2.32,10.9-5.07c2.26-2.12,2.41-4.69,0.43-6.96c-1.28-1.46-2.97-2.48-4.84-3.31
			C623.2,509.22,616.48,508.28,609.09,508.38z"/>
		<path class="st33" d="M609.09,508.38c7.39-0.1,14.11,0.85,20.33,3.62c1.87,0.83,3.57,1.85,4.84,3.31
			c1.98,2.26,1.82,4.84-0.43,6.96c-2.93,2.75-6.79,4.16-10.9,5.07c-10.27,2.27-20.49,2.15-30.51-0.98c-2.56-0.8-4.96-1.91-6.9-3.55
			c-3.2-2.7-3.25-5.65-0.07-8.34c3.75-3.17,8.66-4.36,13.68-5.32C602.53,508.48,606,508.3,609.09,508.38z"/>
	</g>
</g>
<g>
	<text transform="matrix(1 0 0 1 588.4066 550.3633)" class="st15 st9 st16">Data PVC</text>
</g>
<text transform="matrix(1 0 0 1 148.6158 502.3633)" class="st8 st49 st16">zone 1</text>
<text transform="matrix(1 0 0 1 287.9156 581.3633)" class="st8 st9 st50">storage class 1</text>
<text transform="matrix(1 0 0 1 584.9154 581.3633)" class="st8 st9 st50">storage class 1</text>
<g id="qzZde4.tif_8_">
	<g>
		<linearGradient id="SVGID_3_" gradientUnits="userSpaceOnUse" x1="771.3154" y1="507.2729" x2="805.5721" y2="566.6072">
			<stop  offset="0" style="stop-color:#279BD6"/>
			<stop  offset="1" style="stop-color:#0A69B1"/>
		</linearGradient>
		<path class="st5" d="M790.71,505.94c0.25,0.03,0.51,0.05,0.76,0.08c7.68,0.32,15.01,1.6,21.34,5.49c3.34,2.06,4.95,4.79,4.92,8.3
			c-0.08,11.24-0.15,22.48,0.03,33.71c0.07,4.53-2.27,7.63-6.73,9.9c-5.79,2.95-12.2,4.08-18.88,4.46
			c-7.72,0.44-15.24-0.31-22.44-2.77c-1.9-0.65-3.69-1.47-5.33-2.49c-3.48-2.16-5.33-4.91-5.28-8.67c0.13-11.35,0.13-22.7,0-34.05
			c-0.04-3.82,1.84-6.62,5.47-8.75c5.76-3.37,12.36-4.59,19.23-5.11C784.75,505.98,790.56,505.89,790.71,505.94z M788.09,508.38
			c-3.09-0.08-6.56,0.11-9.96,0.76c-5.02,0.96-9.93,2.15-13.68,5.32c-3.18,2.69-3.13,5.64,0.07,8.34c1.95,1.64,4.35,2.75,6.9,3.55
			c10.02,3.13,20.24,3.26,30.51,0.98c4.12-0.91,7.98-2.32,10.9-5.07c2.26-2.12,2.41-4.69,0.43-6.96c-1.28-1.46-2.97-2.48-4.84-3.31
			C802.2,509.22,795.48,508.28,788.09,508.38z"/>
		<path class="st33" d="M788.09,508.38c7.39-0.1,14.11,0.85,20.33,3.62c1.87,0.83,3.57,1.85,4.84,3.31
			c1.98,2.26,1.82,4.84-0.43,6.96c-2.93,2.75-6.79,4.16-10.9,5.07c-10.27,2.27-20.49,2.15-30.51-0.98c-2.56-0.8-4.96-1.91-6.9-3.55
			c-3.2-2.7-3.25-5.65-0.07-8.34c3.75-3.17,8.66-4.36,13.68-5.32C781.53,508.48,785,508.3,788.09,508.38z"/>
	</g>
</g>
<g>
	<text transform="matrix(1 0 0 1 771.8168 546.3633)"><tspan x="0" y="0" class="st15 st9 st16">Backup</tspan><tspan x="7.2" y="10.26" class="st15 st9 st16">PVC</tspan></text>
</g>
<text transform="matrix(1 0 0 1 775.4094 581.3633)" class="st8 st9 st50">storage</text>
<text transform="matrix(1 0 0 1 448.6803 502.3633)" class="st8 st49 st16">zone 2</text>
<line class="st58" x1="163.57" y1="383" x2="163.57" y2="363.5"/>
<polygon class="st8" points="163.5,383.34 165.28,380.07 163.5,380.07 161.72,380.07 "/>
<line class="st58" x1="230.57" y1="170" x2="230.57" y2="150.5"/>
<polygon class="st8" points="230.5,170.34 232.28,167.07 230.5,167.07 228.72,167.07 "/>
<line class="st58" x1="206.57" y1="170" x2="206.57" y2="70"/>
<polygon class="st8" points="206.5,170.34 208.28,167.07 206.5,167.07 204.72,167.07 "/>
<g>
	<line class="st58" x1="290.98" y1="90" x2="290.98" y2="70.5"/>
	<polygon class="st8" points="290.92,90.34 292.7,87.07 290.92,87.07 289.14,87.07 	"/>
	<line class="st58" x1="299.98" y1="90" x2="299.98" y2="70.5"/>
	<polygon class="st8" points="299.92,90.34 301.7,87.07 299.92,87.07 298.14,87.07 	"/>
	<line class="st58" x1="308.98" y1="90" x2="308.98" y2="70.5"/>
	<polygon class="st8" points="308.92,90.34 310.7,87.07 308.92,87.07 307.14,87.07 	"/>
	<line class="st58" x1="317.98" y1="90" x2="317.98" y2="70.5"/>
	<polygon class="st8" points="317.92,90.34 319.7,87.07 317.92,87.07 316.14,87.07 	"/>
</g>
<line class="st58" x1="380.57" y1="170" x2="380.57" y2="150.5"/>
<polygon class="st8" points="380.5,170.34 382.28,167.07 380.5,167.07 378.72,167.07 "/>
<line class="st58" x1="398.57" y1="170" x2="398.57" y2="70"/>
<polygon class="st8" points="398.5,170.34 400.28,167.07 398.5,167.07 396.72,167.07 "/>
<polygon class="st8" points="527.5,167.72 525.72,171 527.5,171 529.28,171 "/>
<polygon class="st8" points="242.5,450.72 240.72,454 242.5,454 244.28,454 "/>
<polygon class="st8" points="729.5,437.72 727.72,441 729.5,441 731.28,441 "/>
<polygon class="st8" points="686.25,108.72 684.47,112 686.25,112 688.03,112 "/>
<path class="st2" d="M512.22,362H408.46c-2,0-3.62-1.62-3.62-3.62v-33.76c0-2,1.62-3.62,3.62-3.62h103.76c2,0,3.62,1.62,3.62,3.62
	v33.76C515.84,360.38,514.22,362,512.22,362z"/>
<g>
	<text transform="matrix(1 0 0 1 416.8634 345.2568)" class="st15 st9 st16">crunchy - pgbadger</text>
</g>
<line class="st58" x1="462.57" y1="383" x2="462.57" y2="363.5"/>
<polygon class="st8" points="462.5,383.34 464.28,380.07 462.5,380.07 460.72,380.07 "/>
<line class="st58" x1="90.57" y1="383" x2="90.57" y2="302.5"/>
<polygon class="st8" points="90.5,383.34 92.28,380.07 90.5,380.07 88.72,380.07 "/>
<line class="st58" x1="528.57" y1="383" x2="528.57" y2="302.5"/>
<polygon class="st8" points="528.5,383.34 530.28,380.07 528.5,380.07 526.72,380.07 "/>
<line class="st58" x1="230.57" y1="383" x2="230.57" y2="216.5"/>
<polygon class="st8" points="230.5,383.34 232.28,380.07 230.5,380.07 228.72,380.07 "/>
<polygon class="st8" points="312.5,502.28 314.28,499 312.5,499 310.72,499 "/>
<path class="st17" d="M477.38,214H373.62c-2,0-3.62-1.62-3.62-3.62v-33.76c0-2,1.62-3.62,3.62-3.62h103.76c2,0,3.62,1.62,3.62,3.62
	v33.76C481,212.38,479.38,214,477.38,214z"/>
<g>
	<text transform="matrix(1 0 0 1 385.1164 197.2568)" class="st15 st9 st16">replica DB service</text>
</g>
<line class="st58" x1="390.57" y1="383" x2="390.57" y2="216.5"/>
<polygon class="st8" points="390.5,383.34 392.28,380.07 390.5,380.07 388.72,380.07 "/>
<polyline class="st58" points="256,438.5 312.5,438.5 312.5,500 "/>
<polygon class="st8" points="609.5,502.28 611.28,499 609.5,499 607.72,499 "/>
<polygon class="st8" points="787.75,502.28 789.53,499 787.75,499 785.97,499 "/>
<polyline class="st58" points="553,438.5 609.5,438.5 609.5,500 "/>
<polyline class="st58" points="545,188 527.5,188 527.5,170 "/>
<polygon class="st8" points="679.22,167.72 681,171 679.22,171 677.44,171 "/>
<polygon class="st8" points="713.28,298.36 710,300.14 710,298.36 710,296.58 "/>
<polygon class="st8" points="905.28,409.18 902,410.96 902,409.18 902,407.4 "/>
<polygon class="st8" points="790.49,111.72 792.27,115 790.49,115 788.71,115 "/>
<polygon class="st8" points="935.49,111.72 937.27,115 935.49,115 933.71,115 "/>
<polyline class="st58" points="661.72,188 679.22,188 679.22,170 "/>
<polyline class="st58" points="543,279.5 605,279.5 605,203.79 "/>
<polyline class="st58" points="553,395 646,395 646,298 711,298 "/>
<line class="st58" x1="790.49" y1="114.5" x2="790.49" y2="265.5"/>
<line class="st58" x1="686.25" y1="110" x2="686.25" y2="131"/>
<polygon class="st8" points="529.25,108.72 527.47,112 529.25,112 531.03,112 "/>
<line class="st58" x1="529.25" y1="110" x2="529.25" y2="131"/>
<line class="st58" x1="787.5" y1="471" x2="787.5" y2="499.5"/>
<rect x="698.78" y="443.08" class="st11" width="180.8" height="19.92"/>
<text transform="matrix(1 0 0 1 737.8201 452.4294)" class="st12 st13 st14">Backrest Repo Pod</text>
<g id="UEllEY.tif">
	<g>
		<linearGradient id="SVGID_4_" gradientUnits="userSpaceOnUse" x1="923.1436" y1="380.1779" x2="954.5593" y2="434.5915">
			<stop  offset="0" style="stop-color:#279BD6"/>
			<stop  offset="1" style="stop-color:#0A69B1"/>
		</linearGradient>
		<path class="st6" d="M965.49,389.57c-1.51,0.64-6.12,2.7-9.97,3.38c-0.03,0-0.05,0.04-0.07,0.04c-6.3,1.66-24.15,3.32-39.94-0.2
			c-3.85-0.86-6.69-2.42-8.61-3.23c-0.01,0.02-0.1,0.12-0.09,0.2c0.28,1.47,0.55,2.94,0.86,4.4c0.25,1.22,7.57,33.61,7.93,35.03
			c0.21,0.82,0.33,1.67,0.63,2.45c0.35,0.9,0.64,2.04,1.35,2.55c1.14,0.83,2.55,1.38,3.93,1.77c1.64,0.48,3.35,0.81,5.05,0.97
			c11.02,1,21.55-0.4,22.89-0.6c0.17-0.02,2.29-0.57,3.16-0.86c1.11-0.37,2.25-0.75,2.72-2c0.08-0.21,0.09-0.44,0.17-0.65
			c0.42-1.19,9.7-41.55,10.1-43.08C965.6,389.66,965.48,389.56,965.49,389.57z"/>
		<linearGradient id="SVGID_5_" gradientUnits="userSpaceOnUse" x1="928.1855" y1="369.8299" x2="944.1658" y2="397.5087">
			<stop  offset="0" style="stop-color:#279BD6"/>
			<stop  offset="1" style="stop-color:#0A69B1"/>
		</linearGradient>
		<path class="st20" d="M915.87,388.95c2.27,0.59,11.13,1.97,16.71,2.06c13.85,0.23,24.27-2.2,25.92-2.61
			c2.25-0.56,6.07-2.44,6.87-3.29c0.63-0.67,0.85-1.49,0.43-2.32c-0.56-1.11-4.01-3.18-6.71-3.92c-2.09-0.58-9.92-1.94-11.35-2.04
			c-5.07-0.37-11.52-0.58-16.07-0.36c-0.45,0.02-9.43,0.46-13.07,1.2c-1.8,0.36-9.31,1.99-11.99,5.11
			c-0.55,0.64-0.24,1.78,0.43,2.32C909.95,387.5,914.96,388.71,915.87,388.95z"/>
	</g>
</g>
<g>
	<text transform="matrix(1 0 0 1 924.2461 421.4297)"><tspan x="0" y="0" class="st15 st66 st67">S</tspan><tspan x="12.37" y="-1.66" class="st15 st66 st67">3</tspan></text>
</g>
<line class="st58" x1="853" y1="409.18" x2="903" y2="409.18"/>
<polyline class="st58" points="521,342.5 935.5,342.5 935.5,114.5 "/>
<polyline class="st58" points="242.5,453 242.5,490 729.5,490 729.5,439.5 "/>
<g>
	<g>
		<path class="st15" d="M107.83,415.07c0.13,0.18,0.22,0.38,0.26,0.59c0.04,0.25,0.02,0.51,0.02,0.77c0,0.29-0.13,0.52-0.36,0.67
			c-0.57,0.36-1.17,0.62-1.83,0.75c-0.89,0.11-1.84-0.04-2.78-0.16c-0.94-0.12-1.88-0.22-2.75,0c-0.03,0.01-0.05,0.02-0.07,0.03
			c-0.07,0.06-0.07,0.16-0.02,0.23c0.02,0.03,0.06,0.06,0.1,0.07c0.02,0,0.05,0,0.07,0c0.13-0.03,0.27-0.06,0.41-0.08
			c0.03,0,0.06-0.01,0.09-0.01c0.11-0.01,0.22-0.03,0.33-0.03c0.02,0,0.04,0,0.06,0c0.12-0.01,0.24-0.01,0.36-0.01c0,0,0,0,0,0
			c1.81,0.01,3.75,0.74,5.42-0.04l0,0c0.03-0.01,0.06-0.02,0.09-0.04c0.2,0.01,0.4,0.02,0.61,0.04c-0.11,0.11-0.22,0.24-0.36,0.34
			c-0.11,0.08-0.26,0.12-0.4,0.16c-0.09,0.03-0.16,0.08-0.12,0.18c0.07,0.17,0.07,0.32-0.06,0.47c0.12-0.02,0.24-0.02,0.33-0.07
			c0.36-0.2,0.72-0.4,1.07-0.62c0.14-0.09,0.3-0.2,0.39-0.34c0.24-0.39,0.44-0.81,0.66-1.21c0.03-0.05,0.07-0.11,0.12-0.13
			c0.11-0.05,0.23-0.07,0.35-0.1c0.1,0.18,0.2,0.37,0.19,0.56c0,0.01,0,0.01,0,0.02c0,0.07-0.02,0.14-0.05,0.21
			c-0.13,0.29-0.33,0.52-0.7,0.46c-0.01,0-0.01,0-0.02,0c-0.13,0.01-0.22,0.05-0.26,0.2c-0.02,0.06-0.01,0.11,0,0.15
			c0.02,0.05,0.06,0.09,0.13,0.13c0.08,0.04,0.16,0.09,0.23,0.14c0.05,0.03,0.09,0.05,0.14,0.08c0.09,0.05,0.18,0.09,0.27,0.12
			c0.09,0.03,0.18,0.05,0.28,0.06c0.19,0.01,0.37-0.02,0.57-0.12c0.98-0.5,1.82-1.17,2.34-2.15c0.06-0.12,0.13-0.24,0.19-0.37
			c0.06-0.13,0.11-0.25,0.16-0.38c0.09-0.26,0.15-0.53,0.15-0.81c0-0.02,0-0.03,0-0.05c-0.01-0.41-0.08-0.82-0.13-1.24
			c0.03,0.06,0.06,0.11,0.09,0.15c0.11,0.13,0.26,0.19,0.48,0.13c-0.01,0.15-0.02,0.27-0.03,0.38c-0.01,0.22-0.04,0.44-0.04,0.66
			c0,0.13,0.01,0.27,0.03,0.4c0.01,0.13,0.02,0.27,0.03,0.4c0.01,0.63-0.08,1.24-0.34,1.86c0.04-0.03,0.06-0.04,0.08-0.06
			c0.02-0.02,0.04-0.03,0.06-0.05c-0.06,0.19-0.13,0.37-0.18,0.55c-0.06,0.24-0.1,0.46-0.11,0.68c0,0,0,0.01,0,0.01
			c-0.01,0.37,0.07,0.73,0.24,1.05c0.13,0.24,0.31,0.47,0.55,0.68c0.55,0.48,1.14,0.89,1.77,1.26c0.12,0.07,0.25,0.14,0.39,0.22
			c-0.09,0.04-0.18,0.07-0.27,0.1c-0.09,0.03-0.17,0.06-0.25,0.1c-0.61,0.29-1.24,0.55-1.82,0.9c-0.36,0.22-0.62,0.54-0.79,0.9
			c-0.06,0.12-0.11,0.25-0.14,0.37c-0.08,0.25-0.12,0.51-0.14,0.76c-0.01,0.25,0,0.48,0.04,0.68c0,0.01,0.01,0.01,0.01,0.02
			c2.59-1.37,4.54-3.76,5.34-6.64c-0.18-0.22-0.37-0.43-0.57-0.63c-0.57-0.58-1.13-1.2-1.81-1.65c-0.23-0.15-0.47-0.28-0.73-0.39
			c0.16-0.05,0.33-0.1,0.5-0.16 M115.73,416.25c-0.02-0.07-0.04-0.13-0.07-0.19c-0.13-0.35-0.28-0.69-0.44-1.03
			c-0.41-0.89-0.9-1.74-1.43-2.56c-0.07-0.12-0.15-0.24-0.22-0.35c-0.24-0.37-0.53-0.7-0.83-1.03c-0.25-0.29-0.51-0.58-0.72-0.9
			c-0.2-0.3-0.47-0.56-0.72-0.82c-0.32-0.33-0.7-0.59-1.16-0.69c-0.05-0.01-0.09-0.02-0.14-0.03c0.05,0.1,0.09,0.21,0.12,0.31
			c0.04,0.11,0.07,0.23,0.09,0.34c0.02,0.09,0.03,0.19,0.03,0.29c0,0.1-0.02,0.19-0.07,0.26c-0.05,0.07-0.12,0.13-0.22,0.16
			c-0.13,0.05-0.26,0.09-0.43,0.15l-0.26,0.13c0.03-0.11,0.07-0.22,0.1-0.33c-0.02-0.01-0.07-0.02-0.14-0.05
			c0.11-0.31,0.22-0.6,0.52-0.79c-0.02,0.05-0.05,0.11-0.05,0.16c0,0.07,0.02,0.13,0.03,0.2c0.06-0.02,0.13-0.02,0.18-0.05
			c0.1-0.06,0.15-0.15,0.11-0.27c-0.01-0.04-0.02-0.07-0.03-0.11c0-0.02-0.01-0.04-0.01-0.07c-0.01-0.04-0.02-0.09-0.03-0.14
			c-0.21,0.13-0.41,0.25-0.54,0.44c-0.04,0.06-0.08,0.13-0.1,0.21c-0.01,0.02-0.01,0.05-0.03,0.07c-0.07,0.06-0.15,0.11-0.22,0.17
			c-0.04-0.1-0.13-0.2-0.11-0.29c0.02-0.13,0.12-0.24,0.18-0.34c0.17-0.27,0.73-0.42,0.85-0.45c-0.37-0.08-0.74-0.14-1.12-0.17
			c-1.34-0.08-2.62,0.07-3.71,0.97c-0.18,0.15-0.42,0.23-0.64,0.3c-0.25,0.08-0.34,0.26-0.22,0.49c0.03,0.05,0.06,0.09,0.09,0.13
			c0.11,0.11,0.25,0.15,0.41,0.17c0.17,0.02,0.34,0.02,0.51,0.03v0c-0.01,0.01-0.01,0.03-0.02,0.03c-0.79,0.6-1.58,1.21-2.38,1.8
			c-0.29,0.22-0.62,0.33-0.98,0.35h0c-0.23,0.01-0.46-0.01-0.68-0.01c-0.34,0-0.48,0.12-0.54,0.42c0.08,0.01,0.11,0.09,0.12,0.18
			c0.01,0.09-0.01,0.19-0.04,0.23c-0.08,0.1-0.25,0.15-0.4,0.16c-0.05,0-0.1,0-0.14,0c0-0.01,0-0.02,0-0.04
			c-0.04,0.03-0.08,0.05-0.12,0.08c-0.09,0.06-0.13,0.13-0.13,0.2s0.03,0.13,0.11,0.18c0.12,0.09,0.27,0.11,0.42,0.09
			c0.14-0.03,0.27-0.1,0.36-0.22l-0.03,0.06l0.48-0.33h0h0c0,0-0.11,0.24-0.34,0.46c-0.09,0.09-0.2,0.17-0.33,0.24
			c-0.06,0.03-0.13,0.06-0.21,0.08c-0.12,0-0.22-0.02-0.29-0.03c-0.07-0.01-0.11-0.03-0.11-0.03c-0.01,0.04-0.02,0.07-0.04,0.11
			c0,0-0.01,0-0.01,0l0.01,0.01c-0.38,1.16-0.49,1.98-0.45,2.33c0.02,0.12,0.06,0.2,0.12,0.25c0.18,0.15,0.48,0.04,0.48,0.04
			c0.58-0.16,1.1-0.23,1.53-0.25c0.14-0.01,0.27-0.01,0.39-0.01c0.24,0,0.43,0.02,0.56,0.04c0.13,0.02,0.2,0.03,0.2,0.03
			c0.59,0.2,1.14,0.28,1.6,0.3c0.77,0.04,1.28-0.07,1.28-0.07s0.08-0.01,0.2-0.04c0.21-0.04,0.54-0.13,0.86-0.27
			c0.13-0.06,0.25-0.13,0.36-0.21c0.34-0.24,0.57-0.58,0.45-1.07c-0.03-0.21-0.18-0.42-0.35-0.62c-0.1-0.11-0.22-0.23-0.33-0.32
			c-0.16-0.13-0.31-0.24-0.42-0.32c-0.11-0.08-0.19-0.12-0.19-0.12 M102.32,413.77c-0.02-0.18,0.1-0.26,0.23-0.31
			c0.14-0.05,0.28-0.03,0.37,0.05c0.03,0.03,0.06,0.06,0.08,0.1c0.01,0.02,0.01,0.04,0.02,0.06c0.08,0.19,0.05,0.4-0.08,0.52
			c-0.06,0.05-0.12,0.08-0.18,0.08c-0.03,0-0.07-0.01-0.1-0.02c-0.03-0.02-0.07-0.04-0.1-0.07c0.06-0.01,0.1-0.02,0.17-0.04
			c-0.12-0.08-0.18-0.17-0.17-0.29c0-0.04,0.02-0.08,0.04-0.13c-0.05,0.01-0.1,0.01-0.15,0.02S102.36,413.77,102.32,413.77z
			 M102.11,412.91L102.11,412.91C102.11,412.91,102.11,412.91,102.11,412.91L102.11,412.91
			C102.11,412.91,102.11,412.91,102.11,412.91 M103.1,414.96c-0.17,0.02-0.32,0.01-0.45-0.01c-0.13-0.02-0.24-0.06-0.33-0.1
			c-0.18-0.09-0.3-0.21-0.37-0.33c-0.09-0.14-0.11-0.26-0.11-0.26l0.01-0.05c0.09,0.14,0.23,0.26,0.4,0.33
			c0.1,0.04,0.2,0.08,0.33,0.09c0.12,0.01,0.23,0.02,0.34,0.01c0.22-0.01,0.44-0.06,0.64-0.17c0.1-0.06,0.2-0.13,0.3-0.21
			c0,0.21,0.06,0.36,0.19,0.45C103.67,414.86,103.35,414.93,103.1,414.96 M103.72,413.21c-0.13-0.22-0.32-0.36-0.54-0.45
			c-0.11-0.04-0.23-0.08-0.35-0.1c0.11,0,0.22-0.01,0.33-0.02c0.05,0,0.11,0,0.16,0c0.05,0,0.1,0.01,0.15,0.03
			c0.09,0.03,0.18,0.05,0.26,0.05c0.09,0.01,0.17,0,0.25-0.01c0.08-0.01,0.16-0.03,0.24-0.06c0.08-0.03,0.16-0.06,0.24-0.1
			c0.05-0.02,0.1-0.04,0.15-0.07C104.32,412.73,104.02,412.97,103.72,413.21 M107.76,410.99c0,0,0,0.55-0.47,0.55
			c-0.25-0.03-0.38-0.24-0.35-0.37c-0.1,0.05-0.24,0.14-0.42,0.3c0,0,0.51-1,1.5-0.53C108.03,410.94,107.89,410.96,107.76,410.99"/>
	</g>
	<g>
		<path class="st15" d="M101.73,422.12c0.05,0.53,0.17,1.04,0.34,1.54c0.04,0.13,0.09,0.26,0.14,0.39c0.04,0.11,0.08,0.23,0.13,0.34
			c0.05,0.12,0.1,0.24,0.16,0.35c0.14,0.31,0.28,0.61,0.42,0.92c0.02-0.01,0.04-0.01,0.06-0.02c0.01-0.03,0.02-0.07,0.03-0.1
			c0.3-0.9,0.57-1.8,0.9-2.68c0.03-0.08,0.05-0.15,0.06-0.22c0.02-0.14-0.01-0.25-0.07-0.36c-0.03-0.05-0.08-0.1-0.13-0.15
			c-0.06-0.05-0.13-0.09-0.21-0.13c-0.08-0.03-0.16-0.06-0.24-0.09c-0.03-0.01-0.07-0.02-0.11-0.02c-0.04,0-0.07,0-0.12-0.01h0
			c0.28-0.15,0.56-0.21,0.85-0.2c0.09,0,0.19,0.01,0.28,0.03c0.12,0.02,0.18,0,0.23-0.12c0.28-0.62,0.57-1.23,0.86-1.84
			c0.03-0.06,0.06-0.13,0.11-0.24c-0.28-0.02-0.55-0.04-0.82-0.06c-0.03,0-0.06,0-0.09-0.01c-0.28-0.02-0.55-0.03-0.83-0.02
			c-0.5,0.01-0.68,0.03-0.87,0.2c-0.08,0.06-0.15,0.15-0.25,0.27c-0.05,0.06-0.11,0.13-0.17,0.21c-0.37,0.45-0.59,0.93-0.64,1.47
			C101.71,421.75,101.71,421.93,101.73,422.12"/>
	</g>
	<g>
		<path class="st15" d="M104.97,421.58c-0.04,0.18,0.05,0.26,0.33,0.38l3.28,0.87c0.59,0.15,1.18,0.29,1.79,0.3
			c0.31,0,0.59-0.03,0.84-0.12c0.17-0.06,0.32-0.14,0.46-0.26c0.21-0.17,0.37-0.39,0.5-0.7c0-0.01,0.01-0.02,0.02-0.03
			c0.51-0.88,0.62-1.86,0.68-2.85c0.01-0.18,0.03-0.35,0.14-0.51c0.07-0.1,0.08-0.23,0.14-0.39c-0.03,0.02-0.04,0.03-0.05,0.04
			c-0.01,0.01-0.02,0.01-0.02,0.02c-0.32,0.45-0.76,0.7-1.28,0.83c-0.08,0.02-0.15,0.07-0.21,0.12c-0.41,0.34-0.81,0.7-1.24,1.01
			c-0.26,0.19-0.53,0.34-0.81,0.45c-0.28,0.11-0.57,0.18-0.86,0.23c-0.29,0.05-0.59,0.06-0.89,0.06c-0.01,0-0.01,0-0.02,0
			c-0.28,0-0.57-0.02-0.86-0.06c-0.01,0-0.03,0-0.04,0c-0.01,0-0.02,0-0.03,0c-0.12-0.01-0.24-0.03-0.36-0.06
			c-0.19-0.05-0.36-0.12-0.51-0.23s-0.28-0.27-0.36-0.49c-0.19,0.4-0.37,0.78-0.55,1.16C105.01,421.44,104.98,421.52,104.97,421.58"
			/>
	</g>
	<g>
		<path class="st15" d="M104.92,423.02c-0.12,0.06-0.24,0.14-0.34,0.23c-0.1,0.09-0.2,0.21-0.29,0.34
			c-0.17,0.26-0.33,0.53-0.44,0.82c-0.09,0.25-0.18,0.5-0.26,0.76c-0.08,0.25-0.15,0.51-0.21,0.77c1.39,0.66,2.94,1.04,4.59,1.04
			c1.28,0,2.51-0.24,3.65-0.65c-0.3-1.06-0.94-1.84-1.95-2.37c-0.62-0.32-1.25-0.57-1.9-0.75c-0.65-0.18-1.32-0.29-2.01-0.34
			C105.45,422.85,105.16,422.9,104.92,423.02"/>
	</g>
	<g>
		<path class="st11" d="M102.23,425.31c-0.2-0.4-0.38-0.81-0.52-1.23c-0.16-0.46-0.29-0.93-0.38-1.42"/>
	</g>
	<g>
		<path class="st15" d="M102.77,425.78c-2.79-1.93-5.78-5.76-5.78-9.58c0-2.19,0.64-4.31,1.86-6.12c0.2-0.3,0.41-0.58,0.63-0.84
			c2.1-2.55,5.2-4.01,8.49-4.01c1.11,0,2.22,0.17,3.27,0.5c1.69,0.53,3.25,1.47,4.51,2.73c0.5,0.5,0.95,1.04,1.34,1.62
			c1.22,1.81,1.86,3.93,1.86,6.12c0,0.93-0.37,2.73-0.41,2.93l-0.4-0.08c0.18-0.89,0.4-2.18,0.4-2.85c0-2.11-0.62-4.14-1.79-5.89
			c-0.38-0.56-0.81-1.08-1.29-1.56c-1.21-1.21-2.72-2.12-4.34-2.63c-1.02-0.32-2.08-0.48-3.15-0.48c-3.17,0-6.15,1.41-8.18,3.86
			c-0.21,0.25-0.41,0.52-0.6,0.8c-1.17,1.74-1.79,3.78-1.79,5.89c0,3.68,2.91,7.37,5.61,9.25L102.77,425.78z"/>
	</g>
	<g>
		<path class="st11" d="M101.33,422.65c-0.04-0.23-0.07-0.46-0.08-0.69c-0.01-0.23,0-0.46,0.04-0.69c0.04-0.31,0.15-0.58,0.29-0.84
			c0.14-0.26,0.32-0.5,0.5-0.73c0.04-0.05,0.08-0.1,0.13-0.15c0,0,0-0.01,0.01-0.04c-0.49-0.06-0.84-0.3-1.02-0.75
			c-0.08-0.19-0.22-0.27-0.39-0.32c-0.06-0.01-0.11-0.02-0.17-0.03c-0.1-0.01-0.2-0.01-0.3-0.02c-0.19-0.03-0.32-0.13-0.38-0.29
			c-0.02-0.05-0.03-0.11-0.03-0.18c0-0.09-0.01-0.16-0.12-0.18c-0.18-0.03-0.32-0.09-0.43-0.17c-0.06-0.04-0.11-0.09-0.15-0.14
			c-0.05-0.06-0.09-0.14-0.13-0.21c-0.07-0.16-0.1-0.34-0.09-0.52c0,0,0,0,0,0c0-0.07,0.01-0.13,0.02-0.19
			c0.07-0.4,0.18-0.79,0.26-1.19c0.07-0.33,0.13-0.67,0.2-1c0.07-0.36,0.31-0.62,0.6-0.82c0.08-0.06,0.14-0.12,0.19-0.19
			c0.05-0.07,0.08-0.15,0.1-0.24c0.07-0.33,0.24-0.51,0.51-0.55c0.09-0.01,0.19-0.01,0.3,0c0.08,0.01,0.16,0.03,0.25,0.04
			c0.1,0.01,0.2,0.02,0.29,0.01c0.29-0.01,0.56-0.08,0.8-0.26c0.36-0.26,0.73-0.51,1.08-0.77c0.05-0.03,0.07-0.12,0.07-0.18
			c0.01-0.26-0.01-0.52,0-0.77c0.01-0.15,0.03-0.29,0.07-0.41c0.12-0.37,0.41-0.61,0.84-0.72c0.31-0.08,0.56-0.24,0.78-0.45
			c0.02-0.02,0.03-0.05,0.05-0.07c0.01-0.03,0.02-0.06,0.01-0.07c-0.09-0.16-0.12-0.3-0.11-0.45c0-0.1,0.03-0.19,0.06-0.28
			c0.05-0.14,0.13-0.27,0.21-0.4c0.03-0.04,0.05-0.08,0.1-0.14c0.06,0.07,0.13,0.13,0.2,0.2c0.2,0.2,0.38,0.4,0.45,0.71
			c0.36-0.08,0.73-0.15,1.09-0.23c0.27-0.06,0.54-0.1,0.81-0.13c0.81-0.06,1.6,0.05,2.38,0.3c0.22,0.07,0.42,0.17,0.62,0.29
			c0.16,0.1,0.32,0.21,0.46,0.34c0.1,0.09,0.2,0.2,0.29,0.3c0.17,0.2,0.34,0.41,0.51,0.61c0.34,0.41,0.67,0.82,1,1.24
			c0.16,0.21,0.32,0.42,0.47,0.64c0.31,0.43,0.6,0.87,0.87,1.33c0.27,0.46,0.52,0.93,0.73,1.42c0.25,0.56,0.47,1.13,0.71,1.69
			c0.04,0.09,0.1,0.18,0.17,0.24c0.74,0.62,1.42,1.28,2.05,2"/>
	</g>
</g>
<g>
	<g>
		<path class="st15" d="M418.73,416.25c-0.02-0.07-0.04-0.13-0.07-0.19c-0.13-0.35-0.28-0.69-0.44-1.03
			c-0.41-0.89-0.9-1.74-1.43-2.56c-0.07-0.12-0.15-0.24-0.22-0.35c-0.24-0.37-0.53-0.7-0.83-1.03c-0.25-0.29-0.51-0.58-0.72-0.9
			c-0.2-0.3-0.47-0.56-0.72-0.82c-0.32-0.33-0.7-0.59-1.16-0.69c-0.05-0.01-0.09-0.02-0.14-0.03c0.05,0.1,0.09,0.21,0.12,0.31
			c0.04,0.11,0.07,0.23,0.09,0.34c0.02,0.09,0.03,0.19,0.03,0.29c0,0.1-0.02,0.19-0.07,0.26c-0.05,0.07-0.12,0.13-0.22,0.16
			c-0.13,0.05-0.26,0.09-0.43,0.15l-0.26,0.13c0.03-0.11,0.07-0.22,0.1-0.33c-0.02-0.01-0.07-0.02-0.14-0.05
			c0.11-0.31,0.22-0.6,0.52-0.79c-0.02,0.05-0.05,0.11-0.05,0.16c0,0.07,0.02,0.13,0.03,0.2c0.06-0.02,0.13-0.02,0.18-0.05
			c0.1-0.06,0.15-0.15,0.11-0.27c-0.01-0.04-0.02-0.07-0.03-0.11c0-0.02-0.01-0.04-0.01-0.07c-0.01-0.04-0.02-0.09-0.03-0.14
			c-0.21,0.13-0.41,0.25-0.54,0.44c-0.04,0.06-0.08,0.13-0.1,0.21c-0.01,0.02-0.01,0.05-0.03,0.07c-0.07,0.06-0.15,0.11-0.22,0.17
			c-0.04-0.1-0.13-0.2-0.11-0.29c0.02-0.13,0.12-0.24,0.18-0.34c0.17-0.27,0.73-0.42,0.85-0.45c-0.37-0.08-0.74-0.14-1.12-0.17
			c-1.34-0.08-2.62,0.07-3.71,0.97c-0.18,0.15-0.42,0.23-0.64,0.3c-0.25,0.08-0.34,0.26-0.22,0.49c0.03,0.05,0.06,0.09,0.09,0.13
			c0.11,0.11,0.25,0.15,0.41,0.17c0.17,0.02,0.34,0.02,0.51,0.03v0c-0.01,0.01-0.01,0.03-0.02,0.03c-0.79,0.6-1.58,1.21-2.38,1.8
			c-0.29,0.22-0.62,0.33-0.98,0.35h0c-0.23,0.01-0.46-0.01-0.68-0.01c-0.34,0-0.48,0.12-0.54,0.42c0.08,0.01,0.11,0.09,0.12,0.18
			c0.01,0.09-0.01,0.19-0.04,0.23c-0.08,0.1-0.25,0.15-0.4,0.16c-0.05,0-0.1,0-0.14,0c0-0.01,0-0.02,0-0.04
			c-0.04,0.03-0.08,0.05-0.12,0.08c-0.09,0.06-0.13,0.13-0.13,0.2c0,0.07,0.03,0.13,0.11,0.18c0.12,0.09,0.27,0.11,0.42,0.09
			c0.14-0.03,0.27-0.1,0.36-0.22l-0.03,0.06l0.48-0.33h0h0c0,0-0.11,0.24-0.34,0.46c-0.09,0.09-0.2,0.17-0.33,0.24
			c-0.06,0.03-0.13,0.06-0.21,0.08c-0.12,0-0.22-0.02-0.29-0.03c-0.07-0.01-0.11-0.03-0.11-0.03c-0.01,0.04-0.02,0.07-0.04,0.11
			c0,0-0.01,0-0.01,0l0.01,0.01c-0.38,1.16-0.49,1.98-0.45,2.33c0.02,0.12,0.06,0.2,0.12,0.25c0.18,0.15,0.48,0.04,0.48,0.04
			c0.58-0.16,1.1-0.23,1.53-0.25c0.14-0.01,0.27-0.01,0.39-0.01c0.24,0,0.43,0.02,0.56,0.04c0.13,0.02,0.2,0.03,0.2,0.03
			c0.59,0.2,1.14,0.28,1.6,0.3c0.77,0.04,1.27-0.07,1.27-0.07s0.08-0.01,0.2-0.04c0.21-0.04,0.54-0.13,0.86-0.27
			c0.13-0.06,0.25-0.13,0.36-0.21c0.34-0.24,0.57-0.58,0.45-1.07c-0.03-0.21-0.18-0.42-0.35-0.62c-0.1-0.11-0.22-0.23-0.33-0.32
			c-0.16-0.13-0.31-0.24-0.42-0.32c-0.11-0.08-0.19-0.12-0.19-0.12c0.4-0.03,0.81,0.12,1.14,0.38c0.15,0.11,0.27,0.25,0.38,0.4
			c0.13,0.18,0.22,0.38,0.26,0.59c0.04,0.25,0.02,0.51,0.02,0.77c0,0.29-0.13,0.52-0.36,0.67c-0.57,0.36-1.17,0.62-1.83,0.75
			c-0.89,0.11-1.84-0.04-2.78-0.16c-0.94-0.12-1.88-0.22-2.75,0c-0.03,0.01-0.05,0.02-0.07,0.03c-0.07,0.06-0.07,0.16-0.02,0.23
			c0.02,0.03,0.06,0.06,0.1,0.07c0.02,0,0.05,0,0.07,0c0.13-0.03,0.27-0.06,0.41-0.08c0.03,0,0.06-0.01,0.09-0.01
			c0.11-0.01,0.22-0.03,0.33-0.03c0.02,0,0.04,0,0.06,0c0.12-0.01,0.24-0.01,0.36-0.01c0,0,0,0,0,0c1.81,0.01,3.75,0.74,5.42-0.04
			l0,0c0.03-0.01,0.06-0.02,0.09-0.04c0.2,0.01,0.4,0.02,0.61,0.04c-0.11,0.11-0.22,0.24-0.36,0.34c-0.11,0.08-0.26,0.12-0.4,0.16
			c-0.09,0.03-0.16,0.08-0.12,0.18c0.07,0.17,0.07,0.32-0.06,0.47c0.12-0.02,0.24-0.02,0.33-0.07c0.36-0.2,0.72-0.4,1.07-0.62
			c0.14-0.09,0.3-0.2,0.39-0.34c0.24-0.39,0.44-0.81,0.66-1.21c0.03-0.05,0.07-0.11,0.12-0.13c0.11-0.05,0.23-0.07,0.35-0.1
			c0.1,0.18,0.2,0.37,0.19,0.56c0,0.01,0,0.01,0,0.02c0,0.07-0.02,0.14-0.05,0.21c-0.13,0.29-0.33,0.52-0.7,0.46
			c-0.01,0-0.01,0-0.02,0c-0.13,0.01-0.22,0.05-0.26,0.2c-0.02,0.06-0.01,0.11,0,0.15c0.02,0.05,0.06,0.09,0.13,0.13
			c0.08,0.04,0.16,0.09,0.23,0.14c0.05,0.03,0.09,0.05,0.14,0.08c0.09,0.05,0.18,0.09,0.27,0.12c0.09,0.03,0.18,0.05,0.28,0.06
			c0.19,0.01,0.37-0.02,0.57-0.12c0.98-0.5,1.82-1.17,2.34-2.15c0.06-0.12,0.13-0.24,0.19-0.37c0.06-0.13,0.11-0.25,0.16-0.38
			c0.09-0.26,0.15-0.53,0.15-0.81c0-0.02,0-0.03,0-0.05c-0.01-0.41-0.08-0.82-0.13-1.24c0.03,0.06,0.06,0.11,0.09,0.15
			c0.11,0.13,0.26,0.19,0.48,0.13c-0.01,0.15-0.02,0.27-0.03,0.38c-0.01,0.22-0.04,0.44-0.04,0.66c0,0.13,0.01,0.27,0.03,0.4
			c0.01,0.13,0.02,0.27,0.03,0.4c0.01,0.63-0.08,1.24-0.34,1.86c0.04-0.03,0.06-0.04,0.08-0.06c0.02-0.02,0.04-0.03,0.06-0.05
			c-0.06,0.19-0.13,0.37-0.18,0.55c-0.06,0.24-0.1,0.46-0.11,0.68c0,0,0,0.01,0,0.01c-0.01,0.37,0.07,0.73,0.24,1.05
			c0.13,0.24,0.31,0.47,0.55,0.68c0.55,0.48,1.14,0.89,1.77,1.26c0.12,0.07,0.25,0.14,0.39,0.22c-0.09,0.04-0.18,0.07-0.27,0.1
			c-0.09,0.03-0.17,0.06-0.25,0.1c-0.61,0.29-1.24,0.55-1.82,0.9c-0.36,0.22-0.62,0.54-0.79,0.9c-0.06,0.12-0.11,0.25-0.14,0.37
			c-0.08,0.25-0.12,0.51-0.14,0.76c-0.01,0.25,0,0.48,0.04,0.68c0,0.01,0.01,0.01,0.01,0.02c2.59-1.37,4.54-3.76,5.34-6.64
			c-0.18-0.22-0.37-0.43-0.57-0.63c-0.57-0.58-1.13-1.2-1.81-1.65c-0.23-0.15-0.47-0.28-0.73-0.39
			C418.39,416.36,418.55,416.3,418.73,416.25 M405.32,413.77c-0.02-0.18,0.1-0.26,0.23-0.31c0.14-0.05,0.28-0.03,0.37,0.05
			c0.03,0.03,0.06,0.06,0.08,0.1c0.01,0.02,0.01,0.04,0.02,0.06c0.08,0.19,0.05,0.4-0.08,0.52c-0.06,0.05-0.12,0.08-0.18,0.08
			c-0.03,0-0.07-0.01-0.1-0.02c-0.03-0.02-0.07-0.04-0.1-0.07c0.06-0.01,0.1-0.02,0.17-0.04c-0.12-0.08-0.18-0.17-0.17-0.29
			c0-0.04,0.02-0.08,0.04-0.13c-0.05,0.01-0.1,0.01-0.15,0.02S405.36,413.77,405.32,413.77z M405.11,412.91L405.11,412.91
			C405.11,412.91,405.11,412.91,405.11,412.91L405.11,412.91C405.11,412.91,405.11,412.91,405.11,412.91 M406.1,414.96
			c-0.17,0.02-0.32,0.01-0.45-0.01c-0.13-0.02-0.24-0.06-0.33-0.1c-0.18-0.09-0.3-0.21-0.37-0.33c-0.09-0.14-0.11-0.26-0.11-0.26
			l0.01-0.05c0.09,0.14,0.23,0.26,0.4,0.33c0.1,0.04,0.2,0.08,0.33,0.09c0.12,0.01,0.23,0.02,0.34,0.01
			c0.22-0.01,0.44-0.06,0.64-0.17c0.1-0.06,0.2-0.13,0.3-0.21c0,0.21,0.06,0.36,0.19,0.45C406.67,414.86,406.35,414.93,406.1,414.96
			 M406.72,413.21c-0.13-0.22-0.32-0.36-0.54-0.45c-0.11-0.04-0.23-0.08-0.35-0.1c0.11,0,0.22-0.01,0.33-0.02c0.05,0,0.11,0,0.16,0
			c0.05,0,0.1,0.01,0.15,0.03c0.09,0.03,0.18,0.05,0.26,0.05c0.09,0.01,0.17,0,0.25-0.01c0.08-0.01,0.16-0.03,0.24-0.06
			c0.08-0.03,0.16-0.06,0.24-0.1c0.05-0.02,0.1-0.04,0.15-0.07C407.32,412.73,407.02,412.97,406.72,413.21 M410.76,410.99
			c0,0,0,0.55-0.47,0.55c-0.25-0.03-0.38-0.24-0.35-0.37c-0.1,0.05-0.24,0.14-0.42,0.3c0,0,0.51-1,1.5-0.53
			C411.03,410.94,410.89,410.96,410.76,410.99"/>
	</g>
	<g>
		<path class="st15" d="M404.73,422.12c0.05,0.53,0.17,1.04,0.34,1.54c0.04,0.13,0.09,0.26,0.14,0.39c0.04,0.11,0.08,0.23,0.13,0.34
			c0.05,0.12,0.1,0.24,0.16,0.35c0.14,0.31,0.28,0.61,0.42,0.92c0.02-0.01,0.04-0.01,0.06-0.02c0.01-0.03,0.02-0.07,0.03-0.1
			c0.3-0.9,0.57-1.8,0.9-2.68c0.03-0.08,0.05-0.15,0.06-0.22c0.02-0.14-0.01-0.25-0.07-0.36c-0.03-0.05-0.08-0.1-0.13-0.15
			c-0.06-0.05-0.13-0.09-0.21-0.13c-0.08-0.03-0.16-0.06-0.24-0.09c-0.03-0.01-0.07-0.02-0.11-0.02c-0.04,0-0.07,0-0.12-0.01h0
			c0.28-0.15,0.56-0.21,0.85-0.2c0.09,0,0.19,0.01,0.28,0.03c0.12,0.02,0.18,0,0.23-0.12c0.28-0.62,0.57-1.23,0.86-1.84
			c0.03-0.06,0.06-0.13,0.11-0.24c-0.28-0.02-0.55-0.04-0.82-0.06c-0.03,0-0.06,0-0.09-0.01c-0.28-0.02-0.55-0.03-0.83-0.02
			c-0.5,0.01-0.68,0.03-0.87,0.2c-0.08,0.06-0.15,0.15-0.25,0.27c-0.05,0.06-0.11,0.13-0.17,0.21c-0.37,0.45-0.59,0.93-0.64,1.47
			C404.71,421.75,404.71,421.93,404.73,422.12"/>
	</g>
	<g>
		<path class="st15" d="M407.97,421.58c-0.04,0.18,0.05,0.26,0.33,0.38l3.28,0.87c0.59,0.15,1.18,0.29,1.79,0.3
			c0.31,0,0.59-0.03,0.84-0.12c0.17-0.06,0.32-0.14,0.46-0.26c0.21-0.17,0.37-0.39,0.5-0.7c0-0.01,0.01-0.02,0.02-0.03
			c0.51-0.88,0.62-1.86,0.68-2.85c0.01-0.18,0.03-0.35,0.14-0.51c0.07-0.1,0.08-0.23,0.14-0.39c-0.03,0.02-0.04,0.03-0.05,0.04
			c-0.01,0.01-0.02,0.01-0.02,0.02c-0.32,0.45-0.76,0.7-1.28,0.83c-0.08,0.02-0.15,0.07-0.21,0.12c-0.41,0.34-0.81,0.7-1.24,1.01
			c-0.26,0.19-0.53,0.34-0.81,0.45c-0.28,0.11-0.57,0.18-0.86,0.23c-0.29,0.05-0.59,0.06-0.89,0.06c-0.01,0-0.01,0-0.02,0
			c-0.28,0-0.57-0.02-0.86-0.06c-0.01,0-0.03,0-0.04,0c-0.01,0-0.02,0-0.03,0c-0.12-0.01-0.24-0.03-0.36-0.06
			c-0.19-0.05-0.36-0.12-0.51-0.23c-0.15-0.11-0.28-0.27-0.36-0.49c-0.19,0.4-0.37,0.78-0.55,1.16
			C408.01,421.44,407.98,421.52,407.97,421.58"/>
	</g>
	<g>
		<path class="st15" d="M407.92,423.02c-0.12,0.06-0.24,0.14-0.34,0.23c-0.1,0.09-0.2,0.21-0.29,0.34
			c-0.17,0.26-0.33,0.53-0.44,0.82c-0.09,0.25-0.18,0.5-0.26,0.76c-0.08,0.25-0.15,0.51-0.21,0.77c1.39,0.66,2.94,1.04,4.59,1.04
			c1.28,0,2.51-0.24,3.65-0.65c-0.3-1.06-0.94-1.84-1.95-2.37c-0.62-0.32-1.25-0.57-1.9-0.75c-0.65-0.18-1.32-0.29-2.01-0.34
			C408.45,422.85,408.16,422.9,407.92,423.02"/>
	</g>
	<g>
		<path class="st11" d="M405.23,425.31c-0.2-0.4-0.38-0.81-0.52-1.23c-0.16-0.46-0.29-0.93-0.38-1.42"/>
	</g>
	<g>
		<path class="st15" d="M405.77,425.78c-2.79-1.93-5.78-5.76-5.78-9.58c0-2.19,0.64-4.31,1.86-6.12c0.2-0.3,0.41-0.58,0.63-0.84
			c2.1-2.55,5.2-4.01,8.49-4.01c1.11,0,2.22,0.17,3.27,0.5c1.69,0.53,3.25,1.47,4.51,2.73c0.5,0.5,0.95,1.04,1.34,1.62
			c1.22,1.81,1.86,3.93,1.86,6.12c0,0.93-0.37,2.73-0.41,2.93l-0.4-0.08c0.18-0.89,0.4-2.18,0.4-2.85c0-2.11-0.62-4.14-1.79-5.89
			c-0.38-0.56-0.81-1.08-1.29-1.56c-1.21-1.21-2.72-2.12-4.34-2.63c-1.02-0.32-2.08-0.48-3.15-0.48c-3.17,0-6.15,1.41-8.18,3.86
			c-0.21,0.25-0.41,0.52-0.6,0.8c-1.17,1.74-1.79,3.78-1.79,5.89c0,3.68,2.91,7.37,5.61,9.25L405.77,425.78z"/>
	</g>
	<g>
		<path class="st11" d="M404.33,422.65c-0.04-0.23-0.07-0.46-0.08-0.69c-0.01-0.23,0-0.46,0.04-0.69c0.04-0.31,0.15-0.58,0.29-0.84
			c0.14-0.26,0.32-0.5,0.5-0.73c0.04-0.05,0.08-0.1,0.13-0.15c0,0,0-0.01,0.01-0.04c-0.49-0.06-0.84-0.3-1.02-0.75
			c-0.08-0.19-0.22-0.27-0.39-0.32c-0.06-0.01-0.11-0.02-0.17-0.03c-0.1-0.01-0.2-0.01-0.3-0.02c-0.19-0.03-0.32-0.13-0.38-0.29
			c-0.02-0.05-0.03-0.11-0.03-0.18c0-0.09-0.01-0.16-0.12-0.18c-0.18-0.03-0.32-0.09-0.43-0.17c-0.06-0.04-0.11-0.09-0.15-0.14
			c-0.05-0.06-0.09-0.14-0.13-0.21c-0.07-0.16-0.1-0.34-0.09-0.52c0,0,0,0,0,0c0-0.07,0.01-0.13,0.02-0.19
			c0.07-0.4,0.18-0.79,0.26-1.19c0.07-0.33,0.13-0.67,0.2-1c0.07-0.36,0.31-0.62,0.6-0.82c0.08-0.06,0.14-0.12,0.19-0.19
			c0.05-0.07,0.08-0.15,0.1-0.24c0.07-0.33,0.24-0.51,0.51-0.55c0.09-0.01,0.19-0.01,0.3,0c0.08,0.01,0.16,0.03,0.25,0.04
			c0.1,0.01,0.2,0.02,0.29,0.01c0.29-0.01,0.56-0.08,0.8-0.26c0.36-0.26,0.73-0.51,1.08-0.77c0.05-0.03,0.07-0.12,0.07-0.18
			c0.01-0.26-0.01-0.52,0-0.77c0.01-0.15,0.03-0.29,0.07-0.41c0.12-0.37,0.41-0.61,0.84-0.72c0.31-0.08,0.56-0.24,0.78-0.45
			c0.02-0.02,0.03-0.05,0.05-0.07s0.02-0.06,0.01-0.07c-0.09-0.16-0.12-0.3-0.11-0.45c0-0.1,0.03-0.19,0.06-0.28
			c0.05-0.14,0.13-0.27,0.21-0.4c0.03-0.04,0.05-0.08,0.1-0.14c0.06,0.07,0.13,0.13,0.2,0.2c0.2,0.2,0.38,0.4,0.45,0.71
			c0.36-0.08,0.73-0.15,1.09-0.23c0.27-0.06,0.54-0.1,0.81-0.13c0.81-0.06,1.6,0.05,2.38,0.3c0.22,0.07,0.42,0.17,0.62,0.29
			c0.16,0.1,0.32,0.21,0.46,0.34c0.1,0.09,0.2,0.2,0.29,0.3c0.17,0.2,0.34,0.41,0.51,0.61c0.34,0.41,0.67,0.82,1,1.24
			c0.16,0.21,0.32,0.42,0.47,0.64c0.31,0.43,0.6,0.87,0.87,1.33c0.27,0.46,0.52,0.93,0.73,1.42c0.25,0.56,0.47,1.13,0.71,1.69
			c0.04,0.09,0.1,0.18,0.17,0.24c0.74,0.62,1.42,1.28,2.05,2"/>
	</g>
</g>
</svg>
