<?xml version="1.0" standalone="no"?>
<!DOCTYPE svg PUBLIC "-//W3C//DTD SVG 1.1//EN" "http://www.w3.org/Graphics/SVG/1.1/DTD/svg11.dtd" >
<svg xmlns="http://www.w3.org/2000/svg" xmlns:xlink="http://www.w3.org/1999/xlink" version="1.1">
<metadata>
Created by FontForge 20170731 at Thu Jul  5 00:31:16 2012
 By Aleksey,,,
Copyright (c) 2012 by Jeremy Mickel. All rights reserved.
</metadata>
<defs>
<font id="Fort-Extrabold" horiz-adv-x="625" >
  <font-face 
    font-family="Fort Extrabold"
    font-weight="720"
    font-stretch="normal"
    units-per-em="1000"
    panose-1="2 0 0 0 0 0 0 0 0 0"
    ascent="750"
    descent="-250"
    x-height="502"
    cap-height="700"
    bbox="-120 -354 1500 965"
    underline-thickness="50"
    underline-position="-200"
    unicode-range="U+0020-EBA9"
  />
<missing-glyph horiz-adv-x="914" 
d="M110 0v700h694v-700h-694zM395 345l-188 213v-429zM521 345l186 -213v426zM285 613l174 -199l172 199h-346zM455 276l-162 -189h327z" />
    <glyph glyph-name="fi" unicode="fi" horiz-adv-x="722" 
d="M87 0v362h-76v140h76v27q0 104 54.5 155.5t147.5 51.5q92 0 136 -33l-34 -119q-23 15 -56 15q-58 0 -58 -71v-26h125v-140h-125v-362h-190zM470 502h194v-502h-194v502zM460 646q0 95 107 95t107 -95q0 -93 -107 -93t-107 93z" />
    <glyph glyph-name="fl" unicode="fl" horiz-adv-x="722" 
d="M87 0v362h-76v140h76v27q0 103 55.5 155t150.5 52q80 0 127 -36l-34 -119q-28 15 -51 15q-30 0 -44 -16t-14 -52v-26h125v-140h-125v-362h-190zM664 700v-700h-194v700h194z" />
    <glyph glyph-name=".notdef" horiz-adv-x="914" 
d="M110 0v700h694v-700h-694zM395 345l-188 213v-429zM521 345l186 -213v426zM285 613l174 -199l172 199h-346zM455 276l-162 -189h327z" />
    <glyph glyph-name=".null" horiz-adv-x="0" 
 />
    <glyph glyph-name="nonmarkingreturn" horiz-adv-x="333" 
 />
    <glyph glyph-name="space" unicode=" " horiz-adv-x="235" 
 />
    <glyph glyph-name="exclam" unicode="!" horiz-adv-x="270" 
d="M232 701l-29 -472h-136l-29 472h194zM33 86q0 95 102 95t102 -95q0 -46 -26.5 -70t-75.5 -24q-102 0 -102 94z" />
    <glyph glyph-name="quotedbl" unicode="&#x22;" horiz-adv-x="437" 
d="M190 413h-121l-25 302h157zM248 413l-12 302h158l-25 -302h-121z" />
    <glyph glyph-name="numbersign" unicode="#" horiz-adv-x="792" 
d="M71 402l35 128h107l48 170h185l-48 -170h100l48 170h186l-48 -170h108l-35 -128h-108l-28 -97h110l-35 -128h-110l-50 -177h-186l49 177h-98l-49 -177h-187l50 177h-106l36 128h105l28 97h-107zM364 402l-29 -97h100l28 97h-99z" />
    <glyph glyph-name="dollar" unicode="$" horiz-adv-x="609" 
d="M267 -62v62q-169 10 -241 130l121 94q43 -71 120 -83v130l-11 3q-216 49 -216 222q0 88 58 143t169 62v65h83v-67q149 -15 212 -125l-124 -86q-39 53 -88 65v-133l20 -5q120 -28 167.5 -77.5t47.5 -125.5q0 -95 -59.5 -150t-175.5 -62v-62h-83zM210 503q0 -41 57 -61v114
q-57 -8 -57 -53zM408 196q0 35 -58 55v-110q58 11 58 55z" />
    <glyph glyph-name="percent" unicode="%" horiz-adv-x="1087" 
d="M861 422q102 0 150.5 -54.5t48.5 -164.5t-48 -164t-151 -54t-151 54t-48 164t48 164.5t151 54.5zM861 318q-32 0 -47.5 -26t-15.5 -88q0 -63 15.5 -89t47.5 -26t47.5 26t15.5 88q0 63 -15.5 89t-47.5 26zM225 715q102 0 150.5 -54.5t48.5 -164.5t-48 -164t-151 -54
t-151 54t-48 164t48 164.5t151 54.5zM225 611q-32 0 -47.5 -26t-15.5 -88q0 -63 15.5 -89t47.5 -26t47.5 26t15.5 88q0 63 -15.5 89t-47.5 26zM800 700l-350 -700h-166l352 700h164z" />
    <glyph glyph-name="ampersand" unicode="&#x26;" horiz-adv-x="740" 
d="M563 487h154q0 -202 -78 -328q46 -31 87 -55l-84 -127q-4 2 -32 19.5l-52 32.5t-30 19q-94 -63 -236 -63q-122 0 -193 48t-71 144q0 66 31.5 111t89.5 84q-63 87 -63 160q0 88 56 135.5t163 47.5q199 0 199 -155q0 -65 -32.5 -114.5t-101.5 -95.5q58 -53 140 -110
q54 97 53 247zM302 114q52 0 93 26q-101 75 -158 132q-47 -34 -47 -77q0 -37 28.5 -59t83.5 -22zM237 531q0 -38 37 -88q45 28 63.5 49t18.5 48q0 50 -57 50q-62 0 -62 -59z" />
    <glyph glyph-name="quotesingle" unicode="'" horiz-adv-x="244" 
d="M62 413l-18 302h157l-18 -302h-121z" />
    <glyph glyph-name="parenleft" unicode="(" horiz-adv-x="376" 
d="M355 -10l-16 -157q-310 22 -310 447q0 424 305 446l21 -156q-86 -10 -126.5 -75t-40.5 -215q0 -151 40.5 -216t126.5 -74z" />
    <glyph glyph-name="parenright" unicode=")" horiz-adv-x="376" 
d="M37 -167l-16 157q86 9 126.5 74t40.5 216q0 150 -40.5 215t-126.5 75l21 156q305 -22 305 -446q0 -425 -310 -447z" />
    <glyph glyph-name="asterisk" unicode="*" horiz-adv-x="451" 
d="M161 313l-111 89l63 77l-90 25l36 131l95 -31l-7 111h153l-6 -111l96 31l36 -133l-90 -23l63 -77l-112 -89l-63 89z" />
    <glyph glyph-name="plus" unicode="+" horiz-adv-x="512" 
d="M317 110h-122v149h-145v104h145v152h122v-152h145v-104h-145v-149z" />
    <glyph glyph-name="comma" unicode="," horiz-adv-x="270" 
d="M34 -82q67 20 87 76q-89 6 -89 92q0 47 27 71t76 24q105 0 105 -115q0 -90 -43 -148t-124 -78z" />
    <glyph glyph-name="hyphen" unicode="-" horiz-adv-x="500" 
d="M451 411v-148h-401v148h401z" />
    <glyph glyph-name="period" unicode="." horiz-adv-x="270" 
d="M33 86q0 95 102 95t102 -95q0 -46 -26.5 -70t-75.5 -24q-102 0 -102 94z" />
    <glyph glyph-name="slash" unicode="/" horiz-adv-x="584" 
d="M583 700l-368 -700h-213l367 700h214z" />
    <glyph glyph-name="zero" unicode="0" horiz-adv-x="665" 
d="M332 615q142 0 218 -79t76 -236q0 -156 -77 -235.5t-217 -79.5q-142 0 -217.5 79t-75.5 236t75.5 236t217.5 79zM332 463q-53 0 -79.5 -37t-26.5 -125q0 -89 26 -126.5t79 -37.5q54 0 80.5 37.5t26.5 125.5t-26.5 125.5t-79.5 37.5z" />
    <glyph glyph-name="one" unicode="1" horiz-adv-x="405" 
d="M338 0h-194v380l-74 -46l-71 154l211 122h128v-610z" />
    <glyph glyph-name="two" unicode="2" horiz-adv-x="567" 
d="M38 0l-1 118l199 171q58 53 71 74q16 24 16 48q0 51 -63 51q-37 0 -60 -17.5t-44 -57.5l-132 80q39 79 102 113.5t154 34.5q69 0 120.5 -15.5t85.5 -56t34 -103.5q0 -61 -34.5 -113.5t-106.5 -117.5l-82 -74l234 8v-143h-493z" />
    <glyph glyph-name="three" unicode="3" horiz-adv-x="612" 
d="M293 -116q-97 0 -165 34.5t-112 111.5l135 87q26 -46 55.5 -65t72.5 -19q102 0 102 78q0 69 -102 69h-71v139h71q87 0 87 68q0 74 -91 74q-40 0 -63.5 -17.5t-45.5 -56.5l-135 74q41 82 105.5 118t160.5 36q126 0 193.5 -54t67.5 -147q0 -102 -90 -156q102 -49 102 -157
q0 -100 -73 -158.5t-204 -58.5z" />
    <glyph glyph-name="four" unicode="4" horiz-adv-x="682" 
d="M32 36v133l194 431h190l-190 -404h178v245h181v-245h77v-160h-77v-136h-181v136h-372z" />
    <glyph glyph-name="five" unicode="5" horiz-adv-x="601" 
d="M229 449l-10 -113q48 21 116 21q117 0 179 -57.5t62 -167.5q0 -119 -73 -183t-213 -64q-198 0 -281 126l132 97q49 -78 135 -78q52 0 80.5 26t28.5 71q0 48 -28.5 70.5t-75.5 22.5q-71 0 -108 -41l-127 59l31 362h474v-151h-322z" />
    <glyph glyph-name="six" unicode="6" horiz-adv-x="671" 
d="M367 -15q-318 0 -318 362q0 179 78.5 273.5t239.5 94.5q92 0 159.5 -30t96.5 -88l-117 -102q-37 72 -123 72q-77 0 -111.5 -50t-34.5 -160v-20q21 48 65.5 76t108.5 28q100 0 159.5 -56.5t59.5 -162.5q0 -107 -67 -172t-196 -65zM258 219q0 -39 24.5 -63.5t66.5 -24.5
q45 0 70 23t25 65q0 41 -22 64.5t-68 23.5q-41 0 -68.5 -23t-27.5 -65z" />
    <glyph glyph-name="seven" unicode="7" horiz-adv-x="549" 
d="M132 -100q0 164 58.5 302t157.5 234l-329 -7v171h528v-130q-104 -131 -151.5 -256t-48.5 -314h-215z" />
    <glyph glyph-name="eight" unicode="8" horiz-adv-x="661" 
d="M330 -15q-284 0 -284 212q0 127 114 169q-88 46 -88 149q0 200 258 200q130 0 195 -48.5t65 -151.5q0 -102 -89 -149q114 -43 114 -169q0 -212 -285 -212zM425 200q0 38 -25 59.5t-67 21.5q-45 0 -71 -21.5t-26 -59.5q0 -40 25.5 -60.5t69.5 -20.5q43 0 68.5 21t25.5 60z
M417 504q0 34 -22.5 53.5t-61.5 19.5q-42 0 -65.5 -19.5t-23.5 -53.5t23 -53.5t64 -19.5q40 0 63 19.5t23 53.5z" />
    <glyph glyph-name="nine" unicode="9" horiz-adv-x="670" 
d="M305 -115q-204 0 -266 107l113 104q40 -63 137 -63q77 0 112 49t35 158v19q-21 -50 -65.5 -79t-108.5 -29q-101 0 -160.5 59t-59.5 168q0 108 67 172.5t197 64.5q155 0 236.5 -90t81.5 -272q0 -178 -79 -273t-240 -95zM411 378q0 39 -24.5 63.5t-66.5 24.5
q-43 0 -67.5 -23.5t-24.5 -66.5q0 -41 21.5 -64t65.5 -23q41 0 68.5 23.5t27.5 65.5z" />
    <glyph glyph-name="colon" unicode=":" horiz-adv-x="270" 
d="M33 86q0 95 102 95t102 -95q0 -46 -26.5 -70t-75.5 -24q-102 0 -102 94zM33 408q0 95 102 95t102 -95q0 -46 -26.5 -70t-75.5 -24q-102 0 -102 94z" />
    <glyph glyph-name="semicolon" unicode=";" horiz-adv-x="270" 
d="M34 -82q67 20 87 76q-89 6 -89 92q0 47 27 71t76 24q105 0 105 -115q0 -90 -43 -148t-124 -78zM33 408q0 95 102 95t102 -95q0 -46 -26.5 -70t-75.5 -24q-102 0 -102 94z" />
    <glyph glyph-name="less" unicode="&#x3c;" horiz-adv-x="507" 
d="M364 550l68 -89l-211 -150l214 -150l-71 -93l-291 206v69z" />
    <glyph glyph-name="equal" unicode="=" horiz-adv-x="512" 
d="M462 285v-104h-412v104h412zM462 437v-104h-412v104h412z" />
    <glyph glyph-name="greater" unicode="&#x3e;" horiz-adv-x="507" 
d="M145 68l-68 89l212 149l-215 151l71 93l291 -207v-68z" />
    <glyph glyph-name="question" unicode="?" horiz-adv-x="524" 
d="M176 229l-9 185h65q103 0 103 88q0 36 -25.5 57.5t-77.5 21.5q-42 0 -71 -19t-50 -66l-115 74q75 154 261 154q250 0 250 -211q0 -94 -49 -146.5t-132 -61.5l-7 -76h-143zM141 86q0 95 102 95t102 -95q0 -46 -26.5 -70t-75.5 -24q-102 0 -102 94z" />
    <glyph glyph-name="at" unicode="@" horiz-adv-x="814" 
d="M684 -7q-95 -101 -269 -101q-167 0 -261 95t-94 255t94 254.5t261 94.5q161 0 249.5 -89.5t88.5 -242.5q0 -89 -46.5 -137t-129.5 -48q-81 0 -106 51q-35 -58 -116 -58q-53 0 -85.5 27t-32.5 74q0 58 42 87t111 29h59q-4 47 -68 47q-63 0 -94 -36l-44 72q53 61 160 61
q171 0 171 -150v-88q0 -51 42 -51q35 0 56 30.5t21 89.5q0 136 -75.5 206.5t-202.5 70.5q-134 0 -214 -75t-80 -219t80 -218.5t214 -74.5q149 0 228 86zM389 145q28 0 43.5 17t16.5 46v7h-49q-51 0 -51 -36q0 -34 40 -34z" />
    <glyph glyph-name="A" unicode="A" horiz-adv-x="721" 
d="M508 0l-29 94h-244l-28 -94h-200l233 700h241l233 -700h-206zM357 502l-78 -258h156z" />
    <glyph glyph-name="B" unicode="B" horiz-adv-x="721" 
d="M84 0v700h377q104 0 156.5 -51t52.5 -138q0 -48 -23.5 -86t-65.5 -58q53 -16 79 -61t26 -104q0 -202 -235 -202h-367zM423 279h-144v-135h138q72 0 72 69q0 30 -16.5 48t-49.5 18zM411 553h-132v-133h130q32 0 49 18.5t17 47.5q0 31 -17.5 49t-46.5 18z" />
    <glyph glyph-name="C" unicode="C" horiz-adv-x="714" 
d="M394 -15q-177 0 -262 90.5t-85 275.5q0 187 88 275.5t267 88.5q223 0 289 -171l-162 -78q-22 47 -50.5 65t-79.5 18q-75 0 -112 -45t-37 -157q0 -110 37.5 -155.5t113.5 -45.5q97 0 133 90l164 -75q-75 -176 -304 -176z" />
    <glyph glyph-name="D" unicode="D" horiz-adv-x="775" 
d="M286 160h86q75 0 114.5 45t39.5 147q0 188 -137 188h-103v-380zM388 0h-304v700h320q168 0 246.5 -84t78.5 -261q0 -355 -341 -355z" />
    <glyph glyph-name="E" unicode="E" horiz-adv-x="693" 
d="M84 0v700h553v-155h-356v-113h306v-157h-306v-119h366v-156h-563z" />
    <glyph glyph-name="F" unicode="F" horiz-adv-x="635" 
d="M84 0v700h543v-161h-341v-124h292v-165h-292v-250h-202z" />
    <glyph glyph-name="G" unicode="G" horiz-adv-x="754" 
d="M365 -15q-150 0 -234 92.5t-84 273.5q0 186 88 275t267 89q218 0 282 -159l-162 -82q-21 42 -47.5 58.5t-74.5 16.5q-77 0 -113.5 -45.5t-36.5 -154.5q0 -112 38 -158t116 -46q48 0 82 24.5t40 73.5h-122v148h303v-391h-137l-12 79q-58 -94 -193 -94z" />
    <glyph glyph-name="H" unicode="H" horiz-adv-x="825" 
d="M538 0v263h-252v-263h-202v700h202v-266h252v266h202v-700h-202z" />
    <glyph glyph-name="I" unicode="I" horiz-adv-x="371" 
d="M84 0v700h202v-700h-202z" />
    <glyph glyph-name="J" unicode="J" horiz-adv-x="561" 
d="M196 -15q-124 0 -204 69l79 137q50 -44 118 -44q102 0 102 119v434h202v-436q0 -146 -79.5 -212.5t-217.5 -66.5z" />
    <glyph glyph-name="K" unicode="K" horiz-adv-x="759" 
d="M84 0v700h202l-1 -298l231 298h237l-257 -310l251 -390h-243l-147 244l-71 -80v-164h-202z" />
    <glyph glyph-name="L" unicode="L" horiz-adv-x="652" 
d="M287 166h340v-166h-543v700h203v-534z" />
    <glyph glyph-name="M" unicode="M" horiz-adv-x="1003" 
d="M426 0l-168 386l8 -386h-182v700h216l199 -470l197 470h222v-700h-189l9 403l-172 -403h-140z" />
    <glyph glyph-name="N" unicode="N" horiz-adv-x="821" 
d="M567 0l-298 382l5 -382h-190v700h150l317 -415l-4 415h190v-700h-170z" />
    <glyph glyph-name="O" unicode="O" horiz-adv-x="798" 
d="M47 351q0 183 87 273.5t266 90.5q184 0 268 -90t84 -275q0 -183 -87.5 -274t-266.5 -91q-182 0 -266.5 90.5t-84.5 275.5zM250 349q0 -107 36.5 -153.5t111.5 -46.5q76 0 112 46.5t36 155.5q0 107 -36 153t-111 46q-77 0 -113 -46t-36 -155z" />
    <glyph glyph-name="P" unicode="P" horiz-adv-x="715" 
d="M84 0v700h355q121 0 185 -70.5t64 -189.5q0 -121 -73.5 -187.5t-199.5 -66.5h-129v-186h-202zM400 531h-114v-183h115q42 0 65 25t23 70q0 37 -22 62.5t-67 25.5z" />
    <glyph glyph-name="Q" unicode="Q" horiz-adv-x="797" 
d="M626 43l76 -129h-170l-46 77q-40 -6 -88 -6q-182 0 -266.5 90.5t-84.5 275.5q0 183 87 273.5t266 90.5q184 0 268 -90t84 -275q0 -220 -126 -307zM250 347q0 -109 35.5 -156t110.5 -47l-61 104h172l18 -32q22 47 22 133q0 111 -36 158.5t-112 47.5q-77 0 -113 -47.5
t-36 -160.5z" />
    <glyph glyph-name="R" unicode="R" horiz-adv-x="733" 
d="M84 0v700h373q116 0 177.5 -65t61.5 -175q0 -149 -109 -209l114 -251h-221l-88 213h-110v-213h-198zM416 536h-134v-165h131q39 0 60.5 22t21.5 62q0 36 -19.5 58.5t-59.5 22.5z" />
    <glyph glyph-name="S" unicode="S" horiz-adv-x="641" 
d="M588 582l-129 -91q-27 38 -58 56t-79 18q-95 0 -95 -58q0 -25 22 -41t73 -29l61 -15q122 -30 171 -83.5t49 -135.5q0 -102 -77 -160t-221 -58q-213 0 -285 136l123 96q27 -48 65 -69t96 -21q110 0 110 67q0 23 -17 35.5t-65 24.5l-64 16q-222 56 -222 228q0 99 71 158
t206 59q195 0 265 -133z" />
    <glyph glyph-name="T" unicode="T" horiz-adv-x="645" 
d="M15 700h615v-170h-207v-530h-201v530h-207v170z" />
    <glyph glyph-name="U" unicode="U" horiz-adv-x="781" 
d="M512 279v421h201v-410q0 -160 -82 -232.5t-239 -72.5q-161 0 -242.5 73t-81.5 232v410h201v-421q0 -63 31.5 -95.5t90.5 -32.5t90 32.5t31 95.5z" />
    <glyph glyph-name="V" unicode="V" horiz-adv-x="719" 
d="M6 700h210l146 -480l148 480h203l-237 -700h-234z" />
    <glyph glyph-name="W" unicode="W" horiz-adv-x="997" 
d="M415 699h172l106 -427l101 428h198l-196 -700h-198l-101 419l-103 -419h-193l-195 700h205l97 -424z" />
    <glyph glyph-name="X" unicode="X" horiz-adv-x="727" 
d="M482 0l-130 214l-128 -214h-217l234 352l-222 348h237l119 -218l117 218h217l-227 -343l238 -357h-238z" />
    <glyph glyph-name="Y" unicode="Y" horiz-adv-x="718" 
d="M258 251l-251 449h224l135 -275l133 275h212l-251 -455v-245h-202v251z" />
    <glyph glyph-name="Z" unicode="Z" horiz-adv-x="634" 
d="M21 0v120l332 423l-320 -4v161h567v-118l-330 -425l339 4v-161h-588z" />
    <glyph glyph-name="bracketleft" unicode="[" horiz-adv-x="367" 
d="M60 -174v891h286v-139h-112v-613h113v-139h-287z" />
    <glyph glyph-name="backslash" unicode="\" horiz-adv-x="586" 
d="M369 0l-367 700h212l367 -700h-212z" />
    <glyph glyph-name="bracketright" unicode="]" horiz-adv-x="367" 
d="M307 717v-891h-287v139h113v613h-112v139h286z" />
    <glyph glyph-name="asciicircum" unicode="^" horiz-adv-x="520" 
d="M172 700h176l147 -339v-4h-156l-83 211l-82 -211h-149v4z" />
    <glyph glyph-name="underscore" unicode="_" horiz-adv-x="480" 
d="M485 0v-146h-490v146h490z" />
    <glyph glyph-name="grave" unicode="`" horiz-adv-x="600" 
d="M243 570l-136 134v7h206l81 -136v-5h-151z" />
    <glyph glyph-name="a" unicode="a" horiz-adv-x="589" 
d="M200 -14q-77 0 -122.5 38.5t-45.5 107.5q0 84 62.5 128.5t164.5 44.5h86q-5 70 -92 70q-93 0 -144 -54l-66 107q79 88 242 88q251 0 251 -219v-297h-163l-12 67q-51 -81 -161 -81zM264 101q38 0 60 24t22 67v13h-63q-79 0 -79 -56q0 -48 60 -48z" />
    <glyph glyph-name="b" unicode="b" horiz-adv-x="642" 
d="M251 700v-263q52 79 157 79q94 0 147 -65t53 -190q0 -128 -58 -202t-168 -74q-115 0 -170 81l-10 -66h-145v700h194zM247 247q0 -61 23 -91.5t65 -30.5q88 0 88 123q0 125 -87 125q-89 0 -89 -126z" />
    <glyph glyph-name="c" unicode="c" horiz-adv-x="546" 
d="M297 -15q-125 0 -194 64.5t-69 200.5q0 266 272 266q159 0 222 -111l-132 -96q-26 55 -86 55q-46 0 -68.5 -25.5t-22.5 -89.5q0 -121 89 -121q72 0 94 58l131 -75q-67 -126 -236 -126z" />
    <glyph glyph-name="d" unicode="d" horiz-adv-x="641" 
d="M423 0l-10 73q-52 -88 -168 -88q-97 0 -154.5 66.5t-57.5 191.5q0 132 60.5 202.5t160.5 70.5q89 0 137 -61v245h194v-700h-162zM394 250q0 125 -91 125q-84 0 -84 -126q0 -121 85 -121q41 0 65.5 31t24.5 91z" />
    <glyph glyph-name="e" unicode="e" horiz-adv-x="580" 
d="M305 -15q-127 0 -199.5 66t-72.5 195q0 126 70 198t195 72q126 0 186.5 -71.5t60.5 -187.5q0 -30 -4 -58h-326q13 -86 107 -86q70 0 100 52l112 -71q-63 -109 -229 -109zM296 384q-34 0 -56 -21t-26 -61h156q-5 82 -74 82z" />
    <glyph glyph-name="f" unicode="f" horiz-adv-x="412" 
d="M11 502h76v27q0 103 55.5 155t149.5 52q93 0 136 -33l-34 -119q-22 15 -55 15q-62 0 -62 -71v-26h125v-140h-125v-362h-190v362h-76v140z" />
    <glyph glyph-name="g" unicode="g" horiz-adv-x="638" 
d="M582 502v-474q0 -123 -81 -187t-215 -64q-80 0 -144 25.5t-92 79.5l102 94q41 -65 125 -65q111 0 111 113v62q-46 -78 -148 -78q-95 0 -151.5 64t-56.5 187q0 126 60 191.5t161 65.5q111 0 159 -83l14 69h156zM390 263q0 54 -24 83t-65 29q-85 0 -85 -113q0 -116 85 -116
q42 0 65.5 30.5t23.5 86.5z" />
    <glyph glyph-name="h" unicode="h" horiz-adv-x="654" 
d="M251 700v-287q55 103 170 103q90 0 135 -54.5t45 -145.5v-316h-194v247q0 56 -17 78t-55 22t-60.5 -26t-23.5 -77v-244h-194v700h194z" />
    <glyph glyph-name="i" unicode="i" horiz-adv-x="309" 
d="M58 502h194v-502h-194v502zM47 646q0 95 108 95q106 0 106 -95q0 -93 -106 -93q-108 0 -108 93z" />
    <glyph glyph-name="j" unicode="j" horiz-adv-x="309" 
d="M58 -13v515h194v-525q0 -99 -57.5 -149.5t-155.5 -50.5q-73 0 -122 26l31 122q21 -11 50 -11q32 0 46 17t14 56zM47 646q0 95 108 95q106 0 106 -95q0 -93 -106 -93q-108 0 -108 93z" />
    <glyph glyph-name="k" unicode="k" horiz-adv-x="614" 
d="M57 0v700h194l-6 -407l158 209h205l-183 -222l186 -280h-211l-101 156l-51 -58v-98h-191z" />
    <glyph glyph-name="l" unicode="l" horiz-adv-x="309" 
d="M252 700v-700h-194v700h194z" />
    <glyph glyph-name="m" unicode="m" horiz-adv-x="964" 
d="M57 0v502h158l16 -85q28 47 73 73t99 26q120 0 154 -113q25 54 71 83.5t107 29.5q89 0 132 -53.5t43 -144.5v-318h-194v255q0 48 -14 69.5t-45 21.5q-34 0 -55 -24t-21 -72v-250h-194v254q0 49 -15 70.5t-47 21.5q-33 0 -53 -24t-21 -72v-250h-194z" />
    <glyph glyph-name="n" unicode="n" horiz-adv-x="654" 
d="M57 502h159l15 -89q60 103 183 103q95 0 141 -54t46 -146v-316h-194v247q0 56 -17 78t-55 22t-60.5 -26t-23.5 -77v-244h-194v502z" />
    <glyph glyph-name="o" unicode="o" horiz-adv-x="616" 
d="M399 250q0 64 -21.5 93.5t-69.5 29.5q-49 0 -70.5 -29.5t-21.5 -93.5q0 -65 22 -95t70 -30q47 0 69 30t22 95zM34 251q0 133 71.5 199t202.5 66q138 0 206 -64.5t68 -200.5q0 -131 -70 -198.5t-204 -67.5q-274 0 -274 266z" />
    <glyph glyph-name="p" unicode="p" horiz-adv-x="642" 
d="M57 502h160l15 -86q28 48 74.5 74t99.5 26q98 0 150 -66t52 -190q0 -127 -58 -201t-171 -74q-82 0 -128 49v-220h-194v688zM247 247q0 -60 23.5 -91t63.5 -31q89 0 89 123q0 125 -88 125t-88 -126z" />
    <glyph glyph-name="q" unicode="q" horiz-adv-x="642" 
d="M585 -186h-194v236q-51 -65 -143 -65q-99 0 -156.5 66t-57.5 191q0 136 60 205t162 69q113 0 160 -83l13 69h156v-688zM395 250q0 125 -91 125q-84 0 -84 -125q0 -122 84 -122q42 0 66.5 31t24.5 91z" />
    <glyph glyph-name="r" unicode="r" horiz-adv-x="427" 
d="M57 0v502h159l16 -97q26 53 71.5 83t102.5 30l2 -184q-77 5 -116.5 -37t-40.5 -118v-179h-194z" />
    <glyph glyph-name="s" unicode="s" horiz-adv-x="510" 
d="M243 106q64 0 64 30q0 14 -13 21.5t-46 14.5l-42 10q-167 39 -167 170q0 74 55.5 119t165.5 45q153 0 220 -89l-90 -92q-45 54 -125 54q-61 0 -61 -30q0 -26 58 -38l58 -13q157 -35 157 -156q0 -71 -57 -118.5t-178 -47.5q-169 0 -234 92l84 90q45 -62 151 -62z" />
    <glyph glyph-name="t" unicode="t" horiz-adv-x="432" 
d="M13 502h71v140h190v-140h129v-140h-129v-173q0 -67 64 -67q35 0 62 14l25 -115q-61 -36 -144 -36q-197 0 -197 185v192h-71v140z" />
    <glyph glyph-name="u" unicode="u" horiz-adv-x="650" 
d="M435 0l-15 83q-27 -47 -72.5 -72.5t-101.5 -25.5q-98 0 -145.5 52.5t-47.5 138.5v326h194v-267q0 -47 17 -69t54 -22q34 0 57 26.5t24 75.5v256h193v-502h-157z" />
    <glyph glyph-name="v" unicode="v" horiz-adv-x="595" 
d="M7 502h200l95 -301l88 301h198l-192 -502h-198z" />
    <glyph glyph-name="w" unicode="w" horiz-adv-x="813" 
d="M337 501h145l83 -276l70 277h173l-155 -502h-167l-79 285l-79 -285h-166l-157 502h178l73 -275z" />
    <glyph glyph-name="x" unicode="x" horiz-adv-x="588" 
d="M16 502h209l78 -137l77 137h193l-169 -252l181 -250h-210l-88 137l-90 -137h-193l182 254z" />
    <glyph glyph-name="y" unicode="y" horiz-adv-x="595" 
d="M189 -29l10 31l-194 500h200l96 -293l90 293h199l-230 -594q-51 -130 -220 -130q-70 0 -121 22l17 134q39 -18 76 -18q58 0 77 55z" />
    <glyph glyph-name="z" unicode="z" horiz-adv-x="519" 
d="M27 0v106l230 256h-226v140h451v-112l-227 -251h236v-139h-464z" />
    <glyph glyph-name="braceleft" unicode="{" horiz-adv-x="396" 
d="M352 -166q-100 2 -163.5 46.5t-63.5 122.5q0 24 3.5 65.5t3.5 61.5q0 82 -108 82h-21v138h21q108 0 108 82q0 20 -3.5 61.5t-3.5 65.5q0 78 63.5 122.5t163.5 46.5l23 -152q-44 1 -67.5 -20t-23.5 -62q0 -17 3.5 -50.5t3.5 -52.5q0 -71 -82 -110q82 -41 82 -110
q0 -18 -3.5 -52t-3.5 -51q0 -41 23.5 -62t67.5 -20z" />
    <glyph glyph-name="bar" unicode="|" horiz-adv-x="324" 
d="M75 -65v831h175v-831h-175z" />
    <glyph glyph-name="braceright" unicode="}" horiz-adv-x="396" 
d="M43 -166l-23 152q44 -1 67.5 20t23.5 62q0 17 -3.5 51t-3.5 52q0 69 82 110q-82 39 -82 110q0 19 3.5 52.5t3.5 50.5q0 41 -23.5 62t-67.5 20l23 152q100 -2 163.5 -46.5t63.5 -122.5q0 -24 -3.5 -65.5t-3.5 -61.5q0 -82 108 -82h21v-138h-21q-108 0 -108 -82
q0 -20 3.5 -61.5t3.5 -65.5q0 -78 -63.5 -122.5t-163.5 -46.5z" />
    <glyph glyph-name="asciitilde" unicode="~" horiz-adv-x="576" 
d="M422 430l129 -21q-6 -82 -49 -126t-111 -44q-42 0 -104.5 25t-87.5 25q-41 0 -45 -50l-129 21q6 82 49.5 126t111.5 44q42 0 104 -25t87 -25q41 0 45 50z" />
    <glyph glyph-name="nbspace" unicode="&#xa0;" horiz-adv-x="176" 
 />
    <glyph glyph-name="exclamdown" unicode="&#xa1;" horiz-adv-x="270" 
d="M38 -189l29 472h136l29 -472h-194zM237 426q0 -95 -102 -95t-102 95q0 46 26.5 70t75.5 24q102 0 102 -94z" />
    <glyph glyph-name="cent" unicode="&#xa2;" horiz-adv-x="551" 
d="M263 -62v65q-221 17 -221 254t221 257v66h84v-66q123 -13 174 -111l-116 -79q-22 38 -58 47v-229q43 10 61 52l120 -64q-52 -109 -181 -126v-66h-84zM207 255q0 -93 56 -111v225q-56 -17 -56 -114z" />
    <glyph glyph-name="sterling" unicode="&#xa3;" horiz-adv-x="649" 
d="M29 0v153h30q41 0 38 84l-2 43h-66v119h62l-3 79q-2 68 20.5 116.5t64 73.5t87 36t100.5 11q94 0 151.5 -33t99.5 -113l-131 -92q-21 40 -46 59.5t-65 19.5q-92 0 -87 -100l2 -57h146v-119h-139l1 -45q3 -59 -11 -83h131q79 0 137 58l83 -120q-42 -52 -94.5 -71
t-128.5 -19h-380z" />
    <glyph glyph-name="yen" unicode="&#xa5;" horiz-adv-x="718" 
d="M631 292v-88h-170v-204h-203v204h-168v88h145l-23 40h-122v88h74l-157 280h224l135 -275l133 275h212l-155 -280h75v-88h-124l-22 -40h146z" />
    <glyph glyph-name="brokenbar" unicode="&#xa6;" horiz-adv-x="324" 
d="M75 381v385h175v-385h-175zM75 -65v385h175v-385h-175z" />
    <glyph glyph-name="section" unicode="&#xa7;" horiz-adv-x="519" 
d="M247 -37q-152 0 -216 84l90 88q46 -54 122 -54q68 0 68 39q0 29 -65 43l-33 8q-171 42 -171 168q0 73 57 107q-48 40 -48 104q0 75 54 120t158 45q133 0 195 -78l-88 -90q-47 45 -105 45q-61 0 -61 -39q0 -28 58 -42l53 -12q83 -19 122.5 -58t39.5 -103q0 -71 -58 -106
q53 -38 53 -105q0 -72 -53.5 -118t-171.5 -46zM329 327q0 39 -63 53l-14 3q-32 7 -49 -4.5t-17 -32.5q0 -39 63 -53l14 -3q32 -7 49 4.5t17 32.5z" />
    <glyph glyph-name="dieresis" unicode="&#xa8;" horiz-adv-x="600" 
d="M97 649q0 83 95 83t95 -83q0 -84 -95 -84t-95 84zM326 649q0 83 96 83q95 0 95 -83q0 -84 -95 -84q-96 0 -96 84z" />
    <glyph glyph-name="copyright" unicode="&#xa9;" horiz-adv-x="830" 
d="M61 350q0 159 94 254t260 95q165 0 259.5 -95t94.5 -254t-94.5 -254.5t-259.5 -95.5q-166 0 -260 95t-94 255zM122 350q0 -144 79.5 -218.5t213.5 -74.5t213.5 74.5t79.5 218.5t-80 219t-213 75t-213 -75t-80 -219zM422 155q-198 0 -198 199q0 203 202 203q118 0 164 -83
l-96 -70q-20 44 -67 44q-39 0 -56.5 -22.5t-17.5 -72.5q0 -49 18 -70.5t56 -21.5q55 0 72 44l95 -55q-48 -95 -172 -95z" />
    <glyph glyph-name="ordfeminine" unicode="&#xaa;" horiz-adv-x="420" 
d="M144 337q-54 0 -86.5 27.5t-32.5 77.5q0 59 45.5 90.5t118.5 31.5h59q-4 50 -65 50q-65 0 -103 -40l-48 78q57 63 175 63q179 0 179 -156v-212h-119l-8 45q-36 -55 -115 -55zM191 422q27 0 42 16t15 45v10h-43q-55 0 -55 -39q0 -32 41 -32z" />
    <glyph glyph-name="guillemotleft" unicode="&#xab;" horiz-adv-x="700" 
d="M232 0l-198 249v3l197 250h186l-199 -249l203 -253h-189zM496 0l-206 252v3l198 247h186l-200 -246l211 -256h-189z" />
    <glyph glyph-name="uni00AD" unicode="&#xad;" horiz-adv-x="412" 
d="M363 411v-148h-313v148h313z" />
    <glyph glyph-name="registered" unicode="&#xae;" horiz-adv-x="473" 
d="M39 521q0 89 52.5 141.5t145.5 52.5t145 -52.5t52 -141.5q0 -88 -52.5 -141t-144.5 -53q-93 0 -145.5 53t-52.5 141zM78 521q0 -78 43.5 -119.5t115.5 -41.5q71 0 114.5 41.5t43.5 119.5t-43.5 119.5t-114.5 41.5q-72 0 -115.5 -41.5t-43.5 -119.5zM152 429v192h101
q34 0 52 -19t18 -53q0 -39 -29 -58l32 -62h-64l-23 49h-28v-49h-59zM238 572h-27v-44h24q30 0 30 23q0 21 -27 21z" />
    <glyph glyph-name="macron" unicode="&#xaf;" horiz-adv-x="600" 
d="M444 685v-101h-306v101h306z" />
    <glyph glyph-name="degree" unicode="&#xb0;" horiz-adv-x="471" 
d="M51 532q0 84 49 133.5t136 49.5t136 -49.5t49 -133.5q0 -83 -49 -133t-136 -50t-136 50t-49 133zM160 532q0 -41 20.5 -62.5t55.5 -21.5q34 0 55 21.5t21 62.5t-21 63t-55 22q-35 0 -55.5 -22t-20.5 -63z" />
    <glyph glyph-name="plusminus" unicode="&#xb1;" horiz-adv-x="512" 
d="M317 153h-122v127h-145v104h145v131h122v-131h145v-104h-145v-127zM462 104v-104h-412v104h412z" />
    <glyph glyph-name="twosuperior" unicode="&#xb2;" horiz-adv-x="391" 
d="M23 294v88l141 118q18 16 26.5 25t16.5 22t8 26q0 34 -44 34q-26 0 -42.5 -11.5t-33.5 -37.5l-90 63q54 94 183 94q167 0 167 -123q0 -77 -86 -151l-47 -42l148 4v-109h-347z" />
    <glyph glyph-name="threesuperior" unicode="&#xb3;" horiz-adv-x="390" 
d="M188 280q-125 0 -177 88l95 59q15 -25 31.5 -34.5t42.5 -9.5q50 0 50 34q0 32 -56 32h-38v91h38q47 0 47 35q0 33 -46 33q-39 0 -61 -41l-96 52q28 51 69.5 73.5t102.5 22.5q81 0 124.5 -33t43.5 -90q0 -59 -55 -92q61 -31 61 -91t-47 -94.5t-129 -34.5z" />
    <glyph glyph-name="acute" unicode="&#xb4;" horiz-adv-x="600" 
d="M484 704l-136 -134h-147v5l84 136h199v-7z" />
    <glyph glyph-name="paragraph" unicode="&#xb6;" horiz-adv-x="692" 
d="M622 700v-700h-145v186h-53v-186h-142v187q-112 8 -182.5 74.5t-70.5 178.5q0 115 69.5 187.5t186.5 72.5h337zM477 542h-53v-208h53v208zM196 443q0 -46 24 -76t62 -30v202q-39 0 -62.5 -28.5t-23.5 -67.5z" />
    <glyph glyph-name="periodcentered" unicode="&#xb7;" horiz-adv-x="270" 
d="M33 339q0 95 102 95t102 -95q0 -46 -26.5 -70t-75.5 -24q-102 0 -102 94z" />
    <glyph glyph-name="cedilla" unicode="&#xb8;" horiz-adv-x="600" 
d="M292 0h90l-19 -45h1q46 -4 77.5 -29t31.5 -67q0 -56 -43 -86.5t-108 -30.5q-107 0 -153 74l60 62q34 -48 86 -48q47 0 47 35q0 15 -14 24.5t-38 9.5q-4 0 -7.5 -0.5t-8 -1.5t-7.5 -1l-27 15z" />
    <glyph glyph-name="onesuperior" unicode="&#xb9;" horiz-adv-x="284" 
d="M234 294h-138v263l-41 -23l-50 102l138 73h91v-415z" />
    <glyph glyph-name="ordmasculine" unicode="&#xba;" horiz-adv-x="434" 
d="M285 526q0 44 -15 64.5t-48 20.5t-47 -20.5t-14 -64.5q0 -45 14.5 -65.5t46.5 -20.5q63 0 63 86zM27 526q0 95 51.5 142t144.5 47q99 0 147.5 -46t48.5 -143q0 -94 -50 -142t-146 -48q-196 0 -196 190z" />
    <glyph glyph-name="guillemotright" unicode="&#xbb;" horiz-adv-x="700" 
d="M468 502l198 -249v-3l-197 -250h-186l199 249l-203 253h189zM204 502l206 -252v-3l-198 -247h-186l200 246l-211 256h189z" />
    <glyph glyph-name="onequarter" unicode="&#xbc;" horiz-adv-x="943" 
d="M234 293h-138v263l-41 -23l-50 102l138 73h91v-415zM676 700l-350 -700h-166l352 700h164zM526 73v89l117 247h134l-114 -228h92v120h129v-120h42v-108h-42v-73h-129v73h-229z" />
    <glyph glyph-name="onehalf" unicode="&#xbd;" horiz-adv-x="958" 
d="M589 0v88l141 118q18 16 26.5 25t16.5 22t8 26q0 34 -44 34q-26 0 -42.5 -11.5t-33.5 -37.5l-90 63q54 94 183 94q167 0 167 -123q0 -77 -86 -151l-47 -42l148 4v-109h-347zM234 293h-138v263l-41 -23l-50 102l138 73h91v-415zM676 700l-350 -700h-166l352 700h164z" />
    <glyph glyph-name="threequarters" unicode="&#xbe;" horiz-adv-x="1024" 
d="M188 279q-125 0 -177 88l95 59q15 -25 31.5 -34.5t42.5 -9.5q50 0 50 34q0 32 -56 32h-38v91h38q47 0 47 35q0 33 -46 33q-39 0 -61 -41l-96 52q28 51 69.5 73.5t102.5 22.5q81 0 124.5 -33t43.5 -90q0 -59 -55 -92q61 -31 61 -91t-47 -94.5t-129 -34.5zM765 700
l-350 -700h-166l352 700h164zM607 73v89l117 247h134l-114 -228h92v120h129v-120h42v-108h-42v-73h-129v73h-229z" />
    <glyph glyph-name="questiondown" unicode="&#xbf;" horiz-adv-x="524" 
d="M348 282l9 -185h-65q-103 0 -103 -88q0 -36 25.5 -57.5t77.5 -21.5q42 0 71 19t50 66l115 -74q-75 -154 -261 -154q-250 0 -250 211q0 94 49 146.5t132 61.5l7 76h143zM383 425q0 -95 -102 -95t-102 95q0 46 26.5 70t75.5 24q102 0 102 -94z" />
    <glyph glyph-name="Agrave" unicode="&#xc0;" horiz-adv-x="721" 
d="M508 0l-29 94h-244l-28 -94h-200l233 700h241l233 -700h-206zM357 502l-78 -258h156zM300 769l-136 134v7h206l81 -136v-5h-151z" />
    <glyph glyph-name="Aacute" unicode="&#xc1;" horiz-adv-x="721" 
d="M508 0l-29 94h-244l-28 -94h-200l233 700h241l233 -700h-206zM357 502l-78 -258h156zM556 903l-136 -134h-147v5l84 136h199v-7z" />
    <glyph glyph-name="Acircumflex" unicode="&#xc2;" horiz-adv-x="721" 
d="M508 0l-29 94h-244l-28 -94h-200l233 700h241l233 -700h-206zM357 502l-78 -258h156zM358 820l-56 -52h-141v4l124 137h155l125 -137v-4h-149z" />
    <glyph glyph-name="Atilde" unicode="&#xc3;" horiz-adv-x="721" 
d="M508 0l-29 94h-244l-28 -94h-200l233 700h241l233 -700h-206zM357 502l-78 -258h156zM446 906h109q5 -69 -28 -101t-81 -32q-34 0 -79.5 15.5t-62.5 15.5q-28 0 -28 -32h-109q-5 69 28 101t81 32q34 0 79.5 -15.5t62.5 -15.5q28 0 28 32z" />
    <glyph glyph-name="Adieresis" unicode="&#xc4;" horiz-adv-x="721" 
d="M508 0l-29 94h-244l-28 -94h-200l233 700h241l233 -700h-206zM357 502l-78 -258h156zM152 847q0 83 95 83t95 -83q0 -84 -95 -84t-95 84zM381 847q0 83 96 83q95 0 95 -83q0 -84 -95 -84q-96 0 -96 84z" />
    <glyph glyph-name="Aring" unicode="&#xc5;" horiz-adv-x="721" 
d="M508 0l-29 94h-244l-28 -94h-200l233 700h241l233 -700h-206zM357 502l-78 -258h156zM237 857q0 51 34 79.5t90 28.5q55 0 89 -28.5t34 -79.5q0 -52 -34 -80.5t-90 -28.5q-55 0 -89 28.5t-34 80.5zM317 857q0 -20 12 -31.5t31 -11.5q20 0 32 11.5t12 31.5q0 19 -12 30
t-31 11q-20 0 -32 -11t-12 -30z" />
    <glyph glyph-name="AE" unicode="&#xc6;" horiz-adv-x="1042" 
d="M515 0l-29 94h-253l-30 -94h-196l248 700h732v-155h-444l37 -113h356v-157h-303l39 -119h325v-156h-482zM361 494l-80 -250h159z" />
    <glyph glyph-name="Ccedilla" unicode="&#xc7;" horiz-adv-x="714" 
d="M698 161q-66 -153 -247 -173l-14 -33h1q46 -4 77.5 -29t31.5 -67q0 -56 -43 -86.5t-108 -30.5q-107 0 -153 74l60 62q34 -48 86 -48q47 0 47 35q0 15 -14 24.5t-38 9.5q-4 0 -7.5 -0.5t-8 -1.5t-7.5 -1l-27 15l27 75q-160 8 -237 98.5t-77 266.5q0 187 88 275.5t267 88.5
q223 0 289 -171l-162 -78q-22 47 -50.5 65t-79.5 18q-75 0 -112 -45t-37 -157q0 -110 37.5 -155.5t113.5 -45.5q97 0 133 90z" />
    <glyph glyph-name="Egrave" unicode="&#xc8;" horiz-adv-x="693" 
d="M84 0v700h553v-155h-356v-113h306v-157h-306v-119h366v-156h-563zM306 768l-136 134v7h206l81 -136v-5h-151z" />
    <glyph glyph-name="Eacute" unicode="&#xc9;" horiz-adv-x="693" 
d="M563 903l-136 -134h-147v5l84 136h199v-7zM84 0v700h553v-155h-356v-113h306v-157h-306v-119h366v-156h-563z" />
    <glyph glyph-name="Ecircumflex" unicode="&#xca;" horiz-adv-x="693" 
d="M364 820l-56 -52h-141v4l124 137h155l125 -137v-4h-149zM84 0v700h553v-155h-356v-113h306v-157h-306v-119h366v-156h-563z" />
    <glyph glyph-name="Edieresis" unicode="&#xcb;" horiz-adv-x="693" 
d="M159 847q0 83 95 83t95 -83q0 -84 -95 -84t-95 84zM388 847q0 83 96 83q95 0 95 -83q0 -84 -95 -84q-96 0 -96 84zM84 0v700h553v-155h-356v-113h306v-157h-306v-119h366v-156h-563z" />
    <glyph glyph-name="Igrave" unicode="&#xcc;" horiz-adv-x="371" 
d="M84 0v700h202v-700h-202zM123 768l-136 134v7h206l81 -136v-5h-151z" />
    <glyph glyph-name="Iacute" unicode="&#xcd;" horiz-adv-x="371" 
d="M84 0v700h202v-700h-202zM380 903l-136 -134h-147v5l84 136h199v-7z" />
    <glyph glyph-name="Icircumflex" unicode="&#xce;" horiz-adv-x="371" 
d="M84 0v700h202v-700h-202zM182 820l-56 -52h-141v4l124 137h155l125 -137v-4h-149z" />
    <glyph glyph-name="Idieresis" unicode="&#xcf;" horiz-adv-x="371" 
d="M84 0v700h202v-700h-202zM-24 847q0 83 95 83t95 -83q0 -84 -95 -84t-95 84zM205 847q0 83 96 83q95 0 95 -83q0 -84 -95 -84q-96 0 -96 84z" />
    <glyph glyph-name="Eth" unicode="&#xd0;" horiz-adv-x="788" 
d="M401 0h-303v270h-67v148h67v282h319q168 0 246.5 -84t78.5 -261q0 -355 -341 -355zM299 160h86q75 0 115 45t40 147q0 188 -138 188h-103v-122h101v-148h-101v-110z" />
    <glyph glyph-name="Ntilde" unicode="&#xd1;" horiz-adv-x="821" 
d="M567 0l-298 382l5 -382h-190v700h150l317 -415l-4 415h190v-700h-170zM495 906h109q5 -69 -28 -101t-81 -32q-34 0 -79.5 15.5t-62.5 15.5q-28 0 -28 -32h-109q-5 69 28 101t81 32q34 0 79.5 -15.5t62.5 -15.5q28 0 28 32z" />
    <glyph glyph-name="Ograve" unicode="&#xd2;" horiz-adv-x="798" 
d="M47 351q0 183 87 273.5t266 90.5q184 0 268 -90t84 -275q0 -183 -87.5 -274t-266.5 -91q-182 0 -266.5 90.5t-84.5 275.5zM250 349q0 -107 36.5 -153.5t111.5 -46.5q76 0 112 46.5t36 155.5q0 107 -36 153t-111 46q-77 0 -113 -46t-36 -155zM333 769l-136 134v7h206
l81 -136v-5h-151z" />
    <glyph glyph-name="Oacute" unicode="&#xd3;" horiz-adv-x="798" 
d="M590 903l-136 -134h-147v5l84 136h199v-7zM47 351q0 183 87 273.5t266 90.5q184 0 268 -90t84 -275q0 -183 -87.5 -274t-266.5 -91q-182 0 -266.5 90.5t-84.5 275.5zM250 349q0 -107 36.5 -153.5t111.5 -46.5q76 0 112 46.5t36 155.5q0 107 -36 153t-111 46
q-77 0 -113 -46t-36 -155z" />
    <glyph glyph-name="Ocircumflex" unicode="&#xd4;" horiz-adv-x="798" 
d="M392 821l-56 -52h-141v4l124 137h155l125 -137v-4h-149zM47 351q0 183 87 273.5t266 90.5q184 0 268 -90t84 -275q0 -183 -87.5 -274t-266.5 -91q-182 0 -266.5 90.5t-84.5 275.5zM250 349q0 -107 36.5 -153.5t111.5 -46.5q76 0 112 46.5t36 155.5q0 107 -36 153t-111 46
q-77 0 -113 -46t-36 -155z" />
    <glyph glyph-name="Otilde" unicode="&#xd5;" horiz-adv-x="798" 
d="M47 351q0 183 87 273.5t266 90.5q184 0 268 -90t84 -275q0 -183 -87.5 -274t-266.5 -91q-182 0 -266.5 90.5t-84.5 275.5zM250 349q0 -107 36.5 -153.5t111.5 -46.5q76 0 112 46.5t36 155.5q0 107 -36 153t-111 46q-77 0 -113 -46t-36 -155zM480 907h109q5 -69 -28 -101
t-81 -32q-34 0 -79.5 15.5t-62.5 15.5q-28 0 -28 -32h-109q-5 69 28 101t81 32q34 0 79.5 -15.5t62.5 -15.5q28 0 28 32z" />
    <glyph glyph-name="Odieresis" unicode="&#xd6;" horiz-adv-x="798" 
d="M189 848q0 83 95 83t95 -83q0 -84 -95 -84t-95 84zM418 848q0 83 96 83q95 0 95 -83q0 -84 -95 -84q-96 0 -96 84zM47 351q0 183 87 273.5t266 90.5q184 0 268 -90t84 -275q0 -183 -87.5 -274t-266.5 -91q-182 0 -266.5 90.5t-84.5 275.5zM250 349q0 -107 36.5 -153.5
t111.5 -46.5q76 0 112 46.5t36 155.5q0 107 -36 153t-111 46q-77 0 -113 -46t-36 -155z" />
    <glyph glyph-name="multiply" unicode="&#xd7;" horiz-adv-x="508" 
d="M131 119l-72 73l118 118l-120 121l77 78l121 -121l120 120l72 -73l-120 -119l123 -123l-78 -78l-122 123z" />
    <glyph glyph-name="Oslash" unicode="&#xd8;" horiz-adv-x="808" 
d="M161 0h-125l85 97q-69 89 -69 253q0 183 87 274t266 91q132 0 212 -50l31 35h127l-86 -99q68 -90 68 -251q0 -184 -85.5 -274.5t-263.5 -90.5q-136 0 -217 50zM404 149q76 0 111.5 45.5t35.5 156.5q0 51 -9 85l-230 -261q31 -26 92 -26zM404 550q-77 0 -113 -45.5
t-36 -154.5q0 -53 10 -86l228 260q-33 26 -89 26z" />
    <glyph glyph-name="Ugrave" unicode="&#xd9;" horiz-adv-x="781" 
d="M512 279v421h201v-410q0 -160 -82 -232.5t-239 -72.5q-161 0 -242.5 73t-81.5 232v410h201v-421q0 -63 31.5 -95.5t90.5 -32.5t90 32.5t31 95.5zM329 769l-136 134v7h206l81 -136v-5h-151z" />
    <glyph glyph-name="Uacute" unicode="&#xda;" horiz-adv-x="781" 
d="M586 903l-136 -134h-147v5l84 136h199v-7zM512 279v421h201v-410q0 -160 -82 -232.5t-239 -72.5q-161 0 -242.5 73t-81.5 232v410h201v-421q0 -63 31.5 -95.5t90.5 -32.5t90 32.5t31 95.5z" />
    <glyph glyph-name="Ucircumflex" unicode="&#xdb;" horiz-adv-x="781" 
d="M387 820l-56 -52h-141v4l124 137h155l125 -137v-4h-149zM512 279v421h201v-410q0 -160 -82 -232.5t-239 -72.5q-161 0 -242.5 73t-81.5 232v410h201v-421q0 -63 31.5 -95.5t90.5 -32.5t90 32.5t31 95.5z" />
    <glyph glyph-name="Udieresis" unicode="&#xdc;" horiz-adv-x="781" 
d="M182 847q0 83 95 83t95 -83q0 -84 -95 -84t-95 84zM411 847q0 83 96 83q95 0 95 -83q0 -84 -95 -84q-96 0 -96 84zM512 279v421h201v-410q0 -160 -82 -232.5t-239 -72.5q-161 0 -242.5 73t-81.5 232v410h201v-421q0 -63 31.5 -95.5t90.5 -32.5t90 32.5t31 95.5z" />
    <glyph glyph-name="Yacute" unicode="&#xdd;" horiz-adv-x="718" 
d="M258 251l-251 449h224l135 -275l133 275h212l-251 -455v-245h-202v251zM554 903l-136 -134h-147v5l84 136h199v-7z" />
    <glyph glyph-name="Thorn" unicode="&#xde;" horiz-adv-x="709" 
d="M84 0v700h202v-96h152q118 0 181 -69t63 -186q0 -118 -73 -183.5t-196 -65.5h-127v-100h-202zM399 435h-113v-173h114q39 0 61 23t22 66q0 35 -20.5 59.5t-63.5 24.5z" />
    <glyph glyph-name="germandbls" unicode="&#xdf;" horiz-adv-x="679" 
d="M368 294h-53v144h39q38 0 60 20.5t22 53.5q0 36 -25 54.5t-65 18.5q-100 0 -100 -106v-479h-190v481q0 120 73 185t216 65q140 0 205.5 -54.5t65.5 -143.5q0 -102 -85 -150q60 -19 89 -66.5t29 -112.5q0 -100 -65.5 -156t-171.5 -56q-70 0 -112 18l13 133q23 -11 55 -11
q42 0 68.5 21.5t26.5 61.5q0 38 -25.5 58.5t-69.5 20.5z" />
    <glyph glyph-name="agrave" unicode="&#xe0;" horiz-adv-x="589" 
d="M200 -14q-77 0 -122.5 38.5t-45.5 107.5q0 84 62.5 128.5t164.5 44.5h86q-5 70 -92 70q-93 0 -144 -54l-66 107q79 88 242 88q251 0 251 -219v-297h-163l-12 67q-51 -81 -161 -81zM264 101q38 0 60 24t22 67v13h-63q-79 0 -79 -56q0 -48 60 -48zM223 570l-136 134v7h206
l81 -136v-5h-151z" />
    <glyph glyph-name="aacute" unicode="&#xe1;" horiz-adv-x="589" 
d="M200 -14q-77 0 -122.5 38.5t-45.5 107.5q0 84 62.5 128.5t164.5 44.5h86q-5 70 -92 70q-93 0 -144 -54l-66 107q79 88 242 88q251 0 251 -219v-297h-163l-12 67q-51 -81 -161 -81zM264 101q38 0 60 24t22 67v13h-63q-79 0 -79 -56q0 -48 60 -48zM479 704l-136 -134h-147
v5l84 136h199v-7z" />
    <glyph glyph-name="acircumflex" unicode="&#xe2;" horiz-adv-x="589" 
d="M200 -14q-77 0 -122.5 38.5t-45.5 107.5q0 84 62.5 128.5t164.5 44.5h86q-5 70 -92 70q-93 0 -144 -54l-66 107q79 88 242 88q251 0 251 -219v-297h-163l-12 67q-51 -81 -161 -81zM264 101q38 0 60 24t22 67v13h-63q-79 0 -79 -56q0 -48 60 -48zM281 622l-56 -52h-141v4
l124 137h155l125 -137v-4h-149z" />
    <glyph glyph-name="atilde" unicode="&#xe3;" horiz-adv-x="589" 
d="M200 -14q-77 0 -122.5 38.5t-45.5 107.5q0 84 62.5 128.5t164.5 44.5h86q-5 70 -92 70q-93 0 -144 -54l-66 107q79 88 242 88q251 0 251 -219v-297h-163l-12 67q-51 -81 -161 -81zM264 101q38 0 60 24t22 67v13h-63q-79 0 -79 -56q0 -48 60 -48zM369 708h109
q5 -69 -28 -101t-81 -32q-34 0 -79.5 15.5t-62.5 15.5q-28 0 -28 -32h-109q-5 69 28 101t81 32q34 0 79.5 -15.5t62.5 -15.5q28 0 28 32z" />
    <glyph glyph-name="adieresis" unicode="&#xe4;" horiz-adv-x="589" 
d="M200 -14q-77 0 -122.5 38.5t-45.5 107.5q0 84 62.5 128.5t164.5 44.5h86q-5 70 -92 70q-93 0 -144 -54l-66 107q79 88 242 88q251 0 251 -219v-297h-163l-12 67q-51 -81 -161 -81zM264 101q38 0 60 24t22 67v13h-63q-79 0 -79 -56q0 -48 60 -48zM75 649q0 83 95 83
t95 -83q0 -84 -95 -84t-95 84zM304 649q0 83 96 83q95 0 95 -83q0 -84 -95 -84q-96 0 -96 84z" />
    <glyph glyph-name="aring" unicode="&#xe5;" horiz-adv-x="589" 
d="M200 -14q-77 0 -122.5 38.5t-45.5 107.5q0 84 62.5 128.5t164.5 44.5h86q-5 70 -92 70q-93 0 -144 -54l-66 107q79 88 242 88q251 0 251 -219v-297h-163l-12 67q-51 -81 -161 -81zM264 101q38 0 60 24t22 67v13h-63q-79 0 -79 -56q0 -48 60 -48zM160 659q0 51 34 79.5
t90 28.5q55 0 89 -28.5t34 -79.5q0 -52 -34 -80.5t-90 -28.5q-55 0 -89 28.5t-34 80.5zM240 659q0 -20 12 -31.5t31 -11.5q20 0 32 11.5t12 31.5q0 19 -12 30t-31 11q-20 0 -32 -11t-12 -30z" />
    <glyph glyph-name="ae" unicode="&#xe6;" horiz-adv-x="901" 
d="M217 -14q-85 0 -135 38.5t-50 107.5q0 84 62.5 128t164.5 44h86q-3 41 -26 56t-66 15q-95 0 -144 -54l-66 107q79 88 239 88q110 0 164 -61q66 61 175 61q124 0 184.5 -71t60.5 -185q0 -30 -4 -57h-326q10 -90 106 -90q71 0 101 52l112 -71q-64 -109 -232 -109
q-137 0 -203 84q-64 -83 -203 -83zM264 101q38 0 60 24.5t22 67.5v10h-63q-79 0 -79 -56q0 -46 60 -46zM619 384q-74 0 -83 -80h155q-6 80 -72 80z" />
    <glyph glyph-name="ccedilla" unicode="&#xe7;" horiz-adv-x="546" 
d="M533 111q-56 -106 -183 -122l-14 -34h1q46 -4 77.5 -29t31.5 -67q0 -56 -43 -86.5t-108 -30.5q-107 0 -153 74l60 62q34 -48 86 -48q47 0 47 35q0 15 -14 24.5t-38 9.5q-4 0 -7.5 -0.5t-8 -1.5t-7.5 -1l-27 15l27 76q-226 18 -226 263q0 266 272 266q159 0 222 -111
l-132 -96q-26 55 -86 55q-46 0 -68.5 -25.5t-22.5 -89.5q0 -121 89 -121q72 0 94 58z" />
    <glyph glyph-name="egrave" unicode="&#xe8;" horiz-adv-x="580" 
d="M305 -15q-127 0 -199.5 66t-72.5 195q0 126 70 198t195 72q126 0 186.5 -71.5t60.5 -187.5q0 -30 -4 -58h-326q13 -86 107 -86q70 0 100 52l112 -71q-63 -109 -229 -109zM296 384q-34 0 -56 -21t-26 -61h156q-5 82 -74 82zM230 570l-136 134v7h206l81 -136v-5h-151z" />
    <glyph glyph-name="eacute" unicode="&#xe9;" horiz-adv-x="580" 
d="M486 704l-136 -134h-147v5l84 136h199v-7zM305 -15q-127 0 -199.5 66t-72.5 195q0 126 70 198t195 72q126 0 186.5 -71.5t60.5 -187.5q0 -30 -4 -58h-326q13 -86 107 -86q70 0 100 52l112 -71q-63 -109 -229 -109zM296 384q-34 0 -56 -21t-26 -61h156q-5 82 -74 82z" />
    <glyph glyph-name="ecircumflex" unicode="&#xea;" horiz-adv-x="580" 
d="M288 622l-56 -52h-141v4l124 137h155l125 -137v-4h-149zM305 -15q-127 0 -199.5 66t-72.5 195q0 126 70 198t195 72q126 0 186.5 -71.5t60.5 -187.5q0 -30 -4 -58h-326q13 -86 107 -86q70 0 100 52l112 -71q-63 -109 -229 -109zM296 384q-34 0 -56 -21t-26 -61h156
q-5 82 -74 82z" />
    <glyph glyph-name="edieresis" unicode="&#xeb;" horiz-adv-x="580" 
d="M80 649q0 83 95 83t95 -83q0 -84 -95 -84t-95 84zM309 649q0 83 96 83q95 0 95 -83q0 -84 -95 -84q-96 0 -96 84zM305 -15q-127 0 -199.5 66t-72.5 195q0 126 70 198t195 72q126 0 186.5 -71.5t60.5 -187.5q0 -30 -4 -58h-326q13 -86 107 -86q70 0 100 52l112 -71
q-63 -109 -229 -109zM296 384q-34 0 -56 -21t-26 -61h156q-5 82 -74 82z" />
    <glyph glyph-name="igrave" unicode="&#xec;" horiz-adv-x="309" 
d="M58 502h194v-502h-194v502zM92 570l-136 134v7h206l81 -136v-5h-151z" />
    <glyph glyph-name="iacute" unicode="&#xed;" horiz-adv-x="309" 
d="M349 704l-136 -134h-147v5l84 136h199v-7zM58 502h194v-502h-194v502z" />
    <glyph glyph-name="icircumflex" unicode="&#xee;" horiz-adv-x="309" 
d="M150 622l-56 -52h-141v4l124 137h155l125 -137v-4h-149zM58 502h194v-502h-194v502z" />
    <glyph glyph-name="idieresis" unicode="&#xef;" horiz-adv-x="309" 
d="M-55 649q0 83 95 83t95 -83q0 -84 -95 -84t-95 84zM174 649q0 83 96 83q95 0 95 -83q0 -84 -95 -84q-96 0 -96 84zM58 502h194v-502h-194v502z" />
    <glyph glyph-name="eth" unicode="&#xf0;" horiz-adv-x="613" 
d="M485 742l37 -54l-63 -40q124 -122 124 -351v-31q0 -146 -68.5 -213.5t-205.5 -67.5q-136 0 -206 65t-70 190q0 129 66 191.5t184 62.5q61 0 102 -29q-19 58 -58 97l-75 -48l-37 53l54 36q-39 22 -98 35l41 118q113 -9 195 -65zM399 239q0 63 -21.5 91.5t-69.5 28.5
t-70 -29t-22 -91q0 -116 92 -116q91 0 91 116z" />
    <glyph glyph-name="ntilde" unicode="&#xf1;" horiz-adv-x="654" 
d="M57 502h159l15 -89q60 103 183 103q95 0 141 -54t46 -146v-316h-194v247q0 56 -17 78t-55 22t-60.5 -26t-23.5 -77v-244h-194v502zM434 708h109q5 -69 -28 -101t-81 -32q-34 0 -79.5 15.5t-62.5 15.5q-28 0 -28 -32h-109q-5 69 28 101t81 32q34 0 79.5 -15.5t62.5 -15.5
q28 0 28 32z" />
    <glyph glyph-name="ograve" unicode="&#xf2;" horiz-adv-x="616" 
d="M399 250q0 64 -21.5 93.5t-69.5 29.5q-49 0 -70.5 -29.5t-21.5 -93.5q0 -65 22 -95t70 -30q47 0 69 30t22 95zM34 251q0 133 71.5 199t202.5 66q138 0 206 -64.5t68 -200.5q0 -131 -70 -198.5t-204 -67.5q-274 0 -274 266zM247 570l-136 134v7h206l81 -136v-5h-151z" />
    <glyph glyph-name="oacute" unicode="&#xf3;" horiz-adv-x="616" 
d="M503 704l-136 -134h-147v5l84 136h199v-7zM399 250q0 64 -21.5 93.5t-69.5 29.5q-49 0 -70.5 -29.5t-21.5 -93.5q0 -65 22 -95t70 -30q47 0 69 30t22 95zM34 251q0 133 71.5 199t202.5 66q138 0 206 -64.5t68 -200.5q0 -131 -70 -198.5t-204 -67.5q-274 0 -274 266z" />
    <glyph glyph-name="ocircumflex" unicode="&#xf4;" horiz-adv-x="616" 
d="M304 622l-56 -52h-141v4l124 137h155l125 -137v-4h-149zM399 250q0 64 -21.5 93.5t-69.5 29.5q-49 0 -70.5 -29.5t-21.5 -93.5q0 -65 22 -95t70 -30q47 0 69 30t22 95zM34 251q0 133 71.5 199t202.5 66q138 0 206 -64.5t68 -200.5q0 -131 -70 -198.5t-204 -67.5
q-274 0 -274 266z" />
    <glyph glyph-name="otilde" unicode="&#xf5;" horiz-adv-x="616" 
d="M399 250q0 64 -21.5 93.5t-69.5 29.5q-49 0 -70.5 -29.5t-21.5 -93.5q0 -65 22 -95t70 -30q47 0 69 30t22 95zM34 251q0 133 71.5 199t202.5 66q138 0 206 -64.5t68 -200.5q0 -131 -70 -198.5t-204 -67.5q-274 0 -274 266zM393 708h109q5 -69 -28 -101t-81 -32
q-34 0 -79.5 15.5t-62.5 15.5q-28 0 -28 -32h-109q-5 69 28 101t81 32q34 0 79.5 -15.5t62.5 -15.5q28 0 28 32z" />
    <glyph glyph-name="odieresis" unicode="&#xf6;" horiz-adv-x="616" 
d="M98 649q0 83 95 83t95 -83q0 -84 -95 -84t-95 84zM327 649q0 83 96 83q95 0 95 -83q0 -84 -95 -84q-96 0 -96 84zM399 250q0 64 -21.5 93.5t-69.5 29.5q-49 0 -70.5 -29.5t-21.5 -93.5q0 -65 22 -95t70 -30q47 0 69 30t22 95zM34 251q0 133 71.5 199t202.5 66
q138 0 206 -64.5t68 -200.5q0 -131 -70 -198.5t-204 -67.5q-274 0 -274 266z" />
    <glyph glyph-name="divide" unicode="&#xf7;" horiz-adv-x="512" 
d="M462 363v-104h-412v104h412zM171 127q0 36 24 59.5t60 23.5q37 0 61 -23.5t24 -59.5q0 -35 -24 -58.5t-61 -23.5q-36 0 -60 23.5t-24 58.5zM171 495q0 36 24 59.5t60 23.5q37 0 61 -23.5t24 -59.5q0 -35 -24 -58.5t-61 -23.5q-36 0 -60 23.5t-24 58.5z" />
    <glyph glyph-name="oslash" unicode="&#xf8;" horiz-adv-x="626" 
d="M614 502l-74 -76q47 -65 47 -175q0 -131 -70 -198.5t-204 -67.5q-103 0 -169 40l-25 -25h-105l74 75q-49 64 -49 176q0 133 71.5 199t202.5 66q106 0 172 -39l24 25h105zM407 250q0 27 -3 39l-151 -154q21 -17 60 -17q49 0 71.5 31.5t22.5 100.5zM222 210l150 153
q-23 17 -59 17q-51 0 -73 -31t-22 -99q0 -29 4 -40z" />
    <glyph glyph-name="ugrave" unicode="&#xf9;" horiz-adv-x="652" 
d="M435 0l-15 83q-27 -47 -72.5 -72.5t-101.5 -25.5q-98 0 -145.5 52.5t-47.5 138.5v326h194v-267q0 -47 17 -69t54 -22q34 0 57 26.5t24 75.5v256h193v-502h-157zM260 570l-136 134v7h206l81 -136v-5h-151z" />
    <glyph glyph-name="uacute" unicode="&#xfa;" horiz-adv-x="652" 
d="M517 704l-136 -134h-147v5l84 136h199v-7zM435 0l-15 83q-27 -47 -72.5 -72.5t-101.5 -25.5q-98 0 -145.5 52.5t-47.5 138.5v326h194v-267q0 -47 17 -69t54 -22q34 0 57 26.5t24 75.5v256h193v-502h-157z" />
    <glyph glyph-name="ucircumflex" unicode="&#xfb;" horiz-adv-x="652" 
d="M318 622l-56 -52h-141v4l124 137h155l125 -137v-4h-149zM435 0l-15 83q-27 -47 -72.5 -72.5t-101.5 -25.5q-98 0 -145.5 52.5t-47.5 138.5v326h194v-267q0 -47 17 -69t54 -22q34 0 57 26.5t24 75.5v256h193v-502h-157z" />
    <glyph glyph-name="udieresis" unicode="&#xfc;" horiz-adv-x="652" 
d="M113 649q0 83 95 83t95 -83q0 -84 -95 -84t-95 84zM342 649q0 83 96 83q95 0 95 -83q0 -84 -95 -84q-96 0 -96 84zM435 0l-15 83q-27 -47 -72.5 -72.5t-101.5 -25.5q-98 0 -145.5 52.5t-47.5 138.5v326h194v-267q0 -47 17 -69t54 -22q34 0 57 26.5t24 75.5v256h193v-502
h-157z" />
    <glyph glyph-name="yacute" unicode="&#xfd;" horiz-adv-x="595" 
d="M189 -29l10 31l-194 500h200l96 -293l90 293h199l-230 -594q-51 -130 -220 -130q-70 0 -121 22l17 134q39 -18 76 -18q58 0 77 55zM492 704l-136 -134h-147v5l84 136h199v-7z" />
    <glyph glyph-name="thorn" unicode="&#xfe;" horiz-adv-x="643" 
d="M251 700v-259q49 75 155 75q98 0 150 -66t52 -190q0 -127 -58 -201t-171 -74q-84 0 -128 52v-223h-194v886h194zM247 247q0 -60 23.5 -91t63.5 -31q89 0 89 123q0 125 -88 125t-88 -126z" />
    <glyph glyph-name="ydieresis" unicode="&#xff;" horiz-adv-x="595" 
d="M189 -29l10 31l-194 500h200l96 -293l90 293h199l-230 -594q-51 -130 -220 -130q-70 0 -121 22l17 134q39 -18 76 -18q58 0 77 55zM88 649q0 83 95 83t95 -83q0 -84 -95 -84t-95 84zM317 649q0 83 96 83q95 0 95 -83q0 -84 -95 -84q-96 0 -96 84z" />
    <glyph glyph-name="Amacron" unicode="&#x100;" horiz-adv-x="721" 
d="M508 0l-29 94h-244l-28 -94h-200l233 700h241l233 -700h-206zM357 502l-78 -258h156zM514 883v-101h-306v101h306z" />
    <glyph glyph-name="amacron" unicode="&#x101;" horiz-adv-x="589" 
d="M200 -14q-77 0 -122.5 38.5t-45.5 107.5q0 84 62.5 128.5t164.5 44.5h86q-5 70 -92 70q-93 0 -144 -54l-66 107q79 88 242 88q251 0 251 -219v-297h-163l-12 67q-51 -81 -161 -81zM264 101q38 0 60 24t22 67v13h-63q-79 0 -79 -56q0 -48 60 -48zM438 685v-101h-306v101
h306z" />
    <glyph glyph-name="Abreve" unicode="&#x102;" horiz-adv-x="721" 
d="M508 0l-29 94h-244l-28 -94h-200l233 700h241l233 -700h-206zM357 502l-78 -258h156zM434 908h113q0 -81 -46.5 -114.5t-139.5 -33.5t-139 33.5t-46 114.5h112q0 -33 17 -46t56 -13t56 13t17 46z" />
    <glyph glyph-name="abreve" unicode="&#x103;" horiz-adv-x="589" 
d="M200 -14q-77 0 -122.5 38.5t-45.5 107.5q0 84 62.5 128.5t164.5 44.5h86q-5 70 -92 70q-93 0 -144 -54l-66 107q79 88 242 88q251 0 251 -219v-297h-163l-12 67q-51 -81 -161 -81zM264 101q38 0 60 24t22 67v13h-63q-79 0 -79 -56q0 -48 60 -48zM357 710h113
q0 -81 -46.5 -114.5t-139.5 -33.5t-139 33.5t-46 114.5h112q0 -33 17 -46t56 -13t56 13t17 46z" />
    <glyph glyph-name="Aogonek" unicode="&#x104;" horiz-adv-x="721" 
d="M503 14l-24 80h-244l-28 -94h-200l233 700h241l233 -700h-74q-45 -4 -66.5 -27.5t-21.5 -57.5q0 -51 65 -51q39 0 69 17l26 -90q-47 -29 -108 -29q-67 0 -113 32.5t-46 103.5q0 72 58 116zM357 502l-78 -258h156z" />
    <glyph glyph-name="aogonek" unicode="&#x105;" horiz-adv-x="589" 
d="M479 -238q-67 0 -113 32.5t-46 103.5q0 69 51 113l-10 56q-51 -81 -161 -81q-77 0 -122.5 38.5t-45.5 107.5q0 84 62.5 128.5t164.5 44.5h86q-5 70 -92 70q-93 0 -144 -54l-66 107q79 88 242 88q251 0 251 -219v-297h-21q-45 -4 -66.5 -27.5t-21.5 -57.5q0 -51 66 -51
q38 0 68 17l26 -90q-47 -29 -108 -29zM264 101q38 0 60 24t22 67v13h-63q-79 0 -79 -56q0 -48 60 -48z" />
    <glyph glyph-name="Cacute" unicode="&#x106;" horiz-adv-x="714" 
d="M597 903l-136 -134h-147v5l84 136h199v-7zM394 -15q-177 0 -262 90.5t-85 275.5q0 187 88 275.5t267 88.5q223 0 289 -171l-162 -78q-22 47 -50.5 65t-79.5 18q-75 0 -112 -45t-37 -157q0 -110 37.5 -155.5t113.5 -45.5q97 0 133 90l164 -75q-75 -176 -304 -176z" />
    <glyph glyph-name="cacute" unicode="&#x107;" horiz-adv-x="546" 
d="M499 704l-136 -134h-147v5l84 136h199v-7zM297 -15q-125 0 -194 64.5t-69 200.5q0 266 272 266q159 0 222 -111l-132 -96q-26 55 -86 55q-46 0 -68.5 -25.5t-22.5 -89.5q0 -121 89 -121q72 0 94 58l131 -75q-67 -126 -236 -126z" />
    <glyph glyph-name="Ccircumflex" unicode="&#x108;" horiz-adv-x="714" 
d="M398 821l-56 -52h-141v4l124 137h155l125 -137v-4h-149zM394 -15q-177 0 -262 90.5t-85 275.5q0 187 88 275.5t267 88.5q223 0 289 -171l-162 -78q-22 47 -50.5 65t-79.5 18q-75 0 -112 -45t-37 -157q0 -110 37.5 -155.5t113.5 -45.5q97 0 133 90l164 -75
q-75 -176 -304 -176z" />
    <glyph glyph-name="ccircumflex" unicode="&#x109;" horiz-adv-x="546" 
d="M304 622l-56 -52h-141v4l124 137h155l125 -137v-4h-149zM297 -15q-125 0 -194 64.5t-69 200.5q0 266 272 266q159 0 222 -111l-132 -96q-26 55 -86 55q-46 0 -68.5 -25.5t-22.5 -89.5q0 -121 89 -121q72 0 94 58l131 -75q-67 -126 -236 -126z" />
    <glyph glyph-name="Cdotaccent" unicode="&#x10a;" horiz-adv-x="714" 
d="M394 -15q-177 0 -262 90.5t-85 275.5q0 187 88 275.5t267 88.5q223 0 289 -171l-162 -78q-22 47 -50.5 65t-79.5 18q-75 0 -112 -45t-37 -157q0 -110 37.5 -155.5t113.5 -45.5q97 0 133 90l164 -75q-75 -176 -304 -176zM301 848q0 85 101 85q100 0 100 -85
q0 -84 -100 -84q-101 0 -101 84z" />
    <glyph glyph-name="cdotaccent" unicode="&#x10b;" horiz-adv-x="546" 
d="M297 -15q-125 0 -194 64.5t-69 200.5q0 266 272 266q159 0 222 -111l-132 -96q-26 55 -86 55q-46 0 -68.5 -25.5t-22.5 -89.5q0 -121 89 -121q72 0 94 58l131 -75q-67 -126 -236 -126zM207 649q0 85 101 85q100 0 100 -85q0 -84 -100 -84q-101 0 -101 84z" />
    <glyph glyph-name="Ccaron" unicode="&#x10c;" horiz-adv-x="714" 
d="M408 858l57 52h140v-3l-124 -138h-156l-124 138v3h148zM394 -15q-177 0 -262 90.5t-85 275.5q0 187 88 275.5t267 88.5q223 0 289 -171l-162 -78q-22 47 -50.5 65t-79.5 18q-75 0 -112 -45t-37 -157q0 -110 37.5 -155.5t113.5 -45.5q97 0 133 90l164 -75
q-75 -176 -304 -176z" />
    <glyph glyph-name="ccaron" unicode="&#x10d;" horiz-adv-x="546" 
d="M311 659l57 52h140v-3l-124 -138h-156l-124 138v3h148zM297 -15q-125 0 -194 64.5t-69 200.5q0 266 272 266q159 0 222 -111l-132 -96q-26 55 -86 55q-46 0 -68.5 -25.5t-22.5 -89.5q0 -121 89 -121q72 0 94 58l131 -75q-67 -126 -236 -126z" />
    <glyph glyph-name="Dcaron" unicode="&#x10e;" horiz-adv-x="775" 
d="M409 858l57 52h140v-3l-124 -138h-156l-124 138v3h148zM286 160h86q75 0 114.5 45t39.5 147q0 188 -137 188h-103v-380zM388 0h-304v700h320q168 0 246.5 -84t78.5 -261q0 -355 -341 -355z" />
    <glyph glyph-name="dcaron" unicode="&#x10f;" horiz-adv-x="793" 
d="M769 421h-123l7 279h150zM423 0l-10 73q-52 -88 -168 -88q-97 0 -154.5 66.5t-57.5 191.5q0 132 60.5 202.5t160.5 70.5q89 0 137 -61v245h194v-700h-162zM394 250q0 125 -91 125q-84 0 -84 -126q0 -121 85 -121q41 0 65.5 31t24.5 91z" />
    <glyph glyph-name="Dcroat" unicode="&#x110;" horiz-adv-x="788" 
d="M401 0h-303v270h-67v148h67v282h319q168 0 246.5 -84t78.5 -261q0 -355 -341 -355zM299 160h86q75 0 115 45t40 147q0 188 -138 188h-103v-122h101v-148h-101v-110z" />
    <glyph glyph-name="dcroat" unicode="&#x111;" horiz-adv-x="653" 
d="M640 636v-95h-55v-541h-162l-11 77q-53 -92 -167 -92q-96 0 -154 66t-58 189q0 129 60.5 198t160.5 69q89 0 136 -58v92h-120v95h120v64h195v-64h55zM395 249q0 61 -24 90.5t-65 29.5q-87 0 -87 -120q0 -121 87 -121q41 0 65 31t24 90z" />
    <glyph glyph-name="Emacron" unicode="&#x112;" horiz-adv-x="693" 
d="M84 0v700h553v-155h-356v-113h306v-157h-306v-119h366v-156h-563zM521 883v-101h-306v101h306z" />
    <glyph glyph-name="emacron" unicode="&#x113;" horiz-adv-x="580" 
d="M305 -15q-127 0 -199.5 66t-72.5 195q0 126 70 198t195 72q126 0 186.5 -71.5t60.5 -187.5q0 -30 -4 -58h-326q13 -86 107 -86q70 0 100 52l112 -71q-63 -109 -229 -109zM296 384q-34 0 -56 -21t-26 -61h156q-5 82 -74 82zM445 685v-101h-306v101h306z" />
    <glyph glyph-name="Ebreve" unicode="&#x114;" horiz-adv-x="693" 
d="M84 0v700h553v-155h-356v-113h306v-157h-306v-119h366v-156h-563zM441 908h113q0 -81 -46.5 -114.5t-139.5 -33.5t-139 33.5t-46 114.5h112q0 -33 17 -46t56 -13t56 13t17 46z" />
    <glyph glyph-name="ebreve" unicode="&#x115;" horiz-adv-x="580" 
d="M305 -15q-127 0 -199.5 66t-72.5 195q0 126 70 198t195 72q126 0 186.5 -71.5t60.5 -187.5q0 -30 -4 -58h-326q13 -86 107 -86q70 0 100 52l112 -71q-63 -109 -229 -109zM296 384q-34 0 -56 -21t-26 -61h156q-5 82 -74 82zM364 710h113q0 -81 -46.5 -114.5t-139.5 -33.5
t-139 33.5t-46 114.5h112q0 -33 17 -46t56 -13t56 13t17 46z" />
    <glyph glyph-name="Edotaccent" unicode="&#x116;" horiz-adv-x="693" 
d="M84 0v700h553v-155h-356v-113h306v-157h-306v-119h366v-156h-563zM267 847q0 85 101 85q100 0 100 -85q0 -84 -100 -84q-101 0 -101 84z" />
    <glyph glyph-name="edotaccent" unicode="&#x117;" horiz-adv-x="580" 
d="M305 -15q-127 0 -199.5 66t-72.5 195q0 126 70 198t195 72q126 0 186.5 -71.5t60.5 -187.5q0 -30 -4 -58h-326q13 -86 107 -86q70 0 100 52l112 -71q-63 -109 -229 -109zM296 384q-34 0 -56 -21t-26 -61h156q-5 82 -74 82zM190 649q0 85 101 85q100 0 100 -85
q0 -84 -100 -84q-101 0 -101 84z" />
    <glyph glyph-name="Eogonek" unicode="&#x118;" horiz-adv-x="693" 
d="M84 0v700h553v-154h-358v-114h308v-157h-308v-119h368v-156q-47 -4 -69.5 -27.5t-22.5 -57.5q0 -51 66 -51q38 0 68 17l26 -90q-47 -29 -108 -29q-67 0 -113 32.5t-46 103.5q0 60 40 102h-404z" />
    <glyph glyph-name="eogonek" unicode="&#x119;" horiz-adv-x="580" 
d="M239 -104q0 54 28 91q-110 9 -172 74.5t-62 184.5q0 126 70 198t195 72q126 0 186.5 -71.5t60.5 -187.5q0 -30 -4 -58h-326q13 -86 107 -86q70 0 100 52l112 -71q-43 -76 -138 -99q-50 -24 -50 -76q0 -55 66 -55q38 0 69 17l25 -90q-46 -29 -107 -29q-67 0 -113.5 32.5
t-46.5 101.5zM296 384q-34 0 -56 -21t-26 -61h156q-5 82 -74 82z" />
    <glyph glyph-name="Ecaron" unicode="&#x11a;" horiz-adv-x="693" 
d="M374 858l57 52h140v-3l-124 -138h-156l-124 138v3h148zM84 0v700h553v-155h-356v-113h306v-157h-306v-119h366v-156h-563z" />
    <glyph glyph-name="ecaron" unicode="&#x11b;" horiz-adv-x="580" 
d="M298 659l57 52h140v-3l-124 -138h-156l-124 138v3h148zM305 -15q-127 0 -199.5 66t-72.5 195q0 126 70 198t195 72q126 0 186.5 -71.5t60.5 -187.5q0 -30 -4 -58h-326q13 -86 107 -86q70 0 100 52l112 -71q-63 -109 -229 -109zM296 384q-34 0 -56 -21t-26 -61h156
q-5 82 -74 82z" />
    <glyph glyph-name="Gcircumflex" unicode="&#x11c;" horiz-adv-x="754" 
d="M398 821l-56 -52h-141v4l124 137h155l125 -137v-4h-149zM365 -15q-150 0 -234 92.5t-84 273.5q0 186 88 275t267 89q218 0 282 -159l-162 -82q-21 42 -47.5 58.5t-74.5 16.5q-77 0 -113.5 -45.5t-36.5 -154.5q0 -112 38 -158t116 -46q48 0 82 24.5t40 73.5h-122v148h303
v-391h-137l-12 79q-58 -94 -193 -94z" />
    <glyph glyph-name="gcircumflex" unicode="&#x11d;" horiz-adv-x="638" 
d="M296 622l-56 -52h-141v4l124 137h155l125 -137v-4h-149zM582 502v-474q0 -123 -81 -187t-215 -64q-80 0 -144 25.5t-92 79.5l102 94q41 -65 125 -65q111 0 111 113v62q-46 -78 -148 -78q-95 0 -151.5 64t-56.5 187q0 126 60 191.5t161 65.5q111 0 159 -83l14 69h156z
M390 263q0 54 -24 83t-65 29q-85 0 -85 -113q0 -116 85 -116q42 0 65.5 30.5t23.5 86.5z" />
    <glyph glyph-name="Gbreve" unicode="&#x11e;" horiz-adv-x="754" 
d="M365 -15q-150 0 -234 92.5t-84 273.5q0 186 88 275t267 89q218 0 282 -159l-162 -82q-21 42 -47.5 58.5t-74.5 16.5q-77 0 -113.5 -45.5t-36.5 -154.5q0 -112 38 -158t116 -46q48 0 82 24.5t40 73.5h-122v148h303v-391h-137l-12 79q-58 -94 -193 -94zM474 909h113
q0 -81 -46.5 -114.5t-139.5 -33.5t-139 33.5t-46 114.5h112q0 -33 17 -46t56 -13t56 13t17 46z" />
    <glyph glyph-name="gbreve" unicode="&#x11f;" horiz-adv-x="638" 
d="M582 502v-474q0 -123 -81 -187t-215 -64q-80 0 -144 25.5t-92 79.5l102 94q41 -65 125 -65q111 0 111 113v62q-46 -78 -148 -78q-95 0 -151.5 64t-56.5 187q0 126 60 191.5t161 65.5q111 0 159 -83l14 69h156zM390 263q0 54 -24 83t-65 29q-85 0 -85 -113q0 -116 85 -116
q42 0 65.5 30.5t23.5 86.5zM372 710h113q0 -81 -46.5 -114.5t-139.5 -33.5t-139 33.5t-46 114.5h112q0 -33 17 -46t56 -13t56 13t17 46z" />
    <glyph glyph-name="Gdotaccent" unicode="&#x120;" horiz-adv-x="754" 
d="M365 -15q-150 0 -234 92.5t-84 273.5q0 186 88 275t267 89q218 0 282 -159l-162 -82q-21 42 -47.5 58.5t-74.5 16.5q-77 0 -113.5 -45.5t-36.5 -154.5q0 -112 38 -158t116 -46q48 0 82 24.5t40 73.5h-122v148h303v-391h-137l-12 79q-58 -94 -193 -94zM300 848
q0 85 101 85q100 0 100 -85q0 -84 -100 -84q-101 0 -101 84z" />
    <glyph glyph-name="gdotaccent" unicode="&#x121;" horiz-adv-x="638" 
d="M582 502v-474q0 -123 -81 -187t-215 -64q-80 0 -144 25.5t-92 79.5l102 94q41 -65 125 -65q111 0 111 113v62q-46 -78 -148 -78q-95 0 -151.5 64t-56.5 187q0 126 60 191.5t161 65.5q111 0 159 -83l14 69h156zM390 263q0 54 -24 83t-65 29q-85 0 -85 -113q0 -116 85 -116
q42 0 65.5 30.5t23.5 86.5zM198 649q0 85 101 85q100 0 100 -85q0 -84 -100 -84q-101 0 -101 84z" />
    <glyph glyph-name="Gcommaaccent" unicode="&#x122;" horiz-adv-x="754" 
d="M328 -354l-33 67q72 18 89 71q-44 0 -69 20.5t-25 59.5q0 86 98 86q47 0 73.5 -27.5t26.5 -80.5q0 -77 -44 -131t-116 -65zM365 -15q-150 0 -234 92.5t-84 273.5q0 186 88 275t267 89q218 0 282 -159l-162 -82q-21 42 -47.5 58.5t-74.5 16.5q-77 0 -113.5 -45.5
t-36.5 -154.5q0 -112 38 -158t116 -46q48 0 82 24.5t40 73.5h-122v148h303v-391h-137l-12 79q-58 -94 -193 -94z" />
    <glyph glyph-name="gcommaaccent" unicode="&#x123;" horiz-adv-x="638" 
d="M359 862l33 -67q-72 -18 -89 -71q44 0 69 -20.5t25 -59.5q0 -86 -98 -86q-47 0 -73.5 27.5t-26.5 80.5q0 77 44 131t116 65zM582 502v-474q0 -123 -81 -187t-215 -64q-80 0 -144 25.5t-92 79.5l102 94q41 -65 125 -65q111 0 111 113v62q-46 -78 -148 -78q-95 0 -151.5 64
t-56.5 187q0 126 60 191.5t161 65.5q111 0 159 -83l14 69h156zM390 263q0 54 -24 83t-65 29q-85 0 -85 -113q0 -116 85 -116q42 0 65.5 30.5t23.5 86.5z" />
    <glyph glyph-name="Hcircumflex" unicode="&#x124;" horiz-adv-x="825" 
d="M409 820l-56 -52h-141v4l124 137h155l125 -137v-4h-149zM538 0v263h-252v-263h-202v700h202v-266h252v266h202v-700h-202z" />
    <glyph glyph-name="hcircumflex" unicode="&#x125;" horiz-adv-x="654" 
d="M150 810l-56 -52h-141v4l124 137h155l125 -137v-4h-149zM251 700v-287q55 103 170 103q90 0 135 -54.5t45 -145.5v-316h-194v247q0 56 -17 78t-55 22t-60.5 -26t-23.5 -77v-244h-194v700h194z" />
    <glyph glyph-name="Hbar" unicode="&#x126;" horiz-adv-x="845" 
d="M549 0v263h-253v-263h-202v507h-62v97h62v96h202v-96h253v96h201v-96h63v-97h-63v-507h-201zM296 434h253v73h-253v-73z" />
    <glyph glyph-name="hbar" unicode="&#x127;" horiz-adv-x="666" 
d="M13 541v95h56v64h193v-64h120v-95h-120v-137q26 51 71 78.5t100 27.5q83 0 131 -52t48 -151v-307h-194v234q0 57 -17 80t-54 23q-38 0 -61 -26.5t-24 -79.5v-231h-193v541h-56z" />
    <glyph glyph-name="Itilde" unicode="&#x128;" horiz-adv-x="371" 
d="M84 0v700h202v-700h-202zM270 906h109q5 -69 -28 -101t-81 -32q-34 0 -79.5 15.5t-62.5 15.5q-28 0 -28 -32h-109q-5 69 28 101t81 32q34 0 79.5 -15.5t62.5 -15.5q28 0 28 32z" />
    <glyph glyph-name="itilde" unicode="&#x129;" horiz-adv-x="309" 
d="M58 502h194v-502h-194v502zM239 708h109q5 -69 -28 -101t-81 -32q-34 0 -79.5 15.5t-62.5 15.5q-28 0 -28 -32h-109q-5 69 28 101t81 32q34 0 79.5 -15.5t62.5 -15.5q28 0 28 32z" />
    <glyph glyph-name="Imacron" unicode="&#x12a;" horiz-adv-x="371" 
d="M84 0v700h202v-700h-202zM339 883v-101h-306v101h306z" />
    <glyph glyph-name="imacron" unicode="&#x12b;" horiz-adv-x="309" 
d="M58 502h194v-502h-194v502zM307 685v-101h-306v101h306z" />
    <glyph glyph-name="Ibreve" unicode="&#x12c;" horiz-adv-x="371" 
d="M84 0v700h202v-700h-202zM258 908h113q0 -81 -46.5 -114.5t-139.5 -33.5t-139 33.5t-46 114.5h112q0 -33 17 -46t56 -13t56 13t17 46z" />
    <glyph glyph-name="ibreve" unicode="&#x12d;" horiz-adv-x="309" 
d="M58 502h194v-502h-194v502zM227 710h113q0 -81 -46.5 -114.5t-139.5 -33.5t-139 33.5t-46 114.5h112q0 -33 17 -46t56 -13t56 13t17 46z" />
    <glyph glyph-name="Iogonek" unicode="&#x12e;" horiz-adv-x="371" 
d="M150 -238q-67 0 -113 32.5t-46 103.5q0 49 25.5 85t67.5 55v662h202v-700h-100q-44 -4 -66 -27.5t-22 -57.5q0 -51 66 -51q38 0 68 17l26 -90q-47 -29 -108 -29z" />
    <glyph glyph-name="iogonek" unicode="&#x12f;" horiz-adv-x="309" 
d="M119 -238q-66 0 -112 32.5t-46 103.5q0 50 26.5 86.5t70.5 55.5v462h194v-502h-96q-45 -4 -66.5 -27.5t-21.5 -57.5q0 -51 66 -51q38 0 68 17l26 -90q-47 -29 -109 -29zM47 646q0 95 108 95q106 0 106 -95q0 -93 -106 -93q-108 0 -108 93z" />
    <glyph glyph-name="Idotaccent" unicode="&#x130;" horiz-adv-x="371" 
d="M84 0v700h202v-700h-202zM84 847q0 85 101 85q100 0 100 -85q0 -84 -100 -84q-101 0 -101 84z" />
    <glyph glyph-name="dotlessi" unicode="&#x131;" horiz-adv-x="309" 
d="M58 502h194v-502h-194v502z" />
    <glyph glyph-name="IJ" unicode="&#x132;" horiz-adv-x="934" 
d="M85 0v700h202v-700h-202zM569 -15q-124 0 -204 69l79 137q50 -44 118 -44q102 0 102 119v434h202v-436q0 -146 -79.5 -212.5t-217.5 -66.5z" />
    <glyph glyph-name="ij" unicode="&#x133;" horiz-adv-x="618" 
d="M58 502h194v-502h-194v502zM47 646q0 95 108 95q106 0 106 -95q0 -93 -106 -93q-108 0 -108 93zM367 -13v515h194v-525q0 -99 -57.5 -149.5t-155.5 -50.5q-73 0 -122 26l31 122q21 -11 50 -11q32 0 46 17t14 56zM356 646q0 95 108 95q106 0 106 -95q0 -93 -106 -93
q-108 0 -108 93z" />
    <glyph glyph-name="Jcircumflex" unicode="&#x134;" horiz-adv-x="561" 
d="M392 820l-56 -52h-141v4l124 137h155l125 -137v-4h-149zM196 -15q-124 0 -204 69l79 137q50 -44 118 -44q102 0 102 119v434h202v-436q0 -146 -79.5 -212.5t-217.5 -66.5z" />
    <glyph glyph-name="jcircumflex" unicode="&#x135;" horiz-adv-x="309" 
d="M58 -13v515h194v-525q0 -99 -57.5 -149.5t-155.5 -50.5q-73 0 -122 26l31 122q21 -11 50 -11q32 0 46 17t14 56zM151 622l-56 -52h-141v4l124 137h155l125 -137v-4h-149z" />
    <glyph glyph-name="Kcommaaccent" unicode="&#x136;" horiz-adv-x="759" 
d="M339 -354l-33 67q72 18 89 71q-44 0 -69 20.5t-25 59.5q0 86 98 86q47 0 73.5 -27.5t26.5 -80.5q0 -77 -44 -131t-116 -65zM84 0v700h202l-1 -298l231 298h237l-257 -310l251 -390h-243l-147 244l-71 -80v-164h-202z" />
    <glyph glyph-name="kcommaaccent" unicode="&#x137;" horiz-adv-x="614" 
d="M265 -354l-33 67q72 18 89 71q-44 0 -69 20.5t-25 59.5q0 86 98 86q47 0 73.5 -27.5t26.5 -80.5q0 -77 -44 -131t-116 -65zM57 0v700h194l-6 -407l158 209h205l-183 -222l186 -280h-211l-101 156l-51 -58v-98h-191z" />
    <glyph glyph-name="kgreenlandic" unicode="&#x138;" horiz-adv-x="614" 
d="M57 0v502h190l-2 -210l158 210h205l-183 -222l186 -280h-211l-101 155l-51 -57v-98h-191z" />
    <glyph glyph-name="Lacute" unicode="&#x139;" horiz-adv-x="652" 
d="M382 902l-136 -134h-147v5l84 136h199v-7zM287 166h340v-166h-543v700h203v-534z" />
    <glyph glyph-name="lacute" unicode="&#x13a;" horiz-adv-x="309" 
d="M347 902l-136 -134h-147v5l84 136h199v-7zM253 700v-700h-194v700h194z" />
    <glyph glyph-name="Lcommaaccent" unicode="&#x13b;" horiz-adv-x="652" 
d="M300 -354l-33 67q72 18 89 71q-44 0 -69 20.5t-25 59.5q0 86 98 86q47 0 73.5 -27.5t26.5 -80.5q0 -77 -44 -131t-116 -65zM287 166h340v-166h-543v700h203v-534z" />
    <glyph glyph-name="lcommaaccent" unicode="&#x13c;" horiz-adv-x="312" 
d="M100 -354l-33 67q72 18 89 71q-44 0 -69 20.5t-25 59.5q0 86 98 86q47 0 73.5 -27.5t26.5 -80.5q0 -77 -44 -131t-116 -65zM253 700v-700h-194v700h194z" />
    <glyph glyph-name="Lcaron" unicode="&#x13d;" horiz-adv-x="652" 
d="M526 421h-123l7 279h150zM287 166h340v-166h-543v700h203v-534z" />
    <glyph glyph-name="lcaron" unicode="&#x13e;" horiz-adv-x="464" 
d="M440 421h-123l7 279h150zM253 700v-700h-194v700h194z" />
    <glyph glyph-name="Ldot" unicode="&#x13f;" horiz-adv-x="652" 
d="M287 166h340v-166h-543v700h203v-534zM402 361q0 85 101 85q100 0 100 -85q0 -84 -100 -84q-101 0 -101 84z" />
    <glyph glyph-name="ldot" unicode="&#x140;" horiz-adv-x="477" 
d="M253 700v-700h-194v700h194zM292 303q0 85 101 85q100 0 100 -85q0 -84 -100 -84q-101 0 -101 84z" />
    <glyph glyph-name="Lslash" unicode="&#x141;" horiz-adv-x="668" 
d="M303 166h341v-166h-543v201l-79 -42v151l79 41v349h202v-253l160 81v-151l-160 -81v-130z" />
    <glyph glyph-name="lslash" unicode="&#x142;" horiz-adv-x="339" 
d="M267 700v-230l77 55v-151l-77 -54v-320h-194v203l-72 -51v151l72 51v346h194z" />
    <glyph glyph-name="Nacute" unicode="&#x143;" horiz-adv-x="821" 
d="M605 903l-136 -134h-147v5l84 136h199v-7zM567 0l-298 382l5 -382h-190v700h150l317 -415l-4 415h190v-700h-170z" />
    <glyph glyph-name="nacute" unicode="&#x144;" horiz-adv-x="654" 
d="M545 704l-136 -134h-147v5l84 136h199v-7zM57 502h159l15 -89q60 103 183 103q95 0 141 -54t46 -146v-316h-194v247q0 56 -17 78t-55 22t-60.5 -26t-23.5 -77v-244h-194v502z" />
    <glyph glyph-name="Ncommaaccent" unicode="&#x145;" horiz-adv-x="821" 
d="M355 -354l-33 67q72 18 89 71q-44 0 -69 20.5t-25 59.5q0 86 98 86q47 0 73.5 -27.5t26.5 -80.5q0 -77 -44 -131t-116 -65zM567 0l-298 382l5 -382h-190v700h150l317 -415l-4 415h190v-700h-170z" />
    <glyph glyph-name="ncommaaccent" unicode="&#x146;" horiz-adv-x="654" 
d="M275 -354l-33 67q72 18 89 71q-44 0 -69 20.5t-25 59.5q0 86 98 86q47 0 73.5 -27.5t26.5 -80.5q0 -77 -44 -131t-116 -65zM57 502h159l15 -89q60 103 183 103q95 0 141 -54t46 -146v-316h-194v247q0 56 -17 78t-55 22t-60.5 -26t-23.5 -77v-244h-194v502z" />
    <glyph glyph-name="Ncaron" unicode="&#x147;" horiz-adv-x="821" 
d="M416 858l57 52h140v-3l-124 -138h-156l-124 138v3h148zM567 0l-298 382l5 -382h-190v700h150l317 -415l-4 415h190v-700h-170z" />
    <glyph glyph-name="ncaron" unicode="&#x148;" horiz-adv-x="654" 
d="M356 659l57 52h140v-3l-124 -138h-156l-124 138v3h148zM57 502h159l15 -89q60 103 183 103q95 0 141 -54t46 -146v-316h-194v247q0 56 -17 78t-55 22t-60.5 -26t-23.5 -77v-244h-194v502z" />
    <glyph glyph-name="Eng" unicode="&#x14a;" horiz-adv-x="821" 
d="M546 -13v37l-277 358l5 -382h-190v700h150l317 -415l-4 415h190v-723q0 -99 -57.5 -149.5t-154.5 -50.5q-74 0 -122 26l30 122q22 -11 51 -11q33 0 47.5 16.5t14.5 56.5z" />
    <glyph glyph-name="eng" unicode="&#x14b;" horiz-adv-x="654" 
d="M407 -13v260q0 56 -17 78t-55 22t-60.5 -26t-23.5 -77v-244h-194v502h159l16 -88q56 102 182 102q95 0 141 -54t46 -146v-339q0 -99 -57.5 -149.5t-154.5 -50.5q-73 0 -122 26l31 122q21 -11 50 -11q32 0 45.5 16.5t13.5 56.5z" />
    <glyph glyph-name="Omacron" unicode="&#x14c;" horiz-adv-x="798" 
d="M549 884v-101h-306v101h306zM47 351q0 183 87 273.5t266 90.5q184 0 268 -90t84 -275q0 -183 -87.5 -274t-266.5 -91q-182 0 -266.5 90.5t-84.5 275.5zM250 349q0 -107 36.5 -153.5t111.5 -46.5q76 0 112 46.5t36 155.5q0 107 -36 153t-111 46q-77 0 -113 -46t-36 -155z
" />
    <glyph glyph-name="omacron" unicode="&#x14d;" horiz-adv-x="616" 
d="M461 685v-101h-306v101h306zM399 250q0 64 -21.5 93.5t-69.5 29.5q-49 0 -70.5 -29.5t-21.5 -93.5q0 -65 22 -95t70 -30q47 0 69 30t22 95zM34 251q0 133 71.5 199t202.5 66q138 0 206 -64.5t68 -200.5q0 -131 -70 -198.5t-204 -67.5q-274 0 -274 266z" />
    <glyph glyph-name="Obreve" unicode="&#x14e;" horiz-adv-x="798" 
d="M47 351q0 183 87 273.5t266 90.5q184 0 268 -90t84 -275q0 -183 -87.5 -274t-266.5 -91q-182 0 -266.5 90.5t-84.5 275.5zM250 349q0 -107 36.5 -153.5t111.5 -46.5q76 0 112 46.5t36 155.5q0 107 -36 153t-111 46q-77 0 -113 -46t-36 -155zM468 909h113
q0 -81 -46.5 -114.5t-139.5 -33.5t-139 33.5t-46 114.5h112q0 -33 17 -46t56 -13t56 13t17 46z" />
    <glyph glyph-name="obreve" unicode="&#x14f;" horiz-adv-x="616" 
d="M399 250q0 64 -21.5 93.5t-69.5 29.5q-49 0 -70.5 -29.5t-21.5 -93.5q0 -65 22 -95t70 -30q47 0 69 30t22 95zM34 251q0 133 71.5 199t202.5 66q138 0 206 -64.5t68 -200.5q0 -131 -70 -198.5t-204 -67.5q-274 0 -274 266zM381 710h113q0 -81 -46.5 -114.5t-139.5 -33.5
t-139 33.5t-46 114.5h112q0 -33 17 -46t56 -13t56 13t17 46z" />
    <glyph glyph-name="Ohungarumlaut" unicode="&#x150;" horiz-adv-x="798" 
d="M463 903l-123 -134h-124v5l70 136h177v-7zM690 905l-134 -136h-137v5l79 136h192v-5zM47 351q0 183 87 273.5t266 90.5q184 0 268 -90t84 -275q0 -183 -87.5 -274t-266.5 -91q-182 0 -266.5 90.5t-84.5 275.5zM250 349q0 -107 36.5 -153.5t111.5 -46.5q76 0 112 46.5
t36 155.5q0 107 -36 153t-111 46q-77 0 -113 -46t-36 -155z" />
    <glyph glyph-name="ohungarumlaut" unicode="&#x151;" horiz-adv-x="616" 
d="M375 704l-123 -134h-124v5l70 136h177v-7zM602 706l-134 -136h-137v5l79 136h192v-5zM399 250q0 64 -21.5 93.5t-69.5 29.5q-49 0 -70.5 -29.5t-21.5 -93.5q0 -65 22 -95t70 -30q47 0 69 30t22 95zM34 251q0 133 71.5 199t202.5 66q138 0 206 -64.5t68 -200.5
q0 -131 -70 -198.5t-204 -67.5q-274 0 -274 266z" />
    <glyph glyph-name="OE" unicode="&#x152;" horiz-adv-x="1101" 
d="M1055 0h-669q-340 0 -340 351q0 349 342 349h657v-155h-354v-113h304v-157h-304v-119h364v-156zM386 160h108v380h-98q-73 0 -109.5 -44.5t-36.5 -146.5q0 -189 136 -189z" />
    <glyph glyph-name="oe" unicode="&#x153;" horiz-adv-x="949" 
d="M33 251q0 133 72 199t203 66q120 0 182 -56q68 56 177 56q126 0 186.5 -71.5t60.5 -187.5q0 -30 -4 -58h-326q13 -86 107 -86q70 0 100 52l112 -71q-63 -109 -229 -109q-119 0 -188 56q-64 -56 -178 -56q-275 0 -275 266zM399 250q0 64 -21.5 93.5t-70.5 29.5
q-48 0 -69.5 -29.5t-21.5 -93.5q0 -65 22 -95t69 -30t69.5 30t22.5 95zM665 384q-34 0 -56 -21t-26 -61h156q-5 82 -74 82z" />
    <glyph glyph-name="Racute" unicode="&#x154;" horiz-adv-x="733" 
d="M585 903l-136 -134h-147v5l84 136h199v-7zM84 0v700h373q116 0 177.5 -65t61.5 -175q0 -149 -109 -209l114 -251h-221l-88 213h-110v-213h-198zM416 536h-134v-165h131q39 0 60.5 22t21.5 62q0 36 -19.5 58.5t-59.5 22.5z" />
    <glyph glyph-name="racute" unicode="&#x155;" horiz-adv-x="427" 
d="M426 704l-136 -134h-147v5l84 136h199v-7zM57 0v502h159l16 -97q26 53 71.5 83t102.5 30l2 -184q-77 5 -116.5 -37t-40.5 -118v-179h-194z" />
    <glyph glyph-name="Rcommaaccent" unicode="&#x156;" horiz-adv-x="733" 
d="M322 -354l-33 67q72 18 89 71q-44 0 -69 20.5t-25 59.5q0 86 98 86q47 0 73.5 -27.5t26.5 -80.5q0 -77 -44 -131t-116 -65zM84 0v700h373q116 0 177.5 -65t61.5 -175q0 -149 -109 -209l114 -251h-221l-88 213h-110v-213h-198zM416 536h-134v-165h131q39 0 60.5 22
t21.5 62q0 36 -19.5 58.5t-59.5 22.5z" />
    <glyph glyph-name="rcommaaccent" unicode="&#x157;" horiz-adv-x="427" 
d="M98 -354l-33 67q72 18 89 71q-44 0 -69 20.5t-25 59.5q0 86 98 86q47 0 73.5 -27.5t26.5 -80.5q0 -77 -44 -131t-116 -65zM57 0v502h159l16 -97q26 53 71.5 83t102.5 30l2 -184q-77 5 -116.5 -37t-40.5 -118v-179h-194z" />
    <glyph glyph-name="Rcaron" unicode="&#x158;" horiz-adv-x="733" 
d="M396 858l57 52h140v-3l-124 -138h-156l-124 138v3h148zM84 0v700h373q116 0 177.5 -65t61.5 -175q0 -149 -109 -209l114 -251h-221l-88 213h-110v-213h-198zM416 536h-134v-165h131q39 0 60.5 22t21.5 62q0 36 -19.5 58.5t-59.5 22.5z" />
    <glyph glyph-name="rcaron" unicode="&#x159;" horiz-adv-x="427" 
d="M247 659l57 52h140v-3l-124 -138h-156l-124 138v3h148zM57 0v502h159l16 -97q26 53 71.5 83t102.5 30l2 -184q-77 5 -116.5 -37t-40.5 -118v-179h-194z" />
    <glyph glyph-name="Sacute" unicode="&#x15a;" horiz-adv-x="641" 
d="M512 903l-136 -134h-147v5l84 136h199v-7zM588 582l-129 -91q-27 38 -58 56t-79 18q-95 0 -95 -58q0 -25 22 -41t73 -29l61 -15q122 -30 171 -83.5t49 -135.5q0 -102 -77 -160t-221 -58q-213 0 -285 136l123 96q27 -48 65 -69t96 -21q110 0 110 67q0 23 -17 35.5
t-65 24.5l-64 16q-222 56 -222 228q0 99 71 158t206 59q195 0 265 -133z" />
    <glyph glyph-name="sacute" unicode="&#x15b;" horiz-adv-x="510" 
d="M449 704l-136 -134h-147v5l84 136h199v-7zM243 106q64 0 64 30q0 14 -13 21.5t-46 14.5l-42 10q-167 39 -167 170q0 74 55.5 119t165.5 45q153 0 220 -89l-90 -92q-45 54 -125 54q-61 0 -61 -30q0 -26 58 -38l58 -13q157 -35 157 -156q0 -71 -57 -118.5t-178 -47.5
q-169 0 -234 92l84 90q45 -62 151 -62z" />
    <glyph glyph-name="Scircumflex" unicode="&#x15c;" horiz-adv-x="641" 
d="M313 820l-56 -52h-141v4l124 137h155l125 -137v-4h-149zM588 582l-129 -91q-27 38 -58 56t-79 18q-95 0 -95 -58q0 -25 22 -41t73 -29l61 -15q122 -30 171 -83.5t49 -135.5q0 -102 -77 -160t-221 -58q-213 0 -285 136l123 96q27 -48 65 -69t96 -21q110 0 110 67
q0 23 -17 35.5t-65 24.5l-64 16q-222 56 -222 228q0 99 71 158t206 59q195 0 265 -133z" />
    <glyph glyph-name="scircumflex" unicode="&#x15d;" horiz-adv-x="510" 
d="M247 622l-56 -52h-141v4l124 137h155l125 -137v-4h-149zM243 106q64 0 64 30q0 14 -13 21.5t-46 14.5l-42 10q-167 39 -167 170q0 74 55.5 119t165.5 45q153 0 220 -89l-90 -92q-45 54 -125 54q-61 0 -61 -30q0 -26 58 -38l58 -13q157 -35 157 -156q0 -71 -57 -118.5
t-178 -47.5q-169 0 -234 92l84 90q45 -62 151 -62z" />
    <glyph glyph-name="Scedilla" unicode="&#x15e;" horiz-adv-x="641" 
d="M588 582l-129 -91q-27 38 -58 56t-79 18q-95 0 -95 -58q0 -25 22 -41t73 -29l61 -15q122 -30 171 -83.5t49 -135.5q0 -90 -60.5 -146.5t-176.5 -68.5l-14 -33h1q46 -4 77.5 -29t31.5 -67q0 -56 -43 -86.5t-108 -30.5q-107 0 -153 74l60 62q34 -48 86 -48q47 0 47 35
q0 15 -14 24.5t-38 9.5q-4 0 -7.5 -0.5t-8 -1.5t-7.5 -1l-27 15l27 75q-190 9 -256 135l123 96q27 -48 65 -69t96 -21q110 0 110 67q0 23 -17 35.5t-65 24.5l-64 16q-222 56 -222 228q0 99 71 158t206 59q195 0 265 -133z" />
    <glyph glyph-name="scedilla" unicode="&#x15f;" horiz-adv-x="510" 
d="M243 106q64 0 64 30q0 14 -13 21.5t-46 14.5l-42 10q-167 39 -167 170q0 74 55.5 119t165.5 45q153 0 220 -89l-90 -92q-45 54 -125 54q-61 0 -61 -30q0 -26 58 -38l58 -13q157 -35 157 -156q0 -64 -46 -109.5t-144 -54.5l-14 -33h1q46 -4 77.5 -29t31.5 -67
q0 -56 -43 -86.5t-108 -30.5q-107 0 -153 74l60 62q34 -48 86 -48q47 0 47 35q0 15 -14 24.5t-38 9.5q-4 0 -7.5 -0.5t-8 -1.5t-7.5 -1l-27 15l27 77q-135 13 -189 90l84 90q45 -62 151 -62z" />
    <glyph glyph-name="Scaron" unicode="&#x160;" horiz-adv-x="641" 
d="M323 858l57 52h140v-3l-124 -138h-156l-124 138v3h148zM588 582l-129 -91q-27 38 -58 56t-79 18q-95 0 -95 -58q0 -25 22 -41t73 -29l61 -15q122 -30 171 -83.5t49 -135.5q0 -102 -77 -160t-221 -58q-213 0 -285 136l123 96q27 -48 65 -69t96 -21q110 0 110 67
q0 23 -17 35.5t-65 24.5l-64 16q-222 56 -222 228q0 99 71 158t206 59q195 0 265 -133z" />
    <glyph glyph-name="scaron" unicode="&#x161;" horiz-adv-x="510" 
d="M257 659l57 52h140v-3l-124 -138h-156l-124 138v3h148zM243 106q64 0 64 30q0 14 -13 21.5t-46 14.5l-42 10q-167 39 -167 170q0 74 55.5 119t165.5 45q153 0 220 -89l-90 -92q-45 54 -125 54q-61 0 -61 -30q0 -26 58 -38l58 -13q157 -35 157 -156q0 -71 -57 -118.5
t-178 -47.5q-169 0 -234 92l84 90q45 -62 151 -62z" />
    <glyph glyph-name="Tcommaaccent" unicode="&#x162;" horiz-adv-x="645" 
d="M263 -354l-33 67q72 18 89 71q-44 0 -69 20.5t-25 59.5q0 86 98 86q47 0 73.5 -27.5t26.5 -80.5q0 -77 -44 -131t-116 -65zM15 700h615v-170h-207v-530h-201v530h-207v170z" />
    <glyph glyph-name="tcommaaccent" unicode="&#x163;" horiz-adv-x="429" 
d="M220 -354l-33 67q72 18 89 71q-44 0 -69 20.5t-25 59.5q0 86 98 86q47 0 73.5 -27.5t26.5 -80.5q0 -77 -44 -131t-116 -65zM13 502h71v140h190v-140h129v-140h-129v-173q0 -67 64 -67q35 0 62 14l25 -115q-61 -36 -144 -36q-197 0 -197 185v192h-71v140z" />
    <glyph glyph-name="Tcaron" unicode="&#x164;" horiz-adv-x="645" 
d="M328 858l57 52h140v-3l-124 -138h-156l-124 138v3h148zM15 700h615v-170h-207v-530h-201v530h-207v170z" />
    <glyph glyph-name="tcaron" unicode="&#x165;" horiz-adv-x="447" 
d="M446 554h-118l7 197h135zM13 502h71v140h190v-140h129v-140h-129v-173q0 -67 64 -67q35 0 62 14l25 -115q-61 -36 -144 -36q-197 0 -197 185v192h-71v140z" />
    <glyph glyph-name="Tbar" unicode="&#x166;" horiz-adv-x="646" 
d="M15 700h615v-170h-206v-128h157v-140h-157v-262h-202v262h-155v140h155v128h-207v170z" />
    <glyph glyph-name="tbar" unicode="&#x167;" horiz-adv-x="429" 
d="M403 502v-140h-129v-51h128v-96h-128v-32q3 -61 64 -61q36 0 62 15l25 -116q-61 -36 -144 -36q-197 0 -197 185v45h-71v96h71v51h-71v140h71v140h190v-140h129z" />
    <glyph glyph-name="Utilde" unicode="&#x168;" horiz-adv-x="781" 
d="M512 279v421h201v-410q0 -160 -82 -232.5t-239 -72.5q-161 0 -242.5 73t-81.5 232v410h201v-421q0 -63 31.5 -95.5t90.5 -32.5t90 32.5t31 95.5zM476 906h109q5 -69 -28 -101t-81 -32q-34 0 -79.5 15.5t-62.5 15.5q-28 0 -28 -32h-109q-5 69 28 101t81 32
q34 0 79.5 -15.5t62.5 -15.5q28 0 28 32z" />
    <glyph glyph-name="utilde" unicode="&#x169;" horiz-adv-x="652" 
d="M435 0l-15 83q-27 -47 -72.5 -72.5t-101.5 -25.5q-98 0 -145.5 52.5t-47.5 138.5v326h194v-267q0 -47 17 -69t54 -22q34 0 57 26.5t24 75.5v256h193v-502h-157zM407 708h109q5 -69 -28 -101t-81 -32q-34 0 -79.5 15.5t-62.5 15.5q-28 0 -28 -32h-109q-5 69 28 101t81 32
q34 0 79.5 -15.5t62.5 -15.5q28 0 28 32z" />
    <glyph glyph-name="Umacron" unicode="&#x16a;" horiz-adv-x="781" 
d="M512 279v421h201v-410q0 -160 -82 -232.5t-239 -72.5q-161 0 -242.5 73t-81.5 232v410h201v-421q0 -63 31.5 -95.5t90.5 -32.5t90 32.5t31 95.5zM544 883v-101h-306v101h306z" />
    <glyph glyph-name="umacron" unicode="&#x16b;" horiz-adv-x="652" 
d="M435 0l-15 83q-27 -47 -72.5 -72.5t-101.5 -25.5q-98 0 -145.5 52.5t-47.5 138.5v326h194v-267q0 -47 17 -69t54 -22q34 0 57 26.5t24 75.5v256h193v-502h-157zM475 685v-101h-306v101h306z" />
    <glyph glyph-name="Ubreve" unicode="&#x16c;" horiz-adv-x="781" 
d="M512 279v421h201v-410q0 -160 -82 -232.5t-239 -72.5q-161 0 -242.5 73t-81.5 232v410h201v-421q0 -63 31.5 -95.5t90.5 -32.5t90 32.5t31 95.5zM464 908h113q0 -81 -46.5 -114.5t-139.5 -33.5t-139 33.5t-46 114.5h112q0 -33 17 -46t56 -13t56 13t17 46z" />
    <glyph glyph-name="ubreve" unicode="&#x16d;" horiz-adv-x="652" 
d="M435 0l-15 83q-27 -47 -72.5 -72.5t-101.5 -25.5q-98 0 -145.5 52.5t-47.5 138.5v326h194v-267q0 -47 17 -69t54 -22q34 0 57 26.5t24 75.5v256h193v-502h-157zM395 710h113q0 -81 -46.5 -114.5t-139.5 -33.5t-139 33.5t-46 114.5h112q0 -33 17 -46t56 -13t56 13t17 46z
" />
    <glyph glyph-name="Uring" unicode="&#x16e;" horiz-adv-x="781" 
d="M267 857q0 51 34 79.5t90 28.5q55 0 89 -28.5t34 -79.5q0 -52 -34 -80.5t-90 -28.5q-55 0 -89 28.5t-34 80.5zM347 857q0 -20 12 -31.5t31 -11.5q20 0 32 11.5t12 31.5q0 19 -12 30t-31 11q-20 0 -32 -11t-12 -30zM512 279v421h201v-410q0 -160 -82 -232.5t-239 -72.5
q-161 0 -242.5 73t-81.5 232v410h201v-421q0 -63 31.5 -95.5t90.5 -32.5t90 32.5t31 95.5z" />
    <glyph glyph-name="uring" unicode="&#x16f;" horiz-adv-x="652" 
d="M198 659q0 51 34 79.5t90 28.5q55 0 89 -28.5t34 -79.5q0 -52 -34 -80.5t-90 -28.5q-55 0 -89 28.5t-34 80.5zM278 659q0 -20 12 -31.5t31 -11.5q20 0 32 11.5t12 31.5q0 19 -12 30t-31 11q-20 0 -32 -11t-12 -30zM435 0l-15 83q-27 -47 -72.5 -72.5t-101.5 -25.5
q-98 0 -145.5 52.5t-47.5 138.5v326h194v-267q0 -47 17 -69t54 -22q34 0 57 26.5t24 75.5v256h193v-502h-157z" />
    <glyph glyph-name="Uhungarumlaut" unicode="&#x170;" horiz-adv-x="781" 
d="M512 279v421h201v-410q0 -160 -82 -232.5t-239 -72.5q-161 0 -242.5 73t-81.5 232v410h201v-421q0 -63 31.5 -95.5t90.5 -32.5t90 32.5t31 95.5zM458 902l-123 -134h-124v5l70 136h177v-7zM685 904l-134 -136h-137v5l79 136h192v-5z" />
    <glyph glyph-name="uhungarumlaut" unicode="&#x171;" horiz-adv-x="652" 
d="M435 0l-15 83q-27 -47 -72.5 -72.5t-101.5 -25.5q-98 0 -145.5 52.5t-47.5 138.5v326h194v-267q0 -47 17 -69t54 -22q34 0 57 26.5t24 75.5v256h193v-502h-157zM387 704l-123 -134h-124v5l70 136h177v-7zM614 706l-134 -136h-137v5l79 136h192v-5z" />
    <glyph glyph-name="Uogonek" unicode="&#x172;" horiz-adv-x="781" 
d="M375 -98q0 45 23 83h-9q-160 1 -240.5 74t-80.5 231v410h203v-421q0 -63 31 -95t89 -32q120 0 120 127v421h203v-410q0 -118 -44.5 -186.5t-132.5 -98.5q-55 -21 -55 -79q0 -32 18.5 -47t46.5 -15q37 0 69 18l26 -90q-45 -29 -108 -29q-67 0 -113 33t-46 106z" />
    <glyph glyph-name="uogonek" unicode="&#x173;" horiz-adv-x="650" 
d="M530 -238q-66 0 -112.5 32.5t-46.5 103.5q0 74 60 119l-11 66q-27 -47 -72.5 -72.5t-101.5 -25.5q-98 0 -145.5 52.5t-47.5 138.5v326h194v-267q0 -47 17 -69t54 -22q34 0 57 26.5t24 75.5v256h193v-502q-114 1 -114 -85q0 -51 66 -51q38 0 69 17l25 -90
q-46 -29 -108 -29z" />
    <glyph glyph-name="Wcircumflex" unicode="&#x174;" horiz-adv-x="997" 
d="M495 820l-56 -52h-141v4l124 137h155l125 -137v-4h-149zM415 699h172l106 -427l101 428h198l-196 -700h-198l-101 419l-103 -419h-193l-195 700h205l97 -424z" />
    <glyph glyph-name="wcircumflex" unicode="&#x175;" horiz-adv-x="813" 
d="M403 622l-56 -52h-141v4l124 137h155l125 -137v-4h-149zM337 501h145l83 -276l70 277h173l-155 -502h-167l-79 285l-79 -285h-166l-157 502h178l73 -275z" />
    <glyph glyph-name="Ycircumflex" unicode="&#x176;" horiz-adv-x="718" 
d="M258 251l-251 449h224l135 -275l133 275h212l-251 -455v-245h-202v251zM356 820l-56 -52h-141v4l124 137h155l125 -137v-4h-149z" />
    <glyph glyph-name="ycircumflex" unicode="&#x177;" horiz-adv-x="595" 
d="M189 -29l10 31l-194 500h200l96 -293l90 293h199l-230 -594q-51 -130 -220 -130q-70 0 -121 22l17 134q39 -18 76 -18q58 0 77 55zM293 622l-56 -52h-141v4l124 137h155l125 -137v-4h-149z" />
    <glyph glyph-name="Ydieresis" unicode="&#x178;" horiz-adv-x="718" 
d="M258 251l-251 449h224l135 -275l133 275h212l-251 -455v-245h-202v251zM150 847q0 83 95 83t95 -83q0 -84 -95 -84t-95 84zM379 847q0 83 96 83q95 0 95 -83q0 -84 -95 -84q-96 0 -96 84z" />
    <glyph glyph-name="Zacute" unicode="&#x179;" horiz-adv-x="634" 
d="M510 903l-136 -134h-147v5l84 136h199v-7zM21 0v120l332 423l-320 -4v161h567v-118l-330 -425l339 4v-161h-588z" />
    <glyph glyph-name="zacute" unicode="&#x17a;" horiz-adv-x="519" 
d="M454 704l-136 -134h-147v5l84 136h199v-7zM27 0v106l230 256h-226v140h451v-112l-227 -251h236v-139h-464z" />
    <glyph glyph-name="Zdotaccent" unicode="&#x17b;" horiz-adv-x="634" 
d="M21 0v120l332 423l-320 -4v161h567v-118l-330 -425l339 4v-161h-588zM214 847q0 85 101 85q100 0 100 -85q0 -84 -100 -84q-101 0 -101 84z" />
    <glyph glyph-name="zdotaccent" unicode="&#x17c;" horiz-adv-x="519" 
d="M27 0v106l230 256h-226v140h451v-112l-227 -251h236v-139h-464zM158 649q0 85 101 85q100 0 100 -85q0 -84 -100 -84q-101 0 -101 84z" />
    <glyph glyph-name="Zcaron" unicode="&#x17d;" horiz-adv-x="634" 
d="M321 858l57 52h140v-3l-124 -138h-156l-124 138v3h148zM21 0v120l332 423l-320 -4v161h567v-118l-330 -425l339 4v-161h-588z" />
    <glyph glyph-name="zcaron" unicode="&#x17e;" horiz-adv-x="519" 
d="M265 659l57 52h140v-3l-124 -138h-156l-124 138v3h148zM27 0v106l230 256h-226v140h451v-112l-227 -251h236v-139h-464z" />
    <glyph glyph-name="florin" unicode="&#x192;" horiz-adv-x="433" 
d="M41 -14l40 257h-73l21 139h74l7 38q17 104 77 155.5t152 51.5q91 0 130 -33l-48 -119q-20 15 -53 15q-60 0 -72 -71l-7 -37h124l-22 -139h-124l-40 -266q-16 -99 -76.5 -149.5t-153.5 -50.5q-76 0 -117 26l44 122q19 -11 47 -11q31 0 47.5 17t22.5 55z" />
    <glyph glyph-name="Scommaaccent" unicode="&#x218;" horiz-adv-x="641" 
d="M259 -354l-33 67q72 18 89 71q-44 0 -69 20.5t-25 59.5q0 86 98 86q47 0 73.5 -27.5t26.5 -80.5q0 -77 -44 -131t-116 -65zM588 582l-129 -91q-27 38 -58 56t-79 18q-95 0 -95 -58q0 -25 22 -41t73 -29l61 -15q122 -30 171 -83.5t49 -135.5q0 -102 -77 -160t-221 -58
q-213 0 -285 136l123 96q27 -48 65 -69t96 -21q110 0 110 67q0 23 -17 35.5t-65 24.5l-64 16q-222 56 -222 228q0 99 71 158t206 59q195 0 265 -133z" />
    <glyph glyph-name="scommaaccent" unicode="&#x219;" horiz-adv-x="510" 
d="M180 -354l-33 67q72 18 89 71q-44 0 -69 20.5t-25 59.5q0 86 98 86q47 0 73.5 -27.5t26.5 -80.5q0 -77 -44 -131t-116 -65zM243 106q64 0 64 30q0 14 -13 21.5t-46 14.5l-42 10q-167 39 -167 170q0 74 55.5 119t165.5 45q153 0 220 -89l-90 -92q-45 54 -125 54
q-61 0 -61 -30q0 -26 58 -38l58 -13q157 -35 157 -156q0 -71 -57 -118.5t-178 -47.5q-169 0 -234 92l84 90q45 -62 151 -62z" />
    <glyph glyph-name="dotlessj" unicode="&#x237;" horiz-adv-x="309" 
d="M58 -13v515h194v-525q0 -99 -57.5 -149.5t-155.5 -50.5q-73 0 -122 26l31 122q21 -11 50 -11q32 0 46 17t14 56z" />
    <glyph glyph-name="circumflex" unicode="&#x2c6;" horiz-adv-x="600" 
d="M299 622l-56 -52h-141v4l124 137h155l125 -137v-4h-149z" />
    <glyph glyph-name="caron" unicode="&#x2c7;" horiz-adv-x="600" 
d="M305 659l57 52h140v-3l-124 -138h-156l-124 138v3h148z" />
    <glyph glyph-name="breve" unicode="&#x2d8;" horiz-adv-x="600" 
d="M373 710h113q0 -81 -46.5 -114.5t-139.5 -33.5t-139 33.5t-46 114.5h112q0 -33 17 -46t56 -13t56 13t17 46z" />
    <glyph glyph-name="dotaccent" unicode="&#x2d9;" horiz-adv-x="600" 
d="M199 649q0 85 101 85q100 0 100 -85q0 -84 -100 -84q-101 0 -101 84z" />
    <glyph glyph-name="ring" unicode="&#x2da;" horiz-adv-x="600" 
d="M178 659q0 51 34 79.5t90 28.5q55 0 89 -28.5t34 -79.5q0 -52 -34 -80.5t-90 -28.5q-55 0 -89 28.5t-34 80.5zM258 659q0 -20 12 -31.5t31 -11.5q20 0 32 11.5t12 31.5q0 19 -12 30t-31 11q-20 0 -32 -11t-12 -30z" />
    <glyph glyph-name="ogonek" unicode="&#x2db;" horiz-adv-x="600" 
d="M329 -238q-67 0 -113 32.5t-46 103.5q0 76 59 120t135 38l1 -56q-45 -4 -66.5 -27.5t-21.5 -57.5q0 -51 66 -51q38 0 68 17l26 -90q-47 -29 -108 -29z" />
    <glyph glyph-name="tilde" unicode="&#x2dc;" horiz-adv-x="600" 
d="M391 708h109q5 -69 -28 -101t-81 -32q-34 0 -79.5 15.5t-62.5 15.5q-28 0 -28 -32h-109q-5 69 28 101t81 32q34 0 79.5 -15.5t62.5 -15.5q28 0 28 32z" />
    <glyph glyph-name="hungarumlaut" unicode="&#x2dd;" horiz-adv-x="600" 
d="M371 704l-123 -134h-124v5l70 136h177v-7zM598 706l-134 -136h-137v5l79 136h192v-5z" />
    <glyph glyph-name="Wgrave" unicode="&#x1e80;" horiz-adv-x="997" 
d="M415 699h172l106 -427l101 428h198l-196 -700h-198l-101 419l-103 -419h-193l-195 700h205l97 -424zM437 769l-136 134v7h206l81 -136v-5h-151z" />
    <glyph glyph-name="wgrave" unicode="&#x1e81;" horiz-adv-x="813" 
d="M337 501h145l83 -276l70 277h173l-155 -502h-167l-79 285l-79 -285h-166l-157 502h178l73 -275zM341 570l-136 134v7h206l81 -136v-5h-151z" />
    <glyph glyph-name="Wacute" unicode="&#x1e82;" horiz-adv-x="997" 
d="M694 902l-136 -134h-147v5l84 136h199v-7zM415 699h172l106 -427l101 428h198l-196 -700h-198l-101 419l-103 -419h-193l-195 700h205l97 -424z" />
    <glyph glyph-name="wacute" unicode="&#x1e83;" horiz-adv-x="813" 
d="M598 704l-136 -134h-147v5l84 136h199v-7zM337 501h145l83 -276l70 277h173l-155 -502h-167l-79 285l-79 -285h-166l-157 502h178l73 -275z" />
    <glyph glyph-name="Wdieresis" unicode="&#x1e84;" horiz-adv-x="997" 
d="M288 847q0 83 95 83t95 -83q0 -84 -95 -84t-95 84zM517 847q0 83 96 83q95 0 95 -83q0 -84 -95 -84q-96 0 -96 84zM415 699h172l106 -427l101 428h198l-196 -700h-198l-101 419l-103 -419h-193l-195 700h205l97 -424z" />
    <glyph glyph-name="wdieresis" unicode="&#x1e85;" horiz-adv-x="813" 
d="M197 649q0 83 95 83t95 -83q0 -84 -95 -84t-95 84zM426 649q0 83 96 83q95 0 95 -83q0 -84 -95 -84q-96 0 -96 84zM337 501h145l83 -276l70 277h173l-155 -502h-167l-79 285l-79 -285h-166l-157 502h178l73 -275z" />
    <glyph glyph-name="enspace" unicode="&#x2002;" horiz-adv-x="500" 
 />
    <glyph glyph-name="emspace" unicode="&#x2003;" horiz-adv-x="1000" 
 />
    <glyph glyph-name="threeperemspace" unicode="&#x2004;" horiz-adv-x="333" 
 />
    <glyph glyph-name="fourperemspace" unicode="&#x2005;" horiz-adv-x="250" 
 />
    <glyph glyph-name="sixperemspace" unicode="&#x2006;" horiz-adv-x="167" 
 />
    <glyph glyph-name="figurespace" unicode="&#x2007;" 
 />
    <glyph glyph-name="punctuationspace" unicode="&#x2008;" horiz-adv-x="270" 
 />
    <glyph glyph-name="thinspace" unicode="&#x2009;" horiz-adv-x="200" 
 />
    <glyph glyph-name="hairspace" unicode="&#x200a;" horiz-adv-x="100" 
 />
    <glyph glyph-name="zerowidthspace" unicode="&#x200b;" horiz-adv-x="0" 
 />
    <glyph glyph-name="figuredash" unicode="&#x2012;" 
d="M556 411v-148h-487v148h487z" />
    <glyph glyph-name="endash" unicode="&#x2013;" horiz-adv-x="590" 
d="M541 411v-148h-491v148h491z" />
    <glyph glyph-name="emdash" unicode="&#x2014;" horiz-adv-x="789" 
d="M740 411v-148h-690v148h690z" />
    <glyph glyph-name="uni2015" unicode="&#x2015;" horiz-adv-x="1086" 
d="M1037 411v-148h-987v148h987z" />
    <glyph glyph-name="doublebar" unicode="&#x2016;" horiz-adv-x="562" 
d="M75 -65v831h175v-831h-175zM313 -65v831h174v-831h-174z" />
    <glyph glyph-name="quoteleft" unicode="&#x2018;" horiz-adv-x="256" 
d="M224 684q-63 -18 -82 -71q84 -6 84 -87q0 -44 -25.5 -66.5t-71.5 -22.5q-99 0 -99 108q0 85 40.5 139.5t116.5 73.5z" />
    <glyph glyph-name="quoteright" unicode="&#x2019;" horiz-adv-x="256" 
d="M34 503q64 18 82 71q-84 6 -84 87q0 44 25.5 66.5t71.5 22.5q98 0 98 -108q0 -85 -40.5 -139.5t-115.5 -72.5z" />
    <glyph glyph-name="quotesinglbase" unicode="&#x201a;" horiz-adv-x="256" 
d="M34 -77q63 20 81 71q-83 6 -83 86q0 89 96 89q98 0 98 -107q0 -84 -40.5 -138.5t-115.5 -73.5z" />
    <glyph glyph-name="reversequoteleft" unicode="&#x201b;" horiz-adv-x="256" 
d="M223 503l-37 -74q-75 19 -115.5 73.5t-40.5 139.5q0 108 98 108q46 0 71.5 -22.5t25.5 -66.5q0 -81 -84 -87q20 -53 82 -71z" />
    <glyph glyph-name="quotedblleft" unicode="&#x201c;" horiz-adv-x="479" 
d="M224 684q-63 -18 -82 -71q84 -6 84 -87q0 -44 -25.5 -66.5t-71.5 -22.5q-99 0 -99 108q0 85 40.5 139.5t116.5 73.5zM447 684q-63 -18 -82 -71q84 -6 84 -87q0 -44 -25.5 -66.5t-71.5 -22.5q-99 0 -99 108q0 85 40.5 139.5t116.5 73.5z" />
    <glyph glyph-name="quotedblright" unicode="&#x201d;" horiz-adv-x="479" 
d="M33 503q64 18 82 71q-84 6 -84 87q0 44 25.5 66.5t71.5 22.5q98 0 98 -108q0 -85 -40.5 -139.5t-115.5 -72.5zM256 503q64 18 82 71q-84 6 -84 87q0 44 25.5 66.5t71.5 22.5q98 0 98 -108q0 -85 -40.5 -139.5t-115.5 -72.5z" />
    <glyph glyph-name="quotedblbase" unicode="&#x201e;" horiz-adv-x="479" 
d="M34 -77q63 20 81 71q-83 6 -83 86q0 89 96 89q98 0 98 -107q0 -84 -40.5 -138.5t-115.5 -72.5zM257 -77q63 20 81 71q-83 6 -83 86q0 89 96 89q98 0 98 -107q0 -84 -40.5 -138.5t-115.5 -72.5z" />
    <glyph glyph-name="reversequotedblleft" unicode="&#x201f;" horiz-adv-x="479" 
d="M222 503l-37 -74q-75 19 -115.5 73.5t-40.5 139.5q0 108 98 108q46 0 71.5 -22.5t25.5 -66.5q0 -81 -84 -87q20 -53 82 -71zM446 503l-37 -74q-75 19 -115.5 73.5t-40.5 139.5q0 108 98 108q46 0 71.5 -22.5t25.5 -66.5q0 -81 -84 -87q20 -53 82 -71z" />
    <glyph glyph-name="dagger" unicode="&#x2020;" horiz-adv-x="320" 
d="M296 477h-65l-2 -220h-140v220h-66v124h64l-2 114h150l-3 -114h64v-124z" />
    <glyph glyph-name="daggerdbl" unicode="&#x2021;" horiz-adv-x="320" 
d="M23 463h67v47h-67v124h64l-2 81h150l-2 -81h63v-124h-66v-47h66v-124h-63l2 -82h-150l2 82h-64v124z" />
    <glyph glyph-name="bullet" unicode="&#x2022;" horiz-adv-x="431" 
d="M44 327q0 77 46 123t126 46t125.5 -46t45.5 -123q0 -78 -45.5 -123.5t-125.5 -45.5t-126 45.5t-46 123.5z" />
    <glyph glyph-name="ellipsis" unicode="&#x2026;" horiz-adv-x="811" 
d="M33 86q0 95 102 95t102 -95q0 -46 -26.5 -70t-75.5 -24q-102 0 -102 94zM303 86q0 95 102 95t102 -95q0 -46 -26 -70t-76 -24q-102 0 -102 94zM574 86q0 95 102 95q101 0 101 -95q0 -46 -26 -70t-75 -24q-102 0 -102 94z" />
    <glyph glyph-name="perthousand" unicode="&#x2030;" horiz-adv-x="1528" 
d="M861 422q102 0 150.5 -54.5t48.5 -164.5t-48 -164t-151 -54t-151 54t-48 164t48 164.5t151 54.5zM861 318q-32 0 -47.5 -26t-15.5 -88q0 -63 15.5 -89t47.5 -26t47.5 26t15.5 88q0 63 -15.5 89t-47.5 26zM225 715q102 0 150.5 -54.5t48.5 -164.5t-48 -164t-151 -54
t-151 54t-48 164t48 164.5t151 54.5zM225 611q-32 0 -47.5 -26t-15.5 -88q0 -63 15.5 -89t47.5 -26t47.5 26t15.5 88q0 63 -15.5 89t-47.5 26zM1301 422q102 0 150.5 -54.5t48.5 -164.5t-48 -164t-151 -54t-151 54t-48 164t48 164.5t151 54.5zM1301 318q-32 0 -47.5 -26
t-15.5 -88q0 -63 15.5 -89t47.5 -26t47.5 26t15.5 88q0 63 -15.5 89t-47.5 26zM800 700l-350 -700h-166l352 700h164z" />
    <glyph glyph-name="guilsinglleft" unicode="&#x2039;" horiz-adv-x="435" 
d="M231 0l-197 249v3l195 250h186l-197 -249l202 -253h-189z" />
    <glyph glyph-name="guilsinglright" unicode="&#x203a;" horiz-adv-x="435" 
d="M204 502l197 -249v-3l-195 -250h-186l197 249l-202 253h189z" />
    <glyph glyph-name="fraction" unicode="&#x2044;" horiz-adv-x="584" 
d="M536 700l-350 -700h-166l352 700h164z" />
    <glyph glyph-name="uni2070" unicode="&#x2070;" horiz-adv-x="451" 
d="M225 716q102 0 150.5 -54.5t48.5 -164.5t-48 -164t-151 -54t-151 54t-48 164t48 164.5t151 54.5zM225 612q-32 0 -47.5 -26t-15.5 -88q0 -63 15.5 -89t47.5 -26t47.5 26t15.5 88q0 63 -15.5 89t-47.5 26z" />
    <glyph glyph-name="uni2074" unicode="&#x2074;" horiz-adv-x="438" 
d="M21 367v89l117 247h134l-114 -228h92v120h129v-120h42v-108h-42v-73h-129v73h-229z" />
    <glyph glyph-name="uni2075" unicode="&#x2075;" horiz-adv-x="384" 
d="M155 602l-6 -48q34 9 64 9q76 0 115.5 -35t39.5 -100q0 -71 -47 -109t-136 -38q-127 0 -182 76l94 66q30 -40 78 -40q56 0 56 44q0 23 -16 34t-40 11q-36 0 -56 -23l-91 40l18 213h306v-101z" />
    <glyph glyph-name="uni2076" unicode="&#x2076;" horiz-adv-x="420" 
d="M227 281q-202 0 -202 215q0 219 202 219q125 0 162 -73l-80 -69q-22 41 -70 41q-43 0 -62.5 -26t-19.5 -85q31 50 100 50q62 0 98.5 -33.5t36.5 -97.5t-42 -102.5t-123 -38.5zM169 422q0 -18 12.5 -30t34.5 -12t34.5 11.5t12.5 30.5q0 40 -46 40q-20 0 -34 -10t-14 -30z
" />
    <glyph glyph-name="uni2077" unicode="&#x2077;" horiz-adv-x="357" 
d="M233 294h-153q0 183 128 299l-196 -4v113h338v-84q-65 -83 -91 -152t-26 -172z" />
    <glyph glyph-name="uni2078" unicode="&#x2078;" horiz-adv-x="416" 
d="M206 281q-180 0 -180 127q0 74 64 99q-49 32 -49 87q0 121 166 121t166 -121q0 -55 -51 -87q65 -25 65 -99q0 -127 -181 -127zM254 410q0 18 -12 28.5t-33 10.5q-50 0 -50 -39q0 -18 13 -28.5t35 -10.5q47 0 47 39zM251 586q0 16 -12 25.5t-31 9.5q-21 0 -33 -9.5
t-12 -25.5q0 -35 44 -35t44 35z" />
    <glyph glyph-name="uni2079" unicode="&#x2079;" horiz-adv-x="417" 
d="M184 281q-54 0 -100.5 16t-66.5 47l78 73q23 -36 80 -36q83 0 81 108q-28 -52 -100 -52q-61 0 -98 35t-37 99q0 66 41.5 105t127.5 39q96 0 147 -53.5t51 -161.5q0 -219 -204 -219zM243 571q0 20 -13 31t-35 11q-44 0 -44 -41q0 -42 44 -42q20 0 34 10.5t14 30.5z" />
    <glyph glyph-name="uni207A" unicode="&#x207a;" horiz-adv-x="318" 
d="M208 357h-98v85h-84v78h84v87h98v-87h84v-78h-84v-85z" />
    <glyph glyph-name="uni207B" unicode="&#x207b;" horiz-adv-x="318" 
d="M292 520v-78h-266v78h266z" />
    <glyph glyph-name="uni207C" unicode="&#x207c;" horiz-adv-x="318" 
d="M292 468v-79h-266v79h266zM292 570v-79h-266v79h266z" />
    <glyph glyph-name="uni207D" unicode="&#x207d;" horiz-adv-x="240" 
d="M223 294l-11 -101q-190 16 -190 265q0 248 186 264l15 -101q-51 -5 -75 -42t-24 -121q0 -85 24 -121.5t75 -42.5z" />
    <glyph glyph-name="uni207E" unicode="&#x207e;" horiz-adv-x="240" 
d="M28 193l-12 101q51 6 75.5 42.5t24.5 121.5q0 84 -24.5 121t-75.5 42l15 101q186 -16 186 -264q0 -249 -189 -265z" />
    <glyph glyph-name="uni2080" unicode="&#x2080;" horiz-adv-x="451" 
d="M225 422q102 0 150.5 -54.5t48.5 -164.5t-48 -164t-151 -54t-151 54t-48 164t48 164.5t151 54.5zM225 318q-32 0 -47.5 -26t-15.5 -88q0 -63 15.5 -89t47.5 -26t47.5 26t15.5 88q0 63 -15.5 89t-47.5 26z" />
    <glyph glyph-name="uni2081" unicode="&#x2081;" horiz-adv-x="284" 
d="M234 0h-138v263l-41 -23l-50 102l138 73h91v-415z" />
    <glyph glyph-name="uni2082" unicode="&#x2082;" horiz-adv-x="391" 
d="M23 0v88l141 118q18 16 26.5 25t16.5 22t8 26q0 34 -44 34q-26 0 -42.5 -11.5t-33.5 -37.5l-90 63q54 94 183 94q167 0 167 -123q0 -77 -86 -151l-47 -42l148 4v-109h-347z" />
    <glyph glyph-name="uni2083" unicode="&#x2083;" horiz-adv-x="390" 
d="M188 -14q-125 0 -177 88l95 59q15 -25 31.5 -34.5t42.5 -9.5q50 0 50 34q0 32 -56 32h-38v91h38q47 0 47 35q0 33 -46 33q-39 0 -61 -41l-96 52q28 51 69.5 73.5t102.5 22.5q81 0 124.5 -33t43.5 -90q0 -59 -55 -92q61 -31 61 -91t-47 -94.5t-129 -34.5z" />
    <glyph glyph-name="uni2084" unicode="&#x2084;" horiz-adv-x="438" 
d="M21 73v89l117 247h134l-114 -228h92v120h129v-120h42v-108h-42v-73h-129v73h-229z" />
    <glyph glyph-name="uni2085" unicode="&#x2085;" horiz-adv-x="384" 
d="M155 308l-6 -48q34 9 64 9q76 0 115.5 -35t39.5 -100q0 -71 -47 -109t-136 -38q-127 0 -182 76l94 66q30 -40 78 -40q56 0 56 44q0 23 -16 34t-40 11q-36 0 -56 -23l-91 40l18 213h306v-101z" />
    <glyph glyph-name="uni2086" unicode="&#x2086;" horiz-adv-x="420" 
d="M227 -13q-202 0 -202 215q0 219 202 219q125 0 162 -73l-80 -69q-22 41 -70 41q-43 0 -62.5 -26t-19.5 -85q31 50 100 50q62 0 98.5 -33.5t36.5 -97.5t-42 -102.5t-123 -38.5zM169 128q0 -18 12.5 -30t34.5 -12t34.5 11.5t12.5 30.5q0 40 -46 40q-20 0 -34 -10t-14 -30z
" />
    <glyph glyph-name="uni2087" unicode="&#x2087;" horiz-adv-x="357" 
d="M233 0h-153q0 183 128 299l-196 -4v113h338v-84q-65 -83 -91 -152t-26 -172z" />
    <glyph glyph-name="uni2088" unicode="&#x2088;" horiz-adv-x="416" 
d="M206 -13q-180 0 -180 127q0 74 64 99q-49 32 -49 87q0 121 166 121t166 -121q0 -55 -51 -87q65 -25 65 -99q0 -127 -181 -127zM254 116q0 18 -12 28.5t-33 10.5q-50 0 -50 -39q0 -18 13 -28.5t35 -10.5q47 0 47 39zM251 292q0 16 -12 25.5t-31 9.5q-21 0 -33 -9.5
t-12 -25.5q0 -35 44 -35t44 35z" />
    <glyph glyph-name="uni2089" unicode="&#x2089;" horiz-adv-x="417" 
d="M184 -13q-54 0 -100.5 16t-66.5 47l78 73q23 -36 80 -36q83 0 81 108q-28 -52 -100 -52q-61 0 -98 35t-37 99q0 66 41.5 105t127.5 39q96 0 147 -53.5t51 -161.5q0 -219 -204 -219zM243 277q0 20 -13 31t-35 11q-44 0 -44 -41q0 -42 44 -42q20 0 34 10.5t14 30.5z" />
    <glyph glyph-name="uni208A" unicode="&#x208a;" horiz-adv-x="318" 
d="M208 57h-98v85h-84v78h84v87h98v-87h84v-78h-84v-85z" />
    <glyph glyph-name="uni208B" unicode="&#x208b;" horiz-adv-x="318" 
d="M292 220v-78h-266v78h266z" />
    <glyph glyph-name="uni208C" unicode="&#x208c;" horiz-adv-x="318" 
d="M292 168v-79h-266v79h266zM292 270v-79h-266v79h266z" />
    <glyph glyph-name="uni208D" unicode="&#x208d;" horiz-adv-x="240" 
d="M223 -6l-11 -101q-190 16 -190 265q0 248 186 264l15 -101q-51 -5 -75 -42t-24 -121q0 -85 24 -121.5t75 -42.5z" />
    <glyph glyph-name="uni208E" unicode="&#x208e;" horiz-adv-x="240" 
d="M28 -107l-12 101q51 6 75.5 42.5t24.5 121.5q0 84 -24.5 121t-75.5 42l15 101q186 -16 186 -264q0 -249 -189 -265z" />
    <glyph glyph-name="Euro" unicode="&#x20ac;" horiz-adv-x="721" 
d="M405 -16q-281 0 -330 242h-69v87h59q-1 10 -1 34v6h-58v87h63q19 141 104.5 208t240.5 67q214 0 274 -165l-156 -77q-21 47 -47 64.5t-74 17.5q-59 0 -94.5 -26t-49.5 -89h212l-24 -87h-198v-6q0 -24 1 -34h186l-24 -87h-140q28 -83 129 -83q94 0 126 80l159 -75
q-70 -164 -289 -164z" />
    <glyph glyph-name="trademark" unicode="&#x2122;" horiz-adv-x="736" 
d="M331 406v294h116l80 -190l85 190h108v-294h-94l1 134l-59 -134h-86l-59 135l2 -135h-94zM12 700h292v-90h-93v-204h-103v204h-96v90z" />
    <glyph glyph-name="uni2153" unicode="&#x2153;" horiz-adv-x="936" 
d="M734 -14q-125 0 -177 88l95 59q15 -25 31.5 -34.5t42.5 -9.5q50 0 50 34q0 32 -56 32h-38v91h38q47 0 47 35q0 33 -46 33q-39 0 -61 -41l-96 52q28 51 69.5 73.5t102.5 22.5q81 0 124.5 -33t43.5 -90q0 -59 -55 -92q61 -31 61 -91t-47 -94.5t-129 -34.5zM234 293h-138
v263l-41 -23l-50 102l138 73h91v-415zM676 700l-350 -700h-166l352 700h164z" />
    <glyph glyph-name="uni2154" unicode="&#x2154;" horiz-adv-x="1056" 
d="M854 -14q-125 0 -177 88l95 59q15 -25 31.5 -34.5t42.5 -9.5q50 0 50 34q0 32 -56 32h-38v91h38q47 0 47 35q0 33 -46 33q-39 0 -61 -41l-96 52q28 51 69.5 73.5t102.5 22.5q81 0 124.5 -33t43.5 -90q0 -59 -55 -92q61 -31 61 -91t-47 -94.5t-129 -34.5zM23 293v88
l141 118q18 16 26.5 25t16.5 22t8 26q0 34 -44 34q-26 0 -42.5 -11.5t-33.5 -37.5l-90 63q54 94 183 94q167 0 167 -123q0 -77 -86 -151l-47 -42l148 4v-109h-347zM795 700l-350 -700h-166l352 700h164z" />
    <glyph glyph-name="uni2155" unicode="&#x2155;" horiz-adv-x="944" 
d="M234 293h-138v263l-41 -23l-50 102l138 73h91v-415zM715 308l-6 -48q34 9 64 9q76 0 115.5 -35t39.5 -100q0 -71 -47 -109t-136 -38q-127 0 -182 76l94 66q30 -40 78 -40q56 0 56 44q0 23 -16 34t-40 11q-36 0 -56 -23l-91 40l18 213h306v-101zM676 700l-350 -700h-166
l352 700h164z" />
    <glyph glyph-name="uni2156" unicode="&#x2156;" horiz-adv-x="1063" 
d="M23 293v88l141 118q18 16 26.5 25t16.5 22t8 26q0 34 -44 34q-26 0 -42.5 -11.5t-33.5 -37.5l-90 63q54 94 183 94q167 0 167 -123q0 -77 -86 -151l-47 -42l148 4v-109h-347zM834 308l-6 -48q34 9 64 9q76 0 115.5 -35t39.5 -100q0 -71 -47 -109t-136 -38q-127 0 -182 76
l94 66q30 -40 78 -40q56 0 56 44q0 23 -16 34t-40 11q-36 0 -56 -23l-91 40l18 213h306v-101zM794 700l-350 -700h-166l352 700h164z" />
    <glyph glyph-name="uni2157" unicode="&#x2157;" horiz-adv-x="1033" 
d="M188 279q-125 0 -177 88l95 59q15 -25 31.5 -34.5t42.5 -9.5q50 0 50 34q0 32 -56 32h-38v91h38q47 0 47 35q0 33 -46 33q-39 0 -61 -41l-96 52q28 51 69.5 73.5t102.5 22.5q81 0 124.5 -33t43.5 -90q0 -59 -55 -92q61 -31 61 -91t-47 -94.5t-129 -34.5zM804 308l-6 -48
q34 9 64 9q76 0 115.5 -35t39.5 -100q0 -71 -47 -109t-136 -38q-127 0 -182 76l94 66q30 -40 78 -40q56 0 56 44q0 23 -16 34t-40 11q-36 0 -56 -23l-91 40l18 213h306v-101zM765 700l-350 -700h-166l352 700h164z" />
    <glyph glyph-name="uni2158" unicode="&#x2158;" horiz-adv-x="1087" 
d="M857 308l-6 -48q34 9 64 9q76 0 115.5 -35t39.5 -100q0 -71 -47 -109t-136 -38q-127 0 -182 76l94 66q30 -40 78 -40q56 0 56 44q0 23 -16 34t-40 11q-36 0 -56 -23l-91 40l18 213h306v-101zM818 700l-350 -700h-166l352 700h164zM21 366v89l117 247h134l-114 -228h92
v120h129v-120h42v-108h-42v-73h-129v73h-229z" />
    <glyph glyph-name="uni2159" unicode="&#x2159;" horiz-adv-x="947" 
d="M234 293h-138v263l-41 -23l-50 102l138 73h91v-415zM754 -13q-202 0 -202 215q0 219 202 219q125 0 162 -73l-80 -69q-22 41 -70 41q-43 0 -62.5 -26t-19.5 -85q31 50 100 50q62 0 98.5 -33.5t36.5 -97.5t-42 -102.5t-123 -38.5zM696 128q0 -18 12.5 -30t34.5 -12
t34.5 11.5t12.5 30.5q0 40 -46 40q-20 0 -34 -10t-14 -30zM676 700l-350 -700h-166l352 700h164z" />
    <glyph glyph-name="uni215A" unicode="&#x215a;" horiz-adv-x="1036" 
d="M155 601l-6 -48q34 9 64 9q76 0 115.5 -35t39.5 -100q0 -71 -47 -109t-136 -38q-127 0 -182 76l94 66q30 -40 78 -40q56 0 56 44q0 23 -16 34t-40 11q-36 0 -56 -23l-91 40l18 213h306v-101zM844 -13q-202 0 -202 215q0 219 202 219q125 0 162 -73l-80 -69q-22 41 -70 41
q-43 0 -62.5 -26t-19.5 -85q31 50 100 50q62 0 98.5 -33.5t36.5 -97.5t-42 -102.5t-123 -38.5zM786 128q0 -18 12.5 -30t34.5 -12t34.5 11.5t12.5 30.5q0 40 -46 40q-20 0 -34 -10t-14 -30zM765 700l-350 -700h-166l352 700h164z" />
    <glyph glyph-name="uni215B" unicode="&#x215b;" horiz-adv-x="951" 
d="M234 293h-138v263l-41 -23l-50 102l138 73h91v-415zM742 -13q-180 0 -180 127q0 74 64 99q-49 32 -49 87q0 121 166 121t166 -121q0 -55 -51 -87q65 -25 65 -99q0 -127 -181 -127zM790 116q0 18 -12 28.5t-33 10.5q-50 0 -50 -39q0 -18 13 -28.5t35 -10.5q47 0 47 39z
M787 292q0 16 -12 25.5t-31 9.5q-21 0 -33 -9.5t-12 -25.5q0 -35 44 -35t44 35zM676 700l-350 -700h-166l352 700h164z" />
    <glyph glyph-name="uni215C" unicode="&#x215c;" horiz-adv-x="1041" 
d="M188 279q-125 0 -177 88l95 59q15 -25 31.5 -34.5t42.5 -9.5q50 0 50 34q0 32 -56 32h-38v91h38q47 0 47 35q0 33 -46 33q-39 0 -61 -41l-96 52q28 51 69.5 73.5t102.5 22.5q81 0 124.5 -33t43.5 -90q0 -59 -55 -92q61 -31 61 -91t-47 -94.5t-129 -34.5zM831 -13
q-180 0 -180 127q0 74 64 99q-49 32 -49 87q0 121 166 121t166 -121q0 -55 -51 -87q65 -25 65 -99q0 -127 -181 -127zM879 116q0 18 -12 28.5t-33 10.5q-50 0 -50 -39q0 -18 13 -28.5t35 -10.5q47 0 47 39zM876 292q0 16 -12 25.5t-31 9.5q-21 0 -33 -9.5t-12 -25.5
q0 -35 44 -35t44 35zM765 700l-350 -700h-166l352 700h164z" />
    <glyph glyph-name="uni215D" unicode="&#x215d;" horiz-adv-x="1041" 
d="M831 -13q-180 0 -180 127q0 74 64 99q-49 32 -49 87q0 121 166 121t166 -121q0 -55 -51 -87q65 -25 65 -99q0 -127 -181 -127zM879 116q0 18 -12 28.5t-33 10.5q-50 0 -50 -39q0 -18 13 -28.5t35 -10.5q47 0 47 39zM876 292q0 16 -12 25.5t-31 9.5q-21 0 -33 -9.5
t-12 -25.5q0 -35 44 -35t44 35zM155 601l-6 -48q34 9 64 9q76 0 115.5 -35t39.5 -100q0 -71 -47 -109t-136 -38q-127 0 -182 76l94 66q30 -40 78 -40q56 0 56 44q0 23 -16 34t-40 11q-36 0 -56 -23l-91 40l18 213h306v-101zM765 700l-350 -700h-166l352 700h164z" />
    <glyph glyph-name="uni215E" unicode="&#x215e;" horiz-adv-x="961" 
d="M751 -13q-180 0 -180 127q0 74 64 99q-49 32 -49 87q0 121 166 121t166 -121q0 -55 -51 -87q65 -25 65 -99q0 -127 -181 -127zM799 116q0 18 -12 28.5t-33 10.5q-50 0 -50 -39q0 -18 13 -28.5t35 -10.5q47 0 47 39zM796 292q0 16 -12 25.5t-31 9.5q-21 0 -33 -9.5
t-12 -25.5q0 -35 44 -35t44 35zM233 293h-153q0 183 128 299l-196 -4v113h338v-84q-65 -83 -91 -152t-26 -172zM685 700l-350 -700h-166l352 700h164z" />
    <glyph glyph-name="uni215F" unicode="&#x215f;" horiz-adv-x="831" 
d="M234 293h-138v263l-41 -23l-50 102l138 73h91v-415zM676 700l-350 -700h-166l352 700h164z" />
    <glyph glyph-name="minus" unicode="&#x2212;" horiz-adv-x="512" 
d="M462 363v-104h-412v104h412z" />
    <glyph glyph-name="approxequal" unicode="&#x2248;" horiz-adv-x="512" 
d="M351 415q67 0 111 29v-104q-46 -26 -119 -26q-37 0 -92 17t-88 17q-68 0 -113 -28v104q44 25 116 25q38 0 95 -17t90 -17zM351 262q67 0 111 29v-103q-46 -26 -119 -26q-37 0 -92 17t-88 17q-68 0 -113 -28v103q44 25 116 25q38 0 95 -17t90 -17z" />
    <glyph glyph-name="notequal" unicode="&#x2260;" horiz-adv-x="512" 
d="M50 333v104h244l46 66h103l-46 -66h65v-104h-137l-34 -48h171v-104h-243l-45 -65h-104l46 65h-66v104h137l34 48h-171z" />
    <glyph glyph-name="lessequal" unicode="&#x2264;" horiz-adv-x="513" 
d="M365 542l55 -84l-182 -112l182 -109l-55 -89l-273 165v62zM86 0v104h338v-104h-338z" />
    <glyph glyph-name="greaterequal" unicode="&#x2265;" horiz-adv-x="513" 
d="M147 148l-54 84l181 111l-182 110l55 89l274 -166v-61zM424 104v-104h-338v104h338z" />
    <glyph glyph-name="aogonek.school" unicode="&#xe150;" horiz-adv-x="641" 
d="M423 6l-12 68q-52 -89 -164 -89q-98 0 -155.5 66.5t-57.5 191.5q0 136 59.5 204.5t161.5 68.5q114 0 160 -83l14 69h155v-502q-104 -7 -104 -85q0 -51 66 -51q38 0 68 17l26 -90q-47 -29 -108 -29q-67 0 -113 32.5t-46 103.5q0 65 50 108zM394 250q0 125 -90 125
q-84 0 -84 -126q0 -121 84 -121q42 0 66 31t24 91z" />
    <glyph glyph-name="a.school" unicode="&#xe151;" horiz-adv-x="641" 
d="M422 0l-12 75q-52 -90 -163 -90q-98 0 -155.5 66.5t-57.5 191.5q0 136 59.5 204.5t161.5 68.5q114 0 160 -83l14 69h155v-502h-162zM394 250q0 125 -90 125q-84 0 -84 -126q0 -121 84 -121q41 0 65.5 31t24.5 91z" />
    <glyph glyph-name="agrave.school" unicode="&#xe152;" horiz-adv-x="641" 
d="M422 0l-12 75q-52 -90 -163 -90q-98 0 -155.5 66.5t-57.5 191.5q0 136 59.5 204.5t161.5 68.5q114 0 160 -83l14 69h155v-502h-162zM394 250q0 125 -90 125q-84 0 -84 -126q0 -121 84 -121q41 0 65.5 31t24.5 91zM238 570l-136 134v7h206l81 -136v-5h-151z" />
    <glyph glyph-name="aacute.school" unicode="&#xe153;" horiz-adv-x="641" 
d="M422 0l-12 75q-52 -90 -163 -90q-98 0 -155.5 66.5t-57.5 191.5q0 136 59.5 204.5t161.5 68.5q114 0 160 -83l14 69h155v-502h-162zM394 250q0 125 -90 125q-84 0 -84 -126q0 -121 84 -121q41 0 65.5 31t24.5 91zM495 704l-136 -134h-147v5l84 136h199v-7z" />
    <glyph glyph-name="acircumflex.school" unicode="&#xe154;" horiz-adv-x="641" 
d="M296 622l-56 -52h-141v4l124 137h155l125 -137v-4h-149zM422 0l-12 75q-52 -90 -163 -90q-98 0 -155.5 66.5t-57.5 191.5q0 136 59.5 204.5t161.5 68.5q114 0 160 -83l14 69h155v-502h-162zM394 250q0 125 -90 125q-84 0 -84 -126q0 -121 84 -121q41 0 65.5 31t24.5 91z
" />
    <glyph glyph-name="adieresis.school" unicode="&#xe155;" horiz-adv-x="641" 
d="M90 649q0 83 95 83t95 -83q0 -84 -95 -84t-95 84zM319 649q0 83 96 83q95 0 95 -83q0 -84 -95 -84q-96 0 -96 84zM422 0l-12 75q-52 -90 -163 -90q-98 0 -155.5 66.5t-57.5 191.5q0 136 59.5 204.5t161.5 68.5q114 0 160 -83l14 69h155v-502h-162zM394 250q0 125 -90 125
q-84 0 -84 -126q0 -121 84 -121q41 0 65.5 31t24.5 91z" />
    <glyph glyph-name="atilde.school" unicode="&#xe156;" horiz-adv-x="641" 
d="M422 0l-12 75q-52 -90 -163 -90q-98 0 -155.5 66.5t-57.5 191.5q0 136 59.5 204.5t161.5 68.5q114 0 160 -83l14 69h155v-502h-162zM394 250q0 125 -90 125q-84 0 -84 -126q0 -121 84 -121q41 0 65.5 31t24.5 91zM385 708h109q5 -69 -28 -101t-81 -32q-34 0 -79.5 15.5
t-62.5 15.5q-28 0 -28 -32h-109q-5 69 28 101t81 32q34 0 79.5 -15.5t62.5 -15.5q28 0 28 32z" />
    <glyph glyph-name="aring.school" unicode="&#xe157;" horiz-adv-x="641" 
d="M422 0l-12 75q-52 -90 -163 -90q-98 0 -155.5 66.5t-57.5 191.5q0 136 59.5 204.5t161.5 68.5q114 0 160 -83l14 69h155v-502h-162zM394 250q0 125 -90 125q-84 0 -84 -126q0 -121 84 -121q41 0 65.5 31t24.5 91zM176 659q0 51 34 79.5t90 28.5q55 0 89 -28.5t34 -79.5
q0 -52 -34 -80.5t-90 -28.5q-55 0 -89 28.5t-34 80.5zM256 659q0 -20 12 -31.5t31 -11.5q20 0 32 11.5t12 31.5q0 19 -12 30t-31 11q-20 0 -32 -11t-12 -30z" />
    <glyph glyph-name="amacron.school" unicode="&#xe159;" horiz-adv-x="641" 
d="M422 0l-12 75q-52 -90 -163 -90q-98 0 -155.5 66.5t-57.5 191.5q0 136 59.5 204.5t161.5 68.5q114 0 160 -83l14 69h155v-502h-162zM394 250q0 125 -90 125q-84 0 -84 -126q0 -121 84 -121q41 0 65.5 31t24.5 91zM453 685v-101h-306v101h306z" />
    <glyph glyph-name="abreve.school" unicode="&#xe15a;" horiz-adv-x="641" 
d="M422 0l-12 75q-52 -90 -163 -90q-98 0 -155.5 66.5t-57.5 191.5q0 136 59.5 204.5t161.5 68.5q114 0 160 -83l14 69h155v-502h-162zM394 250q0 125 -90 125q-84 0 -84 -126q0 -121 84 -121q41 0 65.5 31t24.5 91zM373 710h113q0 -81 -46.5 -114.5t-139.5 -33.5t-139 33.5
t-46 114.5h112q0 -33 17 -46t56 -13t56 13t17 46z" />
    <glyph glyph-name="y.school" unicode="&#xe16b;" horiz-adv-x="639" 
d="M283 -223q-180 0 -237 105l102 94q42 -65 126 -65q112 0 112 113v44q-52 -61 -141 -61q-98 0 -145 53.5t-47 140.5v301h191v-251q0 -85 63 -85q36 0 58 26t22 78v232h194v-474q0 -129 -80.5 -190t-217.5 -61z" />
    <glyph glyph-name="yacute.school" unicode="&#xe16d;" horiz-adv-x="639" 
d="M283 -223q-180 0 -237 105l102 94q42 -65 126 -65q112 0 112 113v44q-52 -61 -141 -61q-98 0 -145 53.5t-47 140.5v301h191v-251q0 -85 63 -85q36 0 58 26t22 78v232h194v-474q0 -129 -80.5 -190t-217.5 -61zM500 704l-136 -134h-147v5l84 136h199v-7z" />
    <glyph glyph-name="ycircumflex.school" unicode="&#xe16e;" horiz-adv-x="639" 
d="M313 622l-56 -52h-141v4l124 137h155l125 -137v-4h-149zM283 -223q-180 0 -237 105l102 94q42 -65 126 -65q112 0 112 113v44q-52 -61 -141 -61q-98 0 -145 53.5t-47 140.5v301h191v-251q0 -85 63 -85q36 0 58 26t22 78v232h194v-474q0 -129 -80.5 -190t-217.5 -61z" />
    <glyph glyph-name="ydieresis.school" unicode="&#xe16f;" horiz-adv-x="639" 
d="M107 649q0 83 95 83t95 -83q0 -84 -95 -84t-95 84zM336 649q0 83 96 83q95 0 95 -83q0 -84 -95 -84q-96 0 -96 84zM283 -223q-180 0 -237 105l102 94q42 -65 126 -65q112 0 112 113v44q-52 -61 -141 -61q-98 0 -145 53.5t-47 140.5v301h191v-251q0 -85 63 -85q36 0 58 26
t22 78v232h194v-474q0 -129 -80.5 -190t-217.5 -61z" />
    <glyph glyph-name="cordinal" unicode="&#xe181;" horiz-adv-x="393" 
d="M215 336q-188 0 -188 189q0 190 195 190q116 0 158 -79l-95 -70q-20 40 -60 40q-33 0 -48.5 -18t-15.5 -63q0 -85 62 -85q50 0 66 40l95 -54q-47 -90 -169 -90z" />
    <glyph glyph-name="ordfeminine.school" unicode="&#xe182;" horiz-adv-x="458" 
d="M303 347l-8 52q-38 -63 -116 -63q-70 0 -111 47.5t-41 136.5q0 98 42 146.5t115 48.5q82 0 114 -59l10 48h112v-357h-117zM283 525q0 88 -63 88q-59 0 -59 -88q0 -85 60 -85q29 0 45.5 21.5t16.5 63.5z" />
    <glyph glyph-name="caronSlovak" unicode="&#xe413;" horiz-adv-x="600" 
d="M382 421h-123l7 279h150z" />
    <glyph glyph-name="commaaccent" unicode="&#xe414;" horiz-adv-x="600" 
d="M241 -354l-33 67q72 18 89 71q-44 0 -69 20.5t-25 59.5q0 86 98 86q47 0 73.5 -27.5t26.5 -80.5q0 -77 -44 -131t-116 -65z" />
    <glyph glyph-name="commaaccent" unicode="&#xf6c3;" horiz-adv-x="600" 
d="M241 -354l-33 67q72 18 89 71q-44 0 -69 20.5t-25 59.5q0 86 98 86q47 0 73.5 -27.5t26.5 -80.5q0 -77 -44 -131t-116 -65z" />
    <glyph glyph-name="exclamdown.cap" unicode="&#xe441;" horiz-adv-x="271" 
d="M39 -1l29 472h136l29 -472h-194zM238 614q0 -95 -102 -95t-102 95q0 46 26.5 70t75.5 24q102 0 102 -94z" />
    <glyph glyph-name="questiondown.cap" unicode="&#xe444;" horiz-adv-x="523" 
d="M345 476l9 -185h-65q-103 0 -103 -88q0 -36 25.5 -57.5t77.5 -21.5q42 0 71 19t50 66l115 -74q-75 -154 -261 -154q-250 0 -250 211q0 94 49 146.5t132 61.5l7 76h143zM380 619q0 -95 -102 -95t-102 95q0 46 26.5 70t75.5 24q102 0 102 -94z" />
    <glyph glyph-name="onethirdemdash" unicode="&#xe471;" horiz-adv-x="381" 
d="M332 411v-148h-282v148h282z" />
    <glyph glyph-name="threequarteremdash" unicode="&#xe472;" horiz-adv-x="694" 
d="M645 411v-148h-595v148h595z" />
    <glyph glyph-name="G.alt" unicode="&#xe486;" horiz-adv-x="758" 
d="M394 -15q-177 0 -262 90.5t-85 275.5q0 186 88 275t267 89q218 0 282 -159l-162 -82q-21 42 -47.5 58.5t-74.5 16.5q-77 0 -113.5 -45.5t-36.5 -154.5q0 -112 38 -158t116 -46q48 0 82 24.5t40 73.5h-122v148h303v-106q0 -300 -313 -300z" />
    <glyph glyph-name="G.alt" unicode="&#xe970;" horiz-adv-x="758" 
d="M394 -15q-177 0 -262 90.5t-85 275.5q0 186 88 275t267 89q218 0 282 -159l-162 -82q-21 42 -47.5 58.5t-74.5 16.5q-77 0 -113.5 -45.5t-36.5 -154.5q0 -112 38 -158t116 -46q48 0 82 24.5t40 73.5h-122v148h303v-106q0 -300 -313 -300z" />
    <glyph glyph-name="K.alt" unicode="&#xe48a;" horiz-adv-x="763" 
d="M506 0l-219 308v-308h-203v700h203v-339l231 339h230l-255 -347l265 -353h-252z" />
    <glyph glyph-name="k.alt" unicode="&#xe4ca;" horiz-adv-x="617" 
d="M56 0v700h195l-7 -416l158 218h196l-189 -248l203 -254h-212l-152 195v-195h-192z" />
    <glyph glyph-name="k.alt" unicode="&#xea89;" horiz-adv-x="617" 
d="M56 0v700h195l-7 -416l158 218h196l-189 -248l203 -254h-212l-152 195v-195h-192z" />
    <glyph glyph-name="at.cap" unicode="&#xe513;" horiz-adv-x="814" 
d="M684 101q-95 -101 -269 -101q-167 0 -261 95t-94 255t94 254.5t261 94.5q161 0 249.5 -89.5t88.5 -242.5q0 -89 -46.5 -137t-129.5 -48q-81 0 -106 51q-35 -58 -116 -58q-53 0 -85.5 27t-32.5 74q0 58 42 87t111 29h59q-4 47 -68 47q-63 0 -94 -36l-44 72q53 61 160 61
q171 0 171 -150v-88q0 -51 42 -51q35 0 56 30.5t21 89.5q0 136 -75.5 206.5t-202.5 70.5q-134 0 -214 -75t-80 -219t80 -218.5t214 -74.5q149 0 228 86zM389 253q28 0 43.5 17t16.5 46v7h-49q-51 0 -51 -36q0 -34 40 -34z" />
    <glyph glyph-name="zero.LP" unicode="&#xe534;" horiz-adv-x="735" 
d="M368 715q164 0 240.5 -89.5t76.5 -275.5t-76.5 -275.5t-240.5 -89.5q-166 0 -242 89.5t-76 275.5t76 275.5t242 89.5zM368 562q-61 0 -91 -48t-30 -164t30 -164.5t90 -48.5q61 0 91 48.5t30 164.5q0 115 -30 163.5t-90 48.5z" />
    <glyph glyph-name="one.LP" unicode="&#xe536;" horiz-adv-x="438" 
d="M354 0h-199v480l-76 -46l-73 154l217 121h131v-709z" />
    <glyph glyph-name="two.LP" unicode="&#xe537;" horiz-adv-x="628" 
d="M38 0l-1 137l233 203q27 24 39.5 36.5t29.5 31.5t23.5 37t6.5 37q0 71 -88 71q-51 0 -81 -20.5t-57 -67.5l-130 92q46 85 116.5 121.5t174.5 36.5q119 0 192.5 -48t73.5 -157q0 -72 -36 -131.5t-113 -129.5l-101 -92l276 6v-163h-558z" />
    <glyph glyph-name="three.LP" unicode="&#xe538;" horiz-adv-x="631" 
d="M303 -15q-200 0 -286 145l141 91q27 -45 58.5 -64.5t76.5 -19.5q100 0 100 74q0 35 -25 52t-80 17h-73v139h73q90 0 90 68q0 70 -93 70q-42 0 -67.5 -17.5t-47.5 -56.5l-138 78q43 82 109.5 118t165.5 36q129 0 198 -53.5t69 -147.5q0 -102 -92 -156q103 -49 103 -157
q0 -100 -74.5 -158t-207.5 -58z" />
    <glyph glyph-name="four.LP" unicode="&#xe539;" horiz-adv-x="701" 
d="M32 136v134l201 430h195l-197 -402h182v243h185v-243h83v-162h-83v-136h-185v136h-381z" />
    <glyph glyph-name="five.LP" unicode="&#xe53a;" horiz-adv-x="619" 
d="M234 548l-10 -112q51 21 120 21q120 0 184 -57.5t64 -166.5q0 -120 -75 -184t-219 -64q-203 0 -287 126l134 97q52 -76 139 -76q55 0 84 25t29 70q0 47 -29 69.5t-77 22.5q-77 0 -113 -40l-130 59l31 362h488v-152h-333z" />
    <glyph glyph-name="six.LP" unicode="&#xe53b;" horiz-adv-x="695" 
d="M378 -15q-160 0 -244 90t-84 272q0 368 329 368q93 0 161 -30t98 -88l-117 -102q-39 72 -126 72q-78 0 -114 -50t-36 -160v-20q22 48 67.5 76t109.5 28q106 0 168 -56.5t62 -162.5q0 -107 -70 -172t-204 -65zM267 219q0 -40 25 -64t69 -24q46 0 72 23t26 65
q0 41 -23.5 64.5t-70.5 23.5q-42 0 -70 -23t-28 -65z" />
    <glyph glyph-name="seven.LP" unicode="&#xe53c;" horiz-adv-x="565" 
d="M136 0q0 164 60.5 302t162.5 234l-340 -7v171h544v-130q-71 -87 -113 -160.5t-68 -176.5t-26 -233h-220z" />
    <glyph glyph-name="eight.LP" unicode="&#xe53d;" horiz-adv-x="678" 
d="M338 -15q-142 0 -216.5 53.5t-74.5 154.5q0 129 119 173q-93 46 -93 149q0 200 266 200t266 -200q0 -102 -94 -149q120 -44 120 -173q0 -102 -74 -155t-219 -53zM437 200q0 38 -26.5 59.5t-69.5 21.5q-46 0 -73 -21.5t-27 -59.5q0 -39 26.5 -60t72.5 -21q44 0 70.5 21
t26.5 60zM429 504q0 34 -24 53.5t-64 19.5q-43 0 -67.5 -19.5t-24.5 -53.5t24.5 -53.5t66.5 -19.5q41 0 65 19.5t24 53.5z" />
    <glyph glyph-name="nine.LP" unicode="&#xe53e;" horiz-adv-x="688" 
d="M310 -15q-206 0 -270 107l114 104q40 -63 140 -63q78 0 113.5 49t35.5 158v19q-21 -50 -66.5 -79t-110.5 -29q-103 0 -164.5 59t-61.5 168q0 108 69 172.5t202 64.5q160 0 244 -90t84 -272q0 -179 -81.5 -273.5t-247.5 -94.5zM419 478q0 39 -25.5 63.5t-69.5 24.5
t-69 -23.5t-25 -66.5q0 -41 22.5 -64t67.5 -23q42 0 70.5 23.5t28.5 65.5z" />
    <glyph glyph-name="zero.LT" unicode="&#xe53f;" 
d="M312 715q291 0 291 -365q0 -182 -75.5 -273.5t-215.5 -91.5q-291 0 -291 365t291 365zM312 562q-56 0 -83.5 -49t-27.5 -163t27.5 -163.5t82.5 -49.5q56 0 84 49t28 164q0 116 -27.5 164t-83.5 48z" />
    <glyph glyph-name="one.LT" unicode="&#xe541;" 
d="M67 0v162h154v318l-74 -46l-70 154l209 121h125v-547h149v-162h-493z" />
    <glyph glyph-name="two.LT" unicode="&#xe542;" 
d="M45 0v137l226 203q35 32 51 48.5t31 42.5t15 51q0 71 -86 71q-50 0 -79.5 -20.5t-54.5 -67.5l-127 92q45 85 114 121.5t169 36.5q55 0 100 -10.5t81.5 -33.5t56.5 -64t20 -97q0 -72 -34.5 -131.5t-109.5 -129.5l-100 -92l270 6v-163h-543z" />
    <glyph glyph-name="three.LT" unicode="&#xe543;" 
d="M314 -15q-195 0 -278 145l133 88q26 -46 56 -65t75 -19q102 0 102 77q0 69 -102 69h-72v139h72q88 0 88 68q0 73 -93 73q-41 0 -65.5 -17t-46.5 -56l-132 74q41 82 106 118t161 36q125 0 191.5 -53.5t66.5 -147.5q0 -103 -89 -156q101 -49 101 -157q0 -99 -72.5 -157.5
t-201.5 -58.5z" />
    <glyph glyph-name="four.LT" unicode="&#xe544;" 
d="M19 136v154l226 410h183l-218 -402h145v120h181v-120h67v-162h-67v-136h-181v136h-336z" />
    <glyph glyph-name="five.LT" unicode="&#xe545;" 
d="M246 548l-10 -112q48 21 117 21q117 0 179.5 -58t62.5 -166q0 -120 -73.5 -184t-213.5 -64q-196 0 -278 126l130 97q51 -79 135 -79q53 0 82 26t29 72q0 47 -28.5 69.5t-75.5 22.5q-74 0 -111 -40l-125 59l31 362h472v-152h-323z" />
    <glyph glyph-name="six.LT" unicode="&#xe546;" 
d="M339 -15q-153 0 -233 90t-80 272q0 179 78 273.5t236 94.5q91 0 158.5 -30t96.5 -88l-115 -102q-37 72 -124 72q-75 0 -110 -50t-35 -160v-20q21 48 65.5 76t106.5 28q99 0 157.5 -56.5t58.5 -162.5q0 -107 -66.5 -172t-193.5 -65zM232 219q0 -39 24.5 -63.5t66.5 -24.5
q44 0 68.5 23t24.5 65q0 41 -22.5 64.5t-66.5 23.5q-41 0 -68 -23t-27 -65z" />
    <glyph glyph-name="seven.LT" unicode="&#xe547;" 
d="M160 0q0 164 59.5 302t160.5 234l-335 -7v171h535v-130q-106 -132 -154.5 -257t-48.5 -313h-217z" />
    <glyph glyph-name="eight.LT" unicode="&#xe548;" 
d="M311 -15q-283 0 -283 212q0 127 114 169q-88 46 -88 149q0 200 258 200q129 0 193.5 -48.5t64.5 -151.5t-88 -149q114 -43 114 -169q0 -212 -285 -212zM409 200q0 38 -26 59.5t-69 21.5q-45 0 -72 -21.5t-27 -59.5q0 -40 26.5 -60.5t71.5 -20.5q44 0 70 21t26 60z
M401 504q0 34 -23.5 53.5t-63.5 19.5q-43 0 -67 -19.5t-24 -53.5t24 -53.5t66 -19.5q40 0 64 19.5t24 53.5z" />
    <glyph glyph-name="nine.LT" unicode="&#xe549;" 
d="M288 -15q-200 0 -262 107l112 104q39 -63 135 -63q75 0 109.5 49t34.5 158v19q-19 -48 -63 -76t-105 -28q-100 0 -159.5 57.5t-59.5 165.5t65.5 172.5t193.5 64.5q153 0 233 -90t80 -272q0 -178 -78 -273t-236 -95zM393 478q0 40 -24.5 64t-65.5 24q-44 0 -68.5 -23.5
t-24.5 -66.5q0 -41 22 -64.5t67 -23.5q41 0 67.5 23.5t26.5 66.5z" />
    <glyph glyph-name="zero.OT" unicode="&#xe555;" 
d="M314 615q138 0 212 -79t74 -236q0 -156 -75 -235.5t-211 -79.5q-140 0 -214.5 79t-74.5 236t74.5 236t214.5 79zM314 463q-54 0 -81 -37t-27 -125q0 -89 27 -126.5t80 -37.5q54 0 80 37t26 126q0 88 -26 125.5t-79 37.5z" />
    <glyph glyph-name="one.OT" unicode="&#xe557;" 
d="M64 0v162h156v218l-73 -46l-72 154l212 122h128v-448h146v-162h-497z" />
    <glyph glyph-name="two.OT" unicode="&#xe558;" 
d="M59 0l-1 122l211 166q37 29 52 42t30.5 35.5t15.5 44.5q0 26 -20.5 39t-53.5 13q-41 0 -65.5 -17.5t-46.5 -59.5l-132 81q42 80 108.5 114.5t161.5 34.5q54 0 97.5 -9t78 -28.5t54 -55t19.5 -83.5q0 -68 -39 -125t-133 -124l-74 -53l260 7v-144h-523z" />
    <glyph glyph-name="three.OT" unicode="&#xe559;" 
d="M305 -115q-194 0 -277 145l133 88q26 -46 56 -65t75 -19q102 0 102 77q0 69 -102 69h-72v139h72q87 0 87 68q0 73 -92 73q-41 0 -65.5 -17t-46.5 -56l-132 74q41 82 105.5 118t160.5 36q125 0 192 -53.5t67 -147.5q0 -103 -89 -156q101 -49 101 -157q0 -99 -72.5 -157.5
t-202.5 -58.5z" />
    <glyph glyph-name="four.OT" unicode="&#xe55a;" 
d="M19 36v154l226 410h183l-218 -402h145v120h181v-120h67v-162h-67v-136h-181v136h-336z" />
    <glyph glyph-name="five.OT" unicode="&#xe55b;" 
d="M238 448l-10 -112q48 21 117 21q116 0 178.5 -57.5t62.5 -166.5q0 -120 -73 -184t-213 -64q-196 0 -279 126l130 97q52 -79 135 -79q54 0 83 26t29 72q0 47 -28.5 69.5t-75.5 22.5q-75 0 -111 -40l-125 59l31 362h471v-152h-322z" />
    <glyph glyph-name="six.OT" unicode="&#xe55c;" 
d="M340 -15q-153 0 -233 90t-80 272q0 179 78 273.5t236 94.5q92 0 159 -29.5t97 -88.5l-115 -102q-39 72 -125 72q-75 0 -110 -50t-35 -160v-20q48 104 172 104q99 0 157.5 -56.5t58.5 -162.5q0 -107 -66 -172t-194 -65zM234 219q0 -39 24 -63.5t66 -24.5q44 0 68.5 23
t24.5 65q0 41 -22 64.5t-67 23.5q-41 0 -67.5 -23t-26.5 -65z" />
    <glyph glyph-name="seven.OT" unicode="&#xe55d;" 
d="M151 -100q0 164 59.5 302t160.5 234l-335 -7v171h535v-130q-106 -132 -154.5 -257t-48.5 -313h-217z" />
    <glyph glyph-name="eight.OT" unicode="&#xe55e;" 
d="M303 -15q-283 0 -283 212q0 127 114 169q-88 46 -88 149q0 200 258 200t258 -200q0 -103 -89 -149q115 -43 115 -169q0 -212 -285 -212zM401 200q0 38 -26 59.5t-69 21.5q-45 0 -72 -21.5t-27 -59.5q0 -40 26 -60.5t71 -20.5q44 0 70.5 21t26.5 60zM393 504
q0 34 -23.5 53.5t-63.5 19.5q-43 0 -67 -19.5t-24 -53.5t24 -53.5t65 -19.5t65 19.5t24 53.5z" />
    <glyph glyph-name="nine.OT" unicode="&#xe55f;" 
d="M281 -115q-200 0 -262 107l112 104q39 -63 135 -63q75 0 109.5 49t34.5 158v19q-19 -48 -63 -76t-105 -28q-100 0 -159.5 57.5t-59.5 165.5t66 172.5t194 64.5q152 0 232 -90t80 -272q0 -178 -78 -273t-236 -95zM387 378q0 39 -24.5 63.5t-66.5 24.5q-44 0 -68.5 -23.5
t-24.5 -66.5q0 -41 22 -64.5t67 -23.5q41 0 68 23.5t27 66.5z" />
    <glyph glyph-name="zero.inf" unicode="&#xe571;" horiz-adv-x="451" 
d="M225 222q102 0 150.5 -54.5t48.5 -164.5t-48 -164t-151 -54t-151 54t-48 164t48 164.5t151 54.5zM225 118q-32 0 -47.5 -26t-15.5 -88q0 -63 15.5 -89t47.5 -26t47.5 26t15.5 88q0 63 -15.5 89t-47.5 26z" />
    <glyph glyph-name="one.inf" unicode="&#xe572;" horiz-adv-x="284" 
d="M234 -200h-138v263l-41 -23l-50 102l138 73h91v-415z" />
    <glyph glyph-name="two.inf" unicode="&#xe573;" horiz-adv-x="391" 
d="M23 -200v88l141 118q18 16 26.5 25t16.5 22t8 26q0 34 -44 34q-26 0 -42.5 -11.5t-33.5 -37.5l-90 63q54 94 183 94q167 0 167 -123q0 -77 -86 -151l-47 -42l148 4v-109h-347z" />
    <glyph glyph-name="three.inf" unicode="&#xe574;" horiz-adv-x="390" 
d="M188 -214q-125 0 -177 88l95 59q15 -25 31.5 -34.5t42.5 -9.5q50 0 50 34q0 32 -56 32h-38v91h38q47 0 47 35q0 33 -46 33q-39 0 -61 -41l-96 52q28 51 69.5 73.5t102.5 22.5q81 0 124.5 -33t43.5 -90q0 -59 -55 -92q61 -31 61 -91t-47 -94.5t-129 -34.5z" />
    <glyph glyph-name="four.inf" unicode="&#xe575;" horiz-adv-x="438" 
d="M21 -127v89l117 247h134l-114 -228h92v120h129v-120h42v-108h-42v-73h-129v73h-229z" />
    <glyph glyph-name="five.inf" unicode="&#xe576;" horiz-adv-x="384" 
d="M155 108l-6 -48q34 9 64 9q76 0 115.5 -35t39.5 -100q0 -71 -47 -109t-136 -38q-127 0 -182 76l94 66q30 -40 78 -40q56 0 56 44q0 23 -16 34t-40 11q-36 0 -56 -23l-91 40l18 213h306v-101z" />
    <glyph glyph-name="six.inf" unicode="&#xe577;" horiz-adv-x="420" 
d="M227 -213q-202 0 -202 215q0 219 202 219q125 0 162 -73l-80 -69q-22 41 -70 41q-43 0 -62.5 -26t-19.5 -85q31 50 100 50q62 0 98.5 -33.5t36.5 -97.5t-42 -102.5t-123 -38.5zM169 -72q0 -18 12.5 -30t34.5 -12t34.5 11.5t12.5 30.5q0 40 -46 40q-20 0 -34 -10t-14 -30z
" />
    <glyph glyph-name="seven.inf" unicode="&#xe578;" horiz-adv-x="357" 
d="M233 -200h-153q0 183 128 299l-196 -4v113h338v-84q-65 -83 -91 -152t-26 -172z" />
    <glyph glyph-name="eight.inf" unicode="&#xe579;" horiz-adv-x="416" 
d="M206 -213q-180 0 -180 127q0 74 64 99q-49 32 -49 87q0 121 166 121t166 -121q0 -55 -51 -87q65 -25 65 -99q0 -127 -181 -127zM254 -84q0 18 -12 28.5t-33 10.5q-50 0 -50 -39q0 -18 13 -28.5t35 -10.5q47 0 47 39zM251 92q0 16 -12 25.5t-31 9.5q-21 0 -33 -9.5
t-12 -25.5q0 -35 44 -35t44 35z" />
    <glyph glyph-name="nine.inf" unicode="&#xe57a;" horiz-adv-x="417" 
d="M184 -213q-54 0 -100.5 16t-66.5 47l78 73q23 -36 80 -36q83 0 81 108q-28 -52 -100 -52q-61 0 -98 35t-37 99q0 66 41.5 105t127.5 39q96 0 147 -53.5t51 -161.5q0 -219 -204 -219zM243 77q0 20 -13 31t-35 11q-44 0 -44 -41q0 -42 44 -42q20 0 34 10.5t14 30.5z" />
    <glyph glyph-name="plus.inf" unicode="&#xe57b;" horiz-adv-x="318" 
d="M208 -143h-98v85h-84v78h84v87h98v-87h84v-78h-84v-85z" />
    <glyph glyph-name="minus.inf" unicode="&#xe57c;" horiz-adv-x="318" 
d="M292 20v-78h-266v78h266z" />
    <glyph glyph-name="equal.inf" unicode="&#xe57d;" horiz-adv-x="318" 
d="M292 -32v-79h-266v79h266zM292 70v-79h-266v79h266z" />
    <glyph glyph-name="parenleft.inf" unicode="&#xe57e;" horiz-adv-x="240" 
d="M223 -206l-11 -101q-190 16 -190 265q0 248 186 264l15 -101q-51 -5 -75 -42t-24 -121q0 -85 24 -121.5t75 -42.5z" />
    <glyph glyph-name="parenright.inf" unicode="&#xe57f;" horiz-adv-x="240" 
d="M28 -307l-12 101q51 6 75.5 42.5t24.5 121.5q0 84 -24.5 121t-75.5 42l15 101q186 -16 186 -264q0 -249 -189 -265z" />
    <glyph glyph-name="idotaccent" unicode="&#xe785;" horiz-adv-x="309" 
d="M58 502h194v-502h-194v502zM47 646q0 95 108 95q106 0 106 -95q0 -93 -106 -93q-108 0 -108 93z" />
    <glyph glyph-name="kcommaaccent.alt" unicode="&#xe915;" horiz-adv-x="617" 
d="M266 -354l-33 67q72 18 89 71q-44 0 -69 20.5t-25 59.5q0 86 98 86q47 0 73.5 -27.5t26.5 -80.5q0 -77 -44 -131t-116 -65zM56 0v700h195l-7 -416l158 218h196l-189 -248l203 -254h-212l-152 195v-195h-192z" />
    <glyph glyph-name="Gbreve.alt" unicode="&#xe971;" horiz-adv-x="758" 
d="M394 -15q-177 0 -262 90.5t-85 275.5q0 186 88 275t267 89q218 0 282 -159l-162 -82q-21 42 -47.5 58.5t-74.5 16.5q-77 0 -113.5 -45.5t-36.5 -154.5q0 -112 38 -158t116 -46q48 0 82 24.5t40 73.5h-122v148h303v-106q0 -300 -313 -300zM470 908h113q0 -81 -46.5 -114.5
t-139.5 -33.5t-139 33.5t-46 114.5h112q0 -33 17 -46t56 -13t56 13t17 46z" />
    <glyph glyph-name="Gcircumflex.alt" unicode="&#xe972;" horiz-adv-x="758" 
d="M394 -15q-177 0 -262 90.5t-85 275.5q0 186 88 275t267 89q218 0 282 -159l-162 -82q-21 42 -47.5 58.5t-74.5 16.5q-77 0 -113.5 -45.5t-36.5 -154.5q0 -112 38 -158t116 -46q48 0 82 24.5t40 73.5h-122v148h303v-106q0 -300 -313 -300zM394 820l-56 -52h-141v4l124 137
h155l125 -137v-4h-149z" />
    <glyph glyph-name="Gcommaaccent.alt" unicode="&#xe973;" horiz-adv-x="758" 
d="M394 -15q-177 0 -262 90.5t-85 275.5q0 186 88 275t267 89q218 0 282 -159l-162 -82q-21 42 -47.5 58.5t-74.5 16.5q-77 0 -113.5 -45.5t-36.5 -154.5q0 -112 38 -158t116 -46q48 0 82 24.5t40 73.5h-122v148h303v-106q0 -300 -313 -300zM324 -354l-33 67q72 18 89 71
q-44 0 -69 20.5t-25 59.5q0 86 98 86q47 0 73.5 -27.5t26.5 -80.5q0 -77 -44 -131t-116 -65z" />
    <glyph glyph-name="Gdotaccent.alt" unicode="&#xe974;" horiz-adv-x="758" 
d="M394 -15q-177 0 -262 90.5t-85 275.5q0 186 88 275t267 89q218 0 282 -159l-162 -82q-21 42 -47.5 58.5t-74.5 16.5q-77 0 -113.5 -45.5t-36.5 -154.5q0 -112 38 -158t116 -46q48 0 82 24.5t40 73.5h-122v148h303v-106q0 -300 -313 -300zM296 847q0 85 101 85
q100 0 100 -85q0 -84 -100 -84q-101 0 -101 84z" />
    <glyph glyph-name="Kcommaaccent.alt" unicode="&#xeba9;" horiz-adv-x="763" 
d="M339 -354l-33 67q72 18 89 71q-44 0 -69 20.5t-25 59.5q0 86 98 86q47 0 73.5 -27.5t26.5 -80.5q0 -77 -44 -131t-116 -65zM506 0l-219 308v-308h-203v700h203v-339l231 339h230l-255 -347l265 -353h-252z" />
    </font>
</defs>
</svg>
